<svg width="37" height="32" viewBox="0 0 37 32" fill="none" xmlns="http://www.w3.org/2000/svg">
<g clip-path="url(#clip0_47_42159)">
<path d="M21.4213 26.1836L23.368 26.1836L23.368 23.2754L21.4213 23.2754L21.4213 26.1836Z" fill="#E6F4E6"/>
<path d="M21.4213 29.0918L23.368 29.0918L23.368 26.1837L21.4213 26.1837L21.4213 29.0918Z" fill="#E6F4E6"/>
<path d="M21.4213 32L23.368 32L23.368 29.0919L21.4213 29.0919L21.4213 32Z" fill="#E6F4E6"/>
<path d="M21.4213 23.2722L23.368 23.2722L23.368 20.3641L21.4213 20.3641L21.4213 23.2722Z" fill="#E6F4E6"/>
<path d="M21.4213 8.72803L23.368 8.72803L23.368 5.81988L21.4213 5.81988L21.4213 8.72803Z" fill="#E6F4E6"/>
<path d="M21.4213 5.81982L23.368 5.81982L23.368 2.91168L21.4213 2.91168L21.4213 5.81982Z" fill="#E6F4E6"/>
<path d="M21.4213 2.9082L23.368 2.9082L23.368 6.00815e-05L21.4213 5.99113e-05L21.4213 2.9082Z" fill="#E6F4E6"/>
<path d="M19.4746 2.9082L21.4213 2.9082L21.4213 6.00815e-05L19.4746 5.99113e-05L19.4746 2.9082Z" fill="#E6F4E6"/>
<path d="M19.4746 5.81982L21.4213 5.81982L21.4213 2.91168L19.4746 2.91168L19.4746 5.81982Z" fill="#E6F4E6"/>
<path d="M19.4746 29.0918L21.4213 29.0918L21.4213 26.1837L19.4746 26.1837L19.4746 29.0918Z" fill="#E6F4E6"/>
<path d="M19.4746 32L21.4213 32L21.4213 29.0919L19.4746 29.0919L19.4746 32Z" fill="#E6F4E6"/>
<path d="M17.5278 29.0918L19.4745 29.0918L19.4745 26.1837L17.5278 26.1837L17.5278 29.0918Z" fill="#E6F4E6"/>
<path d="M17.5278 5.81982L19.4745 5.81982L19.4745 2.91168L17.5278 2.91168L17.5278 5.81982Z" fill="#E6F4E6"/>
<path d="M15.5787 5.81982L17.5255 5.81982L17.5255 2.91168L15.5787 2.91168L15.5787 5.81982Z" fill="#E6F4E6"/>
<path d="M13.6319 20.364L15.5787 20.364L15.5787 17.4559L13.6319 17.4559L13.6319 20.364Z" fill="#E6F4E6"/>
<path d="M11.6852 20.364L13.632 20.364L13.632 17.4559L11.6852 17.4559L11.6852 20.364Z" fill="#E6F4E6"/>
<path d="M9.73842 20.364L11.6852 20.364L11.6852 17.4559L9.73842 17.4559L9.73842 20.364Z" fill="#E6F4E6"/>
<path d="M7.78933 20.364L9.73608 20.364L9.73608 17.4559L7.78933 17.4559L7.78933 20.364Z" fill="#E6F4E6"/>
<path d="M7.78933 23.2722L9.73608 23.2722L9.73608 20.3641L7.78933 20.3641L7.78933 23.2722Z" fill="#E6F4E6"/>
<path d="M5.84261 20.364L7.78937 20.364L7.78937 17.4559L5.84261 17.4559L5.84261 20.364Z" fill="#E6F4E6"/>
<path d="M7.78933 14.5476L9.73608 14.5476L9.73608 11.6395L7.78933 11.6395L7.78933 14.5476Z" fill="#E6F4E6"/>
<path d="M5.84261 14.5476L7.78937 14.5476L7.78937 11.6395L5.84261 11.6395L5.84261 14.5476Z" fill="#E6F4E6"/>
<path d="M3.89583 14.5476L5.84259 14.5476L5.84259 11.6395L3.89583 11.6395L3.89583 14.5476Z" fill="#E6F4E6"/>
<path d="M11.6852 17.4558L13.632 17.4558L13.632 14.5477L11.6852 14.5477L11.6852 17.4558Z" fill="#E6F4E6"/>
<path d="M9.73842 17.4558L11.6852 17.4558L11.6852 14.5477L9.73842 14.5477L9.73842 17.4558Z" fill="#E6F4E6"/>
<path d="M7.78933 17.4558L9.73608 17.4558L9.73608 14.5477L7.78933 14.5477L7.78933 17.4558Z" fill="#E6F4E6"/>
<path d="M5.84261 17.4558L7.78937 17.4558L7.78937 14.5477L5.84261 14.5477L5.84261 17.4558Z" fill="#E6F4E6"/>
<path d="M3.89583 17.4558L5.84259 17.4558L5.84259 14.5477L3.89583 14.5477L3.89583 17.4558Z" fill="#E6F4E6"/>
<path d="M3.89583 20.364L5.84259 20.364L5.84259 17.4559L3.89583 17.4559L3.89583 20.364Z" fill="#E6F4E6"/>
<path d="M1.94905 17.4558L3.89581 17.4558L3.89581 14.5477L1.94905 14.5477L1.94905 17.4558Z" fill="#E6F4E6"/>
<path d="M1.89543e-05 17.4558L1.94678 17.4558L1.94678 14.5477L1.92085e-05 14.5477L1.89543e-05 17.4558Z" fill="#E6F4E6"/>
<path d="M13.6319 17.4558L15.5787 17.4558L15.5787 14.5477L13.6319 14.5477L13.6319 17.4558Z" fill="#E6F4E6"/>
<path d="M17.5278 8.72803L19.4745 8.72803L19.4745 5.81988L17.5278 5.81988L17.5278 8.72803Z" fill="#E6F4E6"/>
<path d="M13.6319 14.5476L15.5787 14.5476L15.5787 11.6395L13.6319 11.6395L13.6319 14.5476Z" fill="#E6F4E6"/>
<path d="M11.6852 14.5476L13.632 14.5476L13.632 11.6395L11.6852 11.6395L11.6852 14.5476Z" fill="#E6F4E6"/>
<path d="M9.73842 14.5476L11.6852 14.5476L11.6852 11.6395L9.73842 11.6395L9.73842 14.5476Z" fill="#E6F4E6"/>
<path d="M15.5787 20.364L17.5255 20.364L17.5255 17.4559L15.5787 17.4559L15.5787 20.364Z" fill="#E6F4E6"/>
<path d="M15.5787 17.4558L17.5255 17.4558L17.5255 14.5477L15.5787 14.5477L15.5787 17.4558Z" fill="#E6F4E6"/>
<path d="M15.5787 14.5476L17.5255 14.5476L17.5255 11.6395L15.5787 11.6395L15.5787 14.5476Z" fill="#E6F4E6"/>
<path d="M15.5787 11.636L17.5255 11.636L17.5255 8.72784L15.5787 8.72784L15.5787 11.636Z" fill="#E6F4E6"/>
<path d="M13.6319 11.636L15.5787 11.636L15.5787 8.72784L13.6319 8.72784L13.6319 11.636Z" fill="#E6F4E6"/>
<path d="M21.4213 11.636L23.368 11.636L23.368 8.72784L21.4213 8.72784L21.4213 11.636Z" fill="#E6F4E6"/>
<path d="M23.3704 11.636L25.3171 11.636L25.3171 8.72784L23.3704 8.72784L23.3704 11.636Z" fill="#E6F4E6"/>
<path d="M25.3172 11.636L27.2639 11.636L27.2639 8.72784L25.3172 8.72784L25.3172 11.636Z" fill="#E6F4E6"/>
<path d="M23.3704 23.2722L25.3171 23.2722L25.3171 20.3641L23.3704 20.3641L23.3704 23.2722Z" fill="#E6F4E6"/>
<path d="M27.2639 11.636L29.2106 11.636L29.2106 8.72784L27.2639 8.72784L27.2639 11.636Z" fill="#E6F4E6"/>
<path d="M29.2107 11.636L31.1574 11.636L31.1574 8.72784L29.2107 8.72784L29.2107 11.636Z" fill="#E6F4E6"/>
<path d="M31.1574 17.4558L33.1042 17.4558L33.1042 14.5477L31.1574 14.5477L31.1574 17.4558Z" fill="#E6F4E6"/>
<path d="M31.1574 14.5476L33.1042 14.5476L33.1042 11.6395L31.1574 11.6395L31.1574 14.5476Z" fill="#E6F4E6"/>
<path d="M31.1574 11.636L33.1042 11.636L33.1042 8.72784L31.1574 8.72784L31.1574 11.636Z" fill="#E6F4E6"/>
<path d="M27.2639 23.2722L29.2106 23.2722L29.2106 20.3641L27.2639 20.3641L27.2639 23.2722Z" fill="#E6F4E6"/>
<path d="M15.5787 23.2722L17.5255 23.2722L17.5255 20.3641L15.5787 20.3641L15.5787 23.2722Z" fill="#E6F4E6"/>
<path d="M13.6319 23.2722L15.5787 23.2722L15.5787 20.3641L13.6319 20.3641L13.6319 23.2722Z" fill="#E6F4E6"/>
<path d="M11.6852 23.2722L13.632 23.2722L13.632 20.3641L11.6852 20.3641L11.6852 23.2722Z" fill="#E6F4E6"/>
<path d="M11.6852 26.1836L13.632 26.1836L13.632 23.2754L11.6852 23.2754L11.6852 26.1836Z" fill="#E6F4E6"/>
<path d="M9.73842 23.2722L11.6852 23.2722L11.6852 20.3641L9.73842 20.3641L9.73842 23.2722Z" fill="#E6F4E6"/>
<path d="M11.6852 11.636L13.632 11.636L13.632 8.72784L11.6852 8.72784L11.6852 11.636Z" fill="#E6F4E6"/>
<path d="M9.73842 11.636L11.6852 11.636L11.6852 8.72784L9.73842 8.72784L9.73842 11.636Z" fill="#E6F4E6"/>
<path d="M7.78933 11.636L9.73608 11.636L9.73608 8.72784L7.78933 8.72784L7.78933 11.636Z" fill="#E6F4E6"/>
<path d="M19.4746 20.364L21.4213 20.364L21.4213 17.4559L19.4746 17.4559L19.4746 20.364Z" fill="#E6F4E6"/>
<path d="M19.4746 17.4558L21.4213 17.4558L21.4213 14.5477L19.4746 14.5477L19.4746 17.4558Z" fill="#E6F4E6"/>
<path d="M19.4746 14.5476L21.4213 14.5476L21.4213 11.6395L19.4746 11.6395L19.4746 14.5476Z" fill="#E6F4E6"/>
<path d="M21.4213 20.364L23.368 20.364L23.368 17.4559L21.4213 17.4559L21.4213 20.364Z" fill="#E6F4E6"/>
<path d="M21.4213 17.4558L23.368 17.4558L23.368 14.5477L21.4213 14.5477L21.4213 17.4558Z" fill="#E6F4E6"/>
<path d="M21.4213 14.5476L23.368 14.5476L23.368 11.6395L21.4213 11.6395L21.4213 14.5476Z" fill="#E6F4E6"/>
<path d="M23.3704 20.364L25.3171 20.364L25.3171 17.4559L23.3704 17.4559L23.3704 20.364Z" fill="#E6F4E6"/>
<path d="M23.3704 17.4558L25.3171 17.4558L25.3171 14.5477L23.3704 14.5477L23.3704 17.4558Z" fill="#E6F4E6"/>
<path d="M23.3704 14.5476L25.3171 14.5476L25.3171 11.6395L23.3704 11.6395L23.3704 14.5476Z" fill="#E6F4E6"/>
<path d="M25.3172 20.364L27.2639 20.364L27.2639 17.4559L25.3172 17.4559L25.3172 20.364Z" fill="#E6F4E6"/>
<path d="M25.3172 17.4558L27.2639 17.4558L27.2639 14.5477L25.3172 14.5477L25.3172 17.4558Z" fill="#E6F4E6"/>
<path d="M25.3172 14.5476L27.2639 14.5476L27.2639 11.6395L25.3172 11.6395L25.3172 14.5476Z" fill="#E6F4E6"/>
<path d="M27.2639 20.364L29.2106 20.364L29.2106 17.4559L27.2639 17.4559L27.2639 20.364Z" fill="#E6F4E6"/>
<path d="M27.2639 17.4558L29.2106 17.4558L29.2106 14.5477L27.2639 14.5477L27.2639 17.4558Z" fill="#E6F4E6"/>
<path d="M27.2639 14.5476L29.2106 14.5476L29.2106 11.6395L27.2639 11.6395L27.2639 14.5476Z" fill="#E6F4E6"/>
<path d="M29.2107 20.364L31.1574 20.364L31.1574 17.4559L29.2107 17.4559L29.2107 20.364Z" fill="#E6F4E6"/>
<path d="M29.2107 17.4558L31.1574 17.4558L31.1574 14.5477L29.2107 14.5477L29.2107 17.4558Z" fill="#E6F4E6"/>
<path d="M29.2107 14.5476L31.1574 14.5476L31.1574 11.6395L29.2107 11.6395L29.2107 14.5476Z" fill="#E6F4E6"/>
<path d="M19.4746 11.636L21.4213 11.636L21.4213 8.72784L19.4746 8.72784L19.4746 11.636Z" fill="#E6F4E6"/>
<path d="M19.4746 8.72803L21.4213 8.72803L21.4213 5.81988L19.4746 5.81988L19.4746 8.72803Z" fill="#E6F4E6"/>
<path d="M19.4746 23.2722L21.4213 23.2722L21.4213 20.3641L19.4746 20.3641L19.4746 23.2722Z" fill="#E6F4E6"/>
<path d="M17.5278 20.364L19.4745 20.364L19.4745 17.4559L17.5278 17.4559L17.5278 20.364Z" fill="#E6F4E6"/>
<path d="M17.5278 17.4558L19.4745 17.4558L19.4745 14.5477L17.5278 14.5477L17.5278 17.4558Z" fill="#E6F4E6"/>
<path d="M17.5278 14.5476L19.4745 14.5476L19.4745 11.6395L17.5278 11.6395L17.5278 14.5476Z" fill="#E6F4E6"/>
<path d="M17.5278 11.636L19.4745 11.636L19.4745 8.72784L17.5278 8.72784L17.5278 11.636Z" fill="#E6F4E6"/>
<path d="M17.5278 23.2722L19.4745 23.2722L19.4745 20.3641L17.5278 20.3641L17.5278 23.2722Z" fill="#E6F4E6"/>
<path d="M19.4746 26.1836L21.4213 26.1836L21.4213 23.2754L19.4746 23.2754L19.4746 26.1836Z" fill="#E6F4E6"/>
<path d="M17.5278 26.1836L19.4745 26.1836L19.4745 23.2754L17.5278 23.2754L17.5278 26.1836Z" fill="#E6F4E6"/>
<path d="M15.5787 26.1836L17.5255 26.1836L17.5255 23.2754L15.5787 23.2754L15.5787 26.1836Z" fill="#E6F4E6"/>
<path d="M15.5787 29.0918L17.5255 29.0918L17.5255 26.1837L15.5787 26.1837L15.5787 29.0918Z" fill="#E6F4E6"/>
<path d="M13.6319 26.1836L15.5787 26.1836L15.5787 23.2754L13.6319 23.2754L13.6319 26.1836Z" fill="#E6F4E6"/>
<path d="M15.5787 8.72803L17.5255 8.72803L17.5255 5.81988L15.5787 5.81988L15.5787 8.72803Z" fill="#E6F4E6"/>
<path d="M13.632 8.72803L15.5787 8.72803L15.5787 5.81988L13.632 5.81988L13.632 8.72803Z" fill="#E6F4E6"/>
<path d="M11.6852 8.72778L13.632 8.72778L13.632 5.81964L11.6852 5.81964L11.6852 8.72778Z" fill="#E6F4E6"/>
<path d="M29.2107 23.2722L31.1574 23.2722L31.1574 20.3641L29.2107 20.3641L29.2107 23.2722Z" fill="#E6F4E6"/>
<path d="M29.2107 23.2722L31.1574 23.2722L31.1574 20.3641L29.2107 20.3641L29.2107 23.2722Z" fill="#E6F4E6"/>
<path d="M31.1574 23.2722L33.1042 23.2722L33.1042 20.3641L31.1574 20.3641L31.1574 23.2722Z" fill="#E6F4E6"/>
<path d="M31.1574 20.364L33.1042 20.364L33.1042 17.4559L31.1574 17.4559L31.1574 20.364Z" fill="#E6F4E6"/>
<path d="M33.1065 17.4558L35.0532 17.4558L35.0532 14.5477L33.1065 14.5477L33.1065 17.4558Z" fill="#E6F4E6"/>
<path d="M33.1065 14.5476L35.0532 14.5476L35.0532 11.6395L33.1065 11.6395L33.1065 14.5476Z" fill="#E6F4E6"/>
<path d="M33.1065 11.636L35.0532 11.636L35.0532 8.72784L33.1065 8.72784L33.1065 11.636Z" fill="#E6F4E6"/>
<path d="M33.1065 23.2722L35.0532 23.2722L35.0532 20.3641L33.1065 20.3641L33.1065 23.2722Z" fill="#E6F4E6"/>
<path d="M33.1065 20.364L35.0532 20.364L35.0532 17.4559L33.1065 17.4559L33.1065 20.364Z" fill="#E6F4E6"/>
<path d="M35.0532 17.4558L37 17.4558L37 14.5477L35.0532 14.5477L35.0532 17.4558Z" fill="#E6F4E6"/>
<path d="M35.0532 14.5476L37 14.5476L37 11.6395L35.0532 11.6395L35.0532 14.5476Z" fill="#E6F4E6"/>
<path d="M35.0532 11.636L37 11.636L37 8.72784L35.0532 8.72784L35.0532 11.636Z" fill="#E6F4E6"/>
<path d="M35.0532 23.2722L37 23.2722L37 20.3641L35.0532 20.3641L35.0532 23.2722Z" fill="#E6F4E6"/>
<path d="M35.0532 20.364L37 20.364L37 17.4559L35.0532 17.4559L35.0532 20.364Z" fill="#E6F4E6"/>
<path d="M25.3172 23.2722L27.2639 23.2722L27.2639 20.3641L25.3172 20.3641L25.3172 23.2722Z" fill="#E6F4E6"/>
</g>
<defs>
<clipPath id="clip0_47_42159">
<rect width="37" height="32" fill="white" transform="translate(37 32) rotate(-180)"/>
</clipPath>
</defs>
</svg>
