<svg width="63" height="42" viewBox="0 0 63 42" fill="none" xmlns="http://www.w3.org/2000/svg">
<path d="M11.2177 2.81262L50.9999 2.81268V5.6164L53.789 5.61767V8.42267L56.5768 8.42394V11.2277H59.3979V30.794L56.5768 30.7788V33.5825H53.789V36.3888H50.9999V39.1938L11.2177 39.1937V36.39H8.42863V33.585H5.64081V30.7787H2.81976V11.2276H5.64081V8.42389H8.42863V5.61762H11.2177V2.81262Z" fill="#8475FA"/>
<path d="M14.0363 0.00634766H11.2165V2.81008H14.0363V0.00634766Z" fill="#ABA5F9"/>
<path d="M11.2165 2.81262H8.39673V5.61635H11.2165V2.81262Z" fill="#ABA5F9"/>
<path d="M8.42866 5.61768H5.60889V8.4214H8.42866V5.61768Z" fill="#ABA5F9"/>
<path d="M5.63953 8.42383H2.81976V11.2276H5.63953V8.42383Z" fill="#ABA5F9"/>
<path d="M2.81977 11.2277H0V14.0314H2.81977V11.2277Z" fill="#ABA5F9"/>
<path d="M2.81977 14.0187H0V16.8224H2.81977V14.0187Z" fill="#ABA5F9"/>
<path d="M2.81977 16.8097H0V19.6134H2.81977V16.8097Z" fill="#ABA5F9"/>
<path d="M2.81977 19.6021H0V22.4058H2.81977V19.6021Z" fill="#ABA5F9"/>
<path d="M14.0363 39.1963H11.2165V42H14.0363V39.1963Z" fill="#ABA5F9"/>
<path d="M16.856 39.1963H14.0363V42H16.856V39.1963Z" fill="#ABA5F9"/>
<path d="M19.677 39.1963H16.8572V42H19.677V39.1963Z" fill="#ABA5F9"/>
<path d="M22.4968 39.1963H19.677V42H22.4968V39.1963Z" fill="#ABA5F9"/>
<path d="M25.3166 39.1963H22.4968V42H25.3166V39.1963Z" fill="#ABA5F9"/>
<path d="M28.1364 39.1963H25.3166V42H28.1364V39.1963Z" fill="#ABA5F9"/>
<path d="M30.9574 39.1963H28.1376V42H30.9574V39.1963Z" fill="#ABA5F9"/>
<path d="M33.7772 39.1963H30.9574V42H33.7772V39.1963Z" fill="#ABA5F9"/>
<path d="M36.5969 39.1963H33.7772V42H36.5969V39.1963Z" fill="#ABA5F9"/>
<path d="M39.418 39.1963H36.5983V42H39.418V39.1963Z" fill="#ABA5F9"/>
<path d="M42.2377 39.1963H39.418V42H42.2377V39.1963Z" fill="#ABA5F9"/>
<path d="M45.0575 39.1963H42.2377V42H45.0575V39.1963Z" fill="#ABA5F9"/>
<path d="M47.8773 39.1963H45.0575V42H47.8773V39.1963Z" fill="#ABA5F9"/>
<path d="M50.9999 39.1963H47.8785V42H50.9999V39.1963Z" fill="#ABA5F9"/>
<path d="M16.856 0H14.0363V2.80373H16.856V0Z" fill="#ABA5F9"/>
<path d="M19.677 0H16.8572V2.80373H19.677V0Z" fill="#ABA5F9"/>
<path d="M22.4968 0H19.677V2.80373H22.4968V0Z" fill="#ABA5F9"/>
<path d="M25.3166 0H22.4968V2.80373H25.3166V0Z" fill="#ABA5F9"/>
<path d="M28.1364 0H25.3166V2.80373H28.1364V0Z" fill="#ABA5F9"/>
<path d="M30.9574 0H28.1376V2.80373H30.9574V0Z" fill="#ABA5F9"/>
<path d="M33.7772 0H30.9574V2.80373H33.7772V0Z" fill="#ABA5F9"/>
<path d="M36.5969 0H33.7772V2.80373H36.5969V0Z" fill="#ABA5F9"/>
<path d="M39.418 0H36.5983V2.80373H39.418V0Z" fill="#ABA5F9"/>
<path d="M42.2377 0H39.418V2.80373H42.2377V0Z" fill="#ABA5F9"/>
<path d="M45.0575 0H42.2377V2.80373H45.0575V0Z" fill="#ABA5F9"/>
<path d="M47.8773 0H45.0575V2.80373H47.8773V0Z" fill="#ABA5F9"/>
<path d="M50.9999 0H47.8785V2.80373H50.9999V0Z" fill="#ABA5F9"/>
<path d="M11.2165 36.39H8.39673V39.1937H11.2165V36.39Z" fill="#ABA5F9"/>
<path d="M8.42866 33.585H5.60889V36.3887H8.42866V33.585Z" fill="#ABA5F9"/>
<path d="M5.63953 30.7788H2.81976V33.5825H5.63953V30.7788Z" fill="#ABA5F9"/>
<path d="M2.81977 27.9902H0V30.794H2.81977V27.9902Z" fill="#ABA5F9"/>
<path d="M2.81977 25.1992H0V28.0029H2.81977V25.1992Z" fill="#ABA5F9"/>
<path d="M2.81977 22.407H0V25.2107H2.81977V22.407Z" fill="#ABA5F9"/>
<path d="M53.8197 2.81262H50.9999V5.61635H53.8197V2.81262Z" fill="#ABA5F9"/>
<path d="M56.6089 5.61768H53.7891V8.4214H56.6089V5.61768Z" fill="#ABA5F9"/>
<path d="M59.3967 8.42383H56.5769V11.2276H59.3967V8.42383Z" fill="#ABA5F9"/>
<path d="M62.2177 11.2277H59.3979V14.0314H62.2177V11.2277Z" fill="#ABA5F9"/>
<path d="M62.2177 14.0187H59.3979V16.8224H62.2177V14.0187Z" fill="#ABA5F9"/>
<path d="M62.2177 16.8097H59.3979V19.6134H62.2177V16.8097Z" fill="#ABA5F9"/>
<path d="M62.2177 19.6021H59.3979V22.4058H62.2177V19.6021Z" fill="#ABA5F9"/>
<path d="M53.8197 36.39H50.9999V39.1937H53.8197V36.39Z" fill="#ABA5F9"/>
<path d="M56.6089 33.585H53.7891V36.3887H56.6089V33.585Z" fill="#ABA5F9"/>
<path d="M59.3967 30.7788H56.5769V33.5825H59.3967V30.7788Z" fill="#ABA5F9"/>
<path d="M62.2177 27.9902H59.3979V30.794H62.2177V27.9902Z" fill="#ABA5F9"/>
<path d="M62.2177 25.1992H59.3979V28.0029H62.2177V25.1992Z" fill="#ABA5F9"/>
<path d="M62.2177 22.407H59.3979V25.2107H62.2177V22.407Z" fill="#ABA5F9"/>
<g clip-path="url(#clip0_0_158)">
<path d="M35.8553 9.78516H34.0702V11.5703H35.8553V9.78516Z" fill="#E6F4E6"/>
<path d="M37.6425 8H35.8574V9.78511H37.6425V8Z" fill="#E6F4E6"/>
<path d="M39.4277 8H37.6426V9.78511H39.4277V8Z" fill="#E6F4E6"/>
<path d="M41.2128 8H39.4277V9.78511H41.2128V8Z" fill="#E6F4E6"/>
<path d="M42.9979 11.5702H41.2128V13.3553H42.9979V11.5702Z" fill="#E6F4E6"/>
<path d="M42.9979 9.78516H41.2128V11.5703H42.9979V9.78516Z" fill="#E6F4E6"/>
<path d="M42.9979 13.3574H41.2128V15.1425H42.9979V13.3574Z" fill="#E6F4E6"/>
<path d="M41.2128 15.1426H39.4277V16.9277H41.2128V15.1426Z" fill="#E6F4E6"/>
<path d="M34.0702 11.5702H32.2851V13.3553H34.0702V11.5702Z" fill="#E6F4E6"/>
<path d="M39.4277 16.9276H37.6426V18.7127H39.4277V16.9276Z" fill="#E6F4E6"/>
<path d="M32.2851 13.3574H30.5V15.1425H32.2851V13.3574Z" fill="#E6F4E6"/>
<path d="M37.6425 18.7148H35.8574V20.4999H37.6425V18.7148Z" fill="#E6F4E6"/>
<path d="M30.4979 15.1426H28.7128V16.9277H30.4979V15.1426Z" fill="#E6F4E6"/>
<path d="M35.8553 20.5H34.0702V22.2851H35.8553V20.5Z" fill="#E6F4E6"/>
<path d="M28.7128 16.9276H26.9277V18.7127H28.7128V16.9276Z" fill="#E6F4E6"/>
<path d="M34.0702 22.2852H32.2851V24.0703H34.0702V22.2852Z" fill="#E6F4E6"/>
<path d="M26.9277 18.7148H25.1426V20.4999H26.9277V18.7148Z" fill="#E6F4E6"/>
<path d="M32.2851 24.0702H30.5V25.8553H32.2851V24.0702Z" fill="#E6F4E6"/>
<path d="M26.9277 24.0702H25.1426V25.8553H26.9277V24.0702Z" fill="#E6F4E6"/>
<path d="M25.1425 20.5H23.3574V22.2851H25.1425V20.5Z" fill="#E6F4E6"/>
<path d="M23.3553 20.5H21.5702V22.2851H23.3553V20.5Z" fill="#E6F4E6"/>
<path d="M23.3553 22.2852H21.5702V24.0703H23.3553V22.2852Z" fill="#E6F4E6"/>
<path d="M23.3553 18.7148H21.5702V20.4999H23.3553V18.7148Z" fill="#E6F4E6"/>
<path d="M21.5702 18.7148H19.7851V20.4999H21.5702V18.7148Z" fill="#E6F4E6"/>
<path d="M21.5702 20.5H19.7851V22.2851H21.5702V20.5Z" fill="#E6F4E6"/>
<path d="M25.1425 22.2852H23.3574V24.0703H25.1425V22.2852Z" fill="#E6F4E6"/>
<path d="M30.4979 25.8574H28.7128V27.6425H30.4979V25.8574Z" fill="#E6F4E6"/>
<path d="M30.4979 27.6426H28.7128V29.4277H30.4979V27.6426Z" fill="#E6F4E6"/>
<path d="M30.4979 29.4276H28.7128V31.2127H30.4979V29.4276Z" fill="#E6F4E6"/>
<path d="M32.2851 27.6426H30.5V29.4277H32.2851V27.6426Z" fill="#E6F4E6"/>
<path d="M32.2851 29.4276H30.5V31.2127H32.2851V29.4276Z" fill="#E6F4E6"/>
<path d="M28.7128 25.8574H26.9277V27.6425H28.7128V25.8574Z" fill="#E6F4E6"/>
<path d="M28.7128 27.6426H26.9277V29.4277H28.7128V27.6426Z" fill="#E6F4E6"/>
<path d="M25.1425 29.4276H23.3574V31.2127H25.1425V29.4276Z" fill="#E6F4E6"/>
<path d="M19.7851 29.4276H18V31.2127H19.7851V29.4276Z" fill="#E6F4E6"/>
<path d="M23.3553 24.0702H21.5702V25.8553H23.3553V24.0702Z" fill="#E6F4E6"/>
<path d="M19.7851 31.2128H18V32.9979H19.7851V31.2128Z" fill="#E6F4E6"/>
<path d="M26.9277 27.6426H25.1426V29.4277H26.9277V27.6426Z" fill="#E6F4E6"/>
<path d="M21.5702 25.8574H19.7851V27.6425H21.5702V25.8574Z" fill="#E6F4E6"/>
<path d="M21.5702 29.4276H19.7851V31.2127H21.5702V29.4276Z" fill="#E6F4E6"/>
<path d="M23.3553 27.6426H21.5702V29.4277H23.3553V27.6426Z" fill="#E6F4E6"/>
<path d="M25.1425 25.8574H23.3574V27.6425H25.1425V25.8574Z" fill="#E6F4E6"/>
<path d="M25.1425 24.0702H23.3574V25.8553H25.1425V24.0702Z" fill="#E6F4E6"/>
<path d="M26.9277 24.0702H25.1426V25.8553H26.9277V24.0702Z" fill="#E6F4E6"/>
<path d="M19.7851 27.6426H18V29.4277H19.7851V27.6426Z" fill="#E6F4E6"/>
<path d="M23.3553 31.2128H21.5702V32.9979H23.3553V31.2128Z" fill="#E6F4E6"/>
<path d="M23.3553 29.4276H21.5702V31.2127H23.3553V29.4276Z" fill="#E6F4E6"/>
<path d="M25.1425 27.6426H23.3574V29.4277H25.1425V27.6426Z" fill="#E6F4E6"/>
<path d="M26.9277 25.8574H25.1426V27.6425H26.9277V25.8574Z" fill="#E6F4E6"/>
<path d="M21.5702 31.2128H19.7851V32.9979H21.5702V31.2128Z" fill="#E6F4E6"/>
<path d="M26.9277 22.2852H25.1426V24.0703H26.9277V22.2852Z" fill="#E6F4E6"/>
<path d="M28.7128 24.0702H26.9277V25.8553H28.7128V24.0702Z" fill="#E6F4E6"/>
<path d="M30.4979 20.5H28.7128V22.2851H30.4979V20.5Z" fill="#E6F4E6"/>
<path d="M28.7128 22.2852H26.9277V24.0703H28.7128V22.2852Z" fill="#E6F4E6"/>
<path d="M32.2851 18.7148H30.5V20.4999H32.2851V18.7148Z" fill="#E6F4E6"/>
<path d="M34.0702 16.9276H32.2851V18.7127H34.0702V16.9276Z" fill="#E6F4E6"/>
<path d="M35.8553 15.1426H34.0702V16.9277H35.8553V15.1426Z" fill="#E6F4E6"/>
<path d="M37.6425 13.3574H35.8574V15.1425H37.6425V13.3574Z" fill="#E6F4E6"/>
<path d="M39.4277 11.5702H37.6426V13.3553H39.4277V11.5702Z" fill="#E6F4E6"/>
<path d="M41.2128 9.78516H39.4277V11.5703H41.2128V9.78516Z" fill="#E6F4E6"/>
<path d="M42.9979 8H41.2128V9.78511H42.9979V8Z" fill="#E6F4E6"/>
</g>
<defs>
<clipPath id="clip0_0_158">
<rect width="25" height="25" fill="white" transform="translate(18 8)"/>
</clipPath>
</defs>
</svg>
