<svg width="27" height="23" viewBox="0 0 27 23" fill="none" xmlns="http://www.w3.org/2000/svg">
<path fill-rule="evenodd" clip-rule="evenodd" d="M1.85611 9.63259C9.10385 6.47486 13.9368 4.3931 16.355 3.38729C23.2594 0.515507 24.6941 0.0166483 25.6292 0.000175635C25.8349 -0.00344734 26.2947 0.047523 26.5926 0.289228C26.8441 0.49332 26.9133 0.769018 26.9464 0.962519C26.9795 1.15602 27.0208 1.59682 26.988 1.94125C26.6138 5.8725 24.9949 15.4126 24.1713 19.8157C23.8228 21.6788 23.1365 22.3035 22.4722 22.3646C21.0284 22.4975 19.9321 21.4105 18.5337 20.4938C16.3455 19.0594 15.1094 18.1665 12.9854 16.7669C10.5307 15.1493 12.122 14.2602 13.5209 12.8073C13.887 12.427 20.2483 6.64093 20.3714 6.11604C20.3868 6.05039 20.4011 5.80569 20.2557 5.67649C20.1103 5.54728 19.8958 5.59146 19.7409 5.6266C19.5215 5.67641 16.0259 7.98689 9.25407 12.558C8.26184 13.2394 7.36312 13.5713 6.55789 13.554C5.6702 13.5348 3.96262 13.052 2.69322 12.6394C1.13624 12.1333 -0.101214 11.8657 0.006541 11.0062C0.0626662 10.5585 0.679189 10.1006 1.85611 9.63259Z" fill="#05A38C"/>
</svg>
