<svg width="55" height="37" viewBox="0 0 55 37" fill="none" xmlns="http://www.w3.org/2000/svg">
<path d="M9.88227 2.47782L44.9284 2.47787V4.94781L47.3854 4.94893V7.42L49.8414 7.42112V9.89106H52.3266V27.128L49.8414 27.1146V29.5846H47.3854V32.0567H44.9284V34.5278L9.88227 34.5278V32.0578H7.42522V29.5867H4.96929V27.1146H2.48409V9.89101H4.96929V7.42107H7.42522V4.94889H9.88227V2.47782Z" fill="#05A38C"/>
<path d="M12.3653 0.00565208H9.88119V2.4756H12.3653V0.00565208Z" fill="#5DD5A2"/>
<path d="M9.88118 2.47782H7.3971V4.94777H9.88118V2.47782Z" fill="#5DD5A2"/>
<path d="M7.42522 4.94877H4.94115V7.41871H7.42522V4.94877Z" fill="#5DD5A2"/>
<path d="M4.96817 7.42094H2.48409V9.89088H4.96817V7.42094Z" fill="#5DD5A2"/>
<path d="M2.48408 9.8909H0V12.3608H2.48408V9.8909Z" fill="#5DD5A2"/>
<path d="M2.48408 12.3498H0V14.8197H2.48408V12.3498Z" fill="#5DD5A2"/>
<path d="M2.48408 14.8085H0V17.2784H2.48408V14.8085Z" fill="#5DD5A2"/>
<path d="M2.48408 17.2683H0V19.7383H2.48408V17.2683Z" fill="#5DD5A2"/>
<path d="M12.3653 34.53H9.88119V37H12.3653V34.53Z" fill="#5DD5A2"/>
<path d="M14.8494 34.53H12.3653V37H14.8494V34.53Z" fill="#5DD5A2"/>
<path d="M17.3344 34.53H14.8504V37H17.3344V34.53Z" fill="#5DD5A2"/>
<path d="M19.8185 34.53H17.3344V37H19.8185V34.53Z" fill="#5DD5A2"/>
<path d="M22.3027 34.53H19.8187V37H22.3027V34.53Z" fill="#5DD5A2"/>
<path d="M24.7867 34.53H22.3026V37H24.7867V34.53Z" fill="#5DD5A2"/>
<path d="M27.2719 34.53H24.7878V37H27.2719V34.53Z" fill="#5DD5A2"/>
<path d="M29.756 34.53H27.2719V37H29.756V34.53Z" fill="#5DD5A2"/>
<path d="M32.2401 34.53H29.756V37H32.2401V34.53Z" fill="#5DD5A2"/>
<path d="M34.7254 34.53H32.2413V37H34.7254V34.53Z" fill="#5DD5A2"/>
<path d="M37.2094 34.53H34.7253V37H37.2094V34.53Z" fill="#5DD5A2"/>
<path d="M39.6934 34.53H37.2094V37H39.6934V34.53Z" fill="#5DD5A2"/>
<path d="M42.1775 34.53H39.6935V37H42.1775V34.53Z" fill="#5DD5A2"/>
<path d="M44.9285 34.53H42.1787V37H44.9285V34.53Z" fill="#5DD5A2"/>
<path d="M14.8494 0H12.3653V2.46994H14.8494V0Z" fill="#5DD5A2"/>
<path d="M17.3344 0H14.8504V2.46994H17.3344V0Z" fill="#5DD5A2"/>
<path d="M19.8185 0H17.3344V2.46994H19.8185V0Z" fill="#5DD5A2"/>
<path d="M22.3027 0H19.8187V2.46994H22.3027V0Z" fill="#5DD5A2"/>
<path d="M24.7867 0H22.3026V2.46994H24.7867V0Z" fill="#5DD5A2"/>
<path d="M27.2719 0H24.7878V2.46994H27.2719V0Z" fill="#5DD5A2"/>
<path d="M29.756 0H27.2719V2.46994H29.756V0Z" fill="#5DD5A2"/>
<path d="M32.2401 0H29.756V2.46994H32.2401V0Z" fill="#5DD5A2"/>
<path d="M34.7254 0H32.2413V2.46994H34.7254V0Z" fill="#5DD5A2"/>
<path d="M37.2094 0H34.7253V2.46994H37.2094V0Z" fill="#5DD5A2"/>
<path d="M39.6934 0H37.2094V2.46994H39.6934V0Z" fill="#5DD5A2"/>
<path d="M42.1775 0H39.6935V2.46994H42.1775V0Z" fill="#5DD5A2"/>
<path d="M44.9285 0H42.1787V2.46994H44.9285V0Z" fill="#5DD5A2"/>
<path d="M9.88118 32.0579H7.3971V34.5278H9.88118V32.0579Z" fill="#5DD5A2"/>
<path d="M7.42522 29.5867H4.94115V32.0566H7.42522V29.5867Z" fill="#5DD5A2"/>
<path d="M4.96817 27.1145H2.48409V29.5845H4.96817V27.1145Z" fill="#5DD5A2"/>
<path d="M2.48408 24.6581H0V27.128H2.48408V24.6581Z" fill="#5DD5A2"/>
<path d="M2.48408 22.1992H0V24.6691H2.48408V22.1992Z" fill="#5DD5A2"/>
<path d="M2.48408 19.7393H0V22.2092H2.48408V19.7393Z" fill="#5DD5A2"/>
<path d="M47.4125 2.47782H44.9284V4.94777H47.4125V2.47782Z" fill="#5DD5A2"/>
<path d="M49.8697 4.94877H47.3856V7.41871H49.8697V4.94877Z" fill="#5DD5A2"/>
<path d="M52.3255 7.42094H49.8414V9.89088H52.3255V7.42094Z" fill="#5DD5A2"/>
<path d="M54.8107 9.8909H52.3266V12.3608H54.8107V9.8909Z" fill="#5DD5A2"/>
<path d="M54.8107 12.3498H52.3266V14.8197H54.8107V12.3498Z" fill="#5DD5A2"/>
<path d="M54.8107 14.8085H52.3266V17.2784H54.8107V14.8085Z" fill="#5DD5A2"/>
<path d="M54.8107 17.2683H52.3266V19.7383H54.8107V17.2683Z" fill="#5DD5A2"/>
<path d="M47.4125 32.0579H44.9284V34.5278H47.4125V32.0579Z" fill="#5DD5A2"/>
<path d="M49.8697 29.5867H47.3856V32.0566H49.8697V29.5867Z" fill="#5DD5A2"/>
<path d="M52.3255 27.1145H49.8414V29.5845H52.3255V27.1145Z" fill="#5DD5A2"/>
<path d="M54.8107 24.6581H52.3266V27.128H54.8107V24.6581Z" fill="#5DD5A2"/>
<path d="M54.8107 22.1992H52.3266V24.6691H54.8107V22.1992Z" fill="#5DD5A2"/>
<path d="M54.8107 19.7393H52.3266V22.2092H54.8107V19.7393Z" fill="#5DD5A2"/>
</svg>
