<svg width="333" height="112" viewBox="0 0 333 112" fill="none" xmlns="http://www.w3.org/2000/svg">
<path d="M20.0834 5.03542H312.917V10.055L317.91 10.0573V15.0791L322.901 15.0814V20.101H327.952V91.7364L322.901 91.7091V96.7287H317.91V101.753H312.917V106.775H20.0834V101.755H15.0901V96.7333H10.099V91.7091H5.04839V20.101H10.099V15.0814H15.0901V10.0573H20.0834V5.03542Z" fill="#05A38C"/>
<path d="M25.1295 0.0112594H20.0812V5.03084H25.1295V0.0112594Z" fill="#5DD5A2"/>
<path d="M20.0811 5.03542H15.0328V10.055H20.0811V5.03542Z" fill="#5DD5A2"/>
<path d="M15.09 10.0576H10.0417V15.0772H15.09V10.0576Z" fill="#5DD5A2"/>
<path d="M10.0967 15.0815H5.04839V20.1011H10.0967V15.0815Z" fill="#5DD5A2"/>
<path d="M5.0483 20.1011H0V25.1206H5.0483V20.1011Z" fill="#5DD5A2"/>
<path d="M5.0483 25.0978H0V30.1174H5.0483V25.0978Z" fill="#5DD5A2"/>
<path d="M5.0483 30.0948H0V35.1144H5.0483V30.0948Z" fill="#5DD5A2"/>
<path d="M5.0483 35.0937H0V40.1133H5.0483V35.0937Z" fill="#5DD5A2"/>
<path d="M25.1295 106.305H20.0812V111.324H25.1295V106.305Z" fill="#5DD5A2"/>
<path d="M30.1777 106.305H25.1294V111.324H30.1777V106.305Z" fill="#5DD5A2"/>
<path d="M35.2283 106.305H30.18V111.324H35.2283V106.305Z" fill="#5DD5A2"/>
<path d="M40.2767 106.305H35.2284V111.324H40.2767V106.305Z" fill="#5DD5A2"/>
<path d="M45.3248 106.305H40.2765V111.324H45.3248V106.305Z" fill="#5DD5A2"/>
<path d="M50.3732 106.305H45.3249V111.324H50.3732V106.305Z" fill="#5DD5A2"/>
<path d="M55.4238 106.305H50.3755V111.324H55.4238V106.305Z" fill="#5DD5A2"/>
<path d="M60.4722 106.305H55.4239V111.324H60.4722V106.305Z" fill="#5DD5A2"/>
<path d="M65.5203 106.305H60.472V111.324H65.5203V106.305Z" fill="#5DD5A2"/>
<path d="M70.5709 106.305H65.5226V111.324H70.5709V106.305Z" fill="#5DD5A2"/>
<path d="M75.6191 106.305H70.5708V111.324H75.6191V106.305Z" fill="#5DD5A2"/>
<path d="M80.6675 106.305H75.6192V111.324H80.6675V106.305Z" fill="#5DD5A2"/>
<path d="M85.7156 106.305H80.6673V111.324H85.7156V106.305Z" fill="#5DD5A2"/>
<path d="M90.7665 106.305H85.7182V111.324H90.7665V106.305Z" fill="#5DD5A2"/>
<path d="M95.8146 106.305H90.7663V111.324H95.8146V106.305Z" fill="#5DD5A2"/>
<path d="M100.863 106.305H95.8147V111.324H100.863V106.305Z" fill="#5DD5A2"/>
<path d="M105.911 106.305H100.863V111.324H105.911V106.305Z" fill="#5DD5A2"/>
<path d="M110.962 106.305H105.914V111.324H110.962V106.305Z" fill="#5DD5A2"/>
<path d="M116.01 106.305H110.962V111.324H116.01V106.305Z" fill="#5DD5A2"/>
<path d="M121.059 106.305H116.01V111.324H121.059V106.305Z" fill="#5DD5A2"/>
<path d="M126.109 106.305H121.061V111.324H126.109V106.305Z" fill="#5DD5A2"/>
<path d="M131.157 106.305H126.109V111.324H131.157V106.305Z" fill="#5DD5A2"/>
<path d="M136.205 106.305H131.157V111.324H136.205V106.305Z" fill="#5DD5A2"/>
<path d="M141.254 106.305H136.206V111.324H141.254V106.305Z" fill="#5DD5A2"/>
<path d="M146.304 106.305H141.256V111.324H146.304V106.305Z" fill="#5DD5A2"/>
<path d="M151.353 106.305H146.305V111.324H151.353V106.305Z" fill="#5DD5A2"/>
<path d="M156.401 106.305H151.353V111.324H156.401V106.305Z" fill="#5DD5A2"/>
<path d="M161.449 106.305H156.401V111.324H161.449V106.305Z" fill="#5DD5A2"/>
<path d="M166.5 106.305H161.452V111.324H166.5V106.305Z" fill="#5DD5A2"/>
<path d="M171.548 106.305H166.5V111.324H171.548V106.305Z" fill="#5DD5A2"/>
<path d="M176.597 106.305H171.548V111.324H176.597V106.305Z" fill="#5DD5A2"/>
<path d="M181.647 106.305H176.599V111.324H181.647V106.305Z" fill="#5DD5A2"/>
<path d="M186.695 106.305H181.647V111.324H186.695V106.305Z" fill="#5DD5A2"/>
<path d="M191.744 106.305H186.696V111.324H191.744V106.305Z" fill="#5DD5A2"/>
<path d="M196.792 106.305H191.744V111.324H196.792V106.305Z" fill="#5DD5A2"/>
<path d="M201.843 106.305H196.794V111.324H201.843V106.305Z" fill="#5DD5A2"/>
<path d="M206.891 106.305H201.843V111.324H206.891V106.305Z" fill="#5DD5A2"/>
<path d="M211.939 106.305H206.891V111.324H211.939V106.305Z" fill="#5DD5A2"/>
<path d="M216.988 106.305H211.94V111.324H216.988V106.305Z" fill="#5DD5A2"/>
<path d="M222.038 106.305H216.99V111.324H222.038V106.305Z" fill="#5DD5A2"/>
<path d="M227.087 106.305H222.038V111.324H227.087V106.305Z" fill="#5DD5A2"/>
<path d="M232.135 106.305H227.086V111.324H232.135V106.305Z" fill="#5DD5A2"/>
<path d="M237.186 106.305H232.137V111.324H237.186V106.305Z" fill="#5DD5A2"/>
<path d="M242.234 106.305H237.185V111.324H242.234V106.305Z" fill="#5DD5A2"/>
<path d="M247.282 106.305H242.234V111.324H247.282V106.305Z" fill="#5DD5A2"/>
<path d="M252.33 106.305H247.282V111.324H252.33V106.305Z" fill="#5DD5A2"/>
<path d="M257.381 106.305H252.333V111.324H257.381V106.305Z" fill="#5DD5A2"/>
<path d="M262.429 106.305H257.381V111.324H262.429V106.305Z" fill="#5DD5A2"/>
<path d="M267.478 106.305H262.429V111.324H267.478V106.305Z" fill="#5DD5A2"/>
<path d="M272.526 106.305H267.477V111.324H272.526V106.305Z" fill="#5DD5A2"/>
<path d="M277.576 106.305H272.528V111.324H277.576V106.305Z" fill="#5DD5A2"/>
<path d="M282.625 106.305H277.576V111.324H282.625V106.305Z" fill="#5DD5A2"/>
<path d="M287.673 106.305H282.625V111.324H287.673V106.305Z" fill="#5DD5A2"/>
<path d="M292.724 106.305H287.675V111.324H292.724V106.305Z" fill="#5DD5A2"/>
<path d="M297.772 106.305H292.724V111.324H297.772V106.305Z" fill="#5DD5A2"/>
<path d="M302.82 106.305H297.772V111.324H302.82V106.305Z" fill="#5DD5A2"/>
<path d="M307.868 106.305H302.82V111.324H307.868V106.305Z" fill="#5DD5A2"/>
<path d="M30.1777 0H25.1294V5.01958H30.1777V0Z" fill="#5DD5A2"/>
<path d="M35.2283 0H30.18V5.01958H35.2283V0Z" fill="#5DD5A2"/>
<path d="M40.2767 0H35.2284V5.01958H40.2767V0Z" fill="#5DD5A2"/>
<path d="M45.3248 0H40.2765V5.01958H45.3248V0Z" fill="#5DD5A2"/>
<path d="M50.3732 0H45.3249V5.01958H50.3732V0Z" fill="#5DD5A2"/>
<path d="M55.4238 0H50.3755V5.01958H55.4238V0Z" fill="#5DD5A2"/>
<path d="M60.4722 0H55.4239V5.01958H60.4722V0Z" fill="#5DD5A2"/>
<path d="M65.5203 0H60.472V5.01958H65.5203V0Z" fill="#5DD5A2"/>
<path d="M70.5709 0H65.5226V5.01958H70.5709V0Z" fill="#5DD5A2"/>
<path d="M75.6191 0H70.5708V5.01958H75.6191V0Z" fill="#5DD5A2"/>
<path d="M80.6675 0H75.6192V5.01958H80.6675V0Z" fill="#5DD5A2"/>
<path d="M85.7156 0H80.6673V5.01958H85.7156V0Z" fill="#5DD5A2"/>
<path d="M90.7665 0H85.7182V5.01958H90.7665V0Z" fill="#5DD5A2"/>
<path d="M95.8146 0H90.7663V5.01958H95.8146V0Z" fill="#5DD5A2"/>
<path d="M100.863 0H95.8147V5.01958H100.863V0Z" fill="#5DD5A2"/>
<path d="M105.911 0H100.863V5.01958H105.911V0Z" fill="#5DD5A2"/>
<path d="M110.962 0H105.914V5.01958H110.962V0Z" fill="#5DD5A2"/>
<path d="M116.01 0H110.962V5.01958H116.01V0Z" fill="#5DD5A2"/>
<path d="M121.059 0H116.01V5.01958H121.059V0Z" fill="#5DD5A2"/>
<path d="M126.109 0H121.061V5.01958H126.109V0Z" fill="#5DD5A2"/>
<path d="M131.157 0H126.109V5.01958H131.157V0Z" fill="#5DD5A2"/>
<path d="M136.205 0H131.157V5.01958H136.205V0Z" fill="#5DD5A2"/>
<path d="M141.254 0H136.206V5.01958H141.254V0Z" fill="#5DD5A2"/>
<path d="M146.304 0H141.256V5.01958H146.304V0Z" fill="#5DD5A2"/>
<path d="M151.353 0H146.305V5.01958H151.353V0Z" fill="#5DD5A2"/>
<path d="M156.401 0H151.353V5.01958H156.401V0Z" fill="#5DD5A2"/>
<path d="M161.449 0H156.401V5.01958H161.449V0Z" fill="#5DD5A2"/>
<path d="M166.5 0H161.452V5.01958H166.5V0Z" fill="#5DD5A2"/>
<path d="M171.548 0H166.5V5.01958H171.548V0Z" fill="#5DD5A2"/>
<path d="M176.597 0H171.548V5.01958H176.597V0Z" fill="#5DD5A2"/>
<path d="M181.647 0H176.599V5.01958H181.647V0Z" fill="#5DD5A2"/>
<path d="M186.695 0H181.647V5.01958H186.695V0Z" fill="#5DD5A2"/>
<path d="M191.744 0H186.696V5.01958H191.744V0Z" fill="#5DD5A2"/>
<path d="M196.792 0H191.744V5.01958H196.792V0Z" fill="#5DD5A2"/>
<path d="M201.843 0H196.794V5.01958H201.843V0Z" fill="#5DD5A2"/>
<path d="M206.891 0H201.843V5.01958H206.891V0Z" fill="#5DD5A2"/>
<path d="M211.939 0H206.891V5.01958H211.939V0Z" fill="#5DD5A2"/>
<path d="M216.988 0H211.94V5.01958H216.988V0Z" fill="#5DD5A2"/>
<path d="M222.038 0H216.99V5.01958H222.038V0Z" fill="#5DD5A2"/>
<path d="M227.087 0H222.038V5.01958H227.087V0Z" fill="#5DD5A2"/>
<path d="M232.135 0H227.086V5.01958H232.135V0Z" fill="#5DD5A2"/>
<path d="M237.186 0H232.137V5.01958H237.186V0Z" fill="#5DD5A2"/>
<path d="M242.234 0H237.185V5.01958H242.234V0Z" fill="#5DD5A2"/>
<path d="M247.282 0H242.234V5.01958H247.282V0Z" fill="#5DD5A2"/>
<path d="M252.33 0H247.282V5.01958H252.33V0Z" fill="#5DD5A2"/>
<path d="M257.381 0H252.333V5.01958H257.381V0Z" fill="#5DD5A2"/>
<path d="M262.429 0H257.381V5.01958H262.429V0Z" fill="#5DD5A2"/>
<path d="M267.478 0H262.429V5.01958H267.478V0Z" fill="#5DD5A2"/>
<path d="M272.526 0H267.477V5.01958H272.526V0Z" fill="#5DD5A2"/>
<path d="M277.576 0H272.528V5.01958H277.576V0Z" fill="#5DD5A2"/>
<path d="M282.625 0H277.576V5.01958H282.625V0Z" fill="#5DD5A2"/>
<path d="M287.673 0H282.625V5.01958H287.673V0Z" fill="#5DD5A2"/>
<path d="M292.724 0H287.675V5.01958H292.724V0Z" fill="#5DD5A2"/>
<path d="M297.772 0H292.724V5.01958H297.772V0Z" fill="#5DD5A2"/>
<path d="M302.82 0H297.772V5.01958H302.82V0Z" fill="#5DD5A2"/>
<path d="M307.868 0H302.82V5.01958H307.868V0Z" fill="#5DD5A2"/>
<path d="M20.0811 101.281H15.0328V106.3H20.0811V101.281Z" fill="#5DD5A2"/>
<path d="M15.09 96.259H10.0417V101.279H15.09V96.259Z" fill="#5DD5A2"/>
<path d="M10.0967 91.2348H5.04839V96.2544H10.0967V91.2348Z" fill="#5DD5A2"/>
<path d="M5.0129 50.129H0V91.2348H5.0129V50.129Z" fill="#5DD5A2"/>
<path d="M5.0483 45.1146H0V50.1342H5.0483V45.1146Z" fill="#5DD5A2"/>
<path d="M5.0483 40.1157H0V45.1353H5.0483V40.1157Z" fill="#5DD5A2"/>
<path d="M312.919 0.0112594H307.871V5.03084H312.919V0.0112594Z" fill="#5DD5A2"/>
<path d="M317.965 5.03542H312.916V10.055H317.965V5.03542Z" fill="#5DD5A2"/>
<path d="M322.958 10.0576H317.91V15.0772H322.958V10.0576Z" fill="#5DD5A2"/>
<path d="M327.949 15.0815H322.901V20.1011H327.949V15.0815Z" fill="#5DD5A2"/>
<path d="M333 20.1011H327.952V25.1206H333V20.1011Z" fill="#5DD5A2"/>
<path d="M333 25.0978H327.952V30.1174H333V25.0978Z" fill="#5DD5A2"/>
<path d="M333 30.0948H327.952V35.1144H333V30.0948Z" fill="#5DD5A2"/>
<path d="M333 35.0937H327.952V40.1133H333V35.0937Z" fill="#5DD5A2"/>
<path d="M312.919 106.305H307.871V111.324H312.919V106.305Z" fill="#5DD5A2"/>
<path d="M317.965 101.281H312.916V106.3H317.965V101.281Z" fill="#5DD5A2"/>
<path d="M322.958 96.259H317.91V101.279H322.958V96.259Z" fill="#5DD5A2"/>
<path d="M327.949 91.2348H322.901V96.2544H327.949V91.2348Z" fill="#5DD5A2"/>
<path d="M332.857 50.129H327.844V91.2348H332.857V50.129Z" fill="#5DD5A2"/>
<path d="M333 45.1146H327.952V50.1342H333V45.1146Z" fill="#5DD5A2"/>
<path d="M333 40.1157H327.952V45.1353H333V40.1157Z" fill="#5DD5A2"/>
<path d="M20.0811 20.1033H15.0328V25.1228H20.0811V20.1033Z" fill="#E6F4E6"/>
<path d="M15.0464 25.1115H9.99814V30.1311H15.0464V25.1115Z" fill="#E6F4E6"/>
<path d="M15.0464 30.1176H9.99814V35.1371H15.0464V30.1176Z" fill="#E6F4E6"/>
<path d="M25.1295 15.0793H20.0812V20.0989H25.1295V15.0793Z" fill="#E6F4E6"/>
<path d="M30.1777 10.0576H25.1294V15.0772H30.1777V10.0576Z" fill="#E6F4E6"/>
<path d="M35.2283 10.0576H30.18V15.0772H35.2283V10.0576Z" fill="#E6F4E6"/>
<path d="M40.2767 10.0576H35.2284V15.0772H40.2767V10.0576Z" fill="#E6F4E6"/>
</svg>
