<svg width="74" height="50" viewBox="0 0 74 50" fill="none" xmlns="http://www.w3.org/2000/svg">
<path d="M13.3263 3.34832L60.5865 3.34838V6.68615L63.8998 6.68766V10.0269L67.2117 10.0285V13.3662H70.563V36.6595L67.2117 36.6413V39.9791H63.8998V43.3199H60.5865V46.6592L13.3263 46.6591V43.3214H10.0129V39.9821H6.70106V36.6413H3.34973V13.3662H6.70106V10.0284H10.0129V6.6876H13.3263V3.34832Z" fill="white"/>
<path d="M16.6747 0.00762323H13.3249V3.34539H16.6747V0.00762323Z" fill="#5DD5A2"/>
<path d="M13.3249 3.34832H9.97511V6.68609H13.3249V3.34832Z" fill="#5DD5A2"/>
<path d="M10.013 6.68754H6.66319V10.0253H10.013V6.68754Z" fill="#5DD5A2"/>
<path d="M6.69954 10.0285H3.34973V13.3662H6.69954V10.0285Z" fill="#5DD5A2"/>
<path d="M3.34981 13.3662H0V16.704H3.34981V13.3662Z" fill="#5DD5A2"/>
<path d="M3.34981 16.689H0V20.0267H3.34981V16.689Z" fill="#5DD5A2"/>
<path d="M3.34981 20.0115H0V23.3492H3.34981V20.0115Z" fill="#5DD5A2"/>
<path d="M3.34981 23.3357H0V26.6734H3.34981V23.3357Z" fill="#5DD5A2"/>
<path d="M16.6747 46.6623H13.3249V50H16.6747V46.6623Z" fill="#5DD5A2"/>
<path d="M20.0244 46.6623H16.6746V50H20.0244V46.6623Z" fill="#5DD5A2"/>
<path d="M23.3758 46.6623H20.026V50H23.3758V46.6623Z" fill="#5DD5A2"/>
<path d="M26.7256 46.6623H23.3758V50H26.7256V46.6623Z" fill="#5DD5A2"/>
<path d="M30.0754 46.6623H26.7256V50H30.0754V46.6623Z" fill="#5DD5A2"/>
<path d="M33.4253 46.6623H30.0755V50H33.4253V46.6623Z" fill="#5DD5A2"/>
<path d="M36.7766 46.6623H33.4268V50H36.7766V46.6623Z" fill="#5DD5A2"/>
<path d="M40.1264 46.6623H36.7766V50H40.1264V46.6623Z" fill="#5DD5A2"/>
<path d="M43.4761 46.6623H40.1263V50H43.4761V46.6623Z" fill="#5DD5A2"/>
<path d="M46.8275 46.6623H43.4777V50H46.8275V46.6623Z" fill="#5DD5A2"/>
<path d="M50.1773 46.6623H46.8274V50H50.1773V46.6623Z" fill="#5DD5A2"/>
<path d="M53.5271 46.6623H50.1772V50H53.5271V46.6623Z" fill="#5DD5A2"/>
<path d="M56.877 46.6623H53.5272V50H56.877V46.6623Z" fill="#5DD5A2"/>
<path d="M60.5866 46.6623H56.8785V50H60.5866V46.6623Z" fill="#5DD5A2"/>
<path d="M20.0244 0H16.6746V3.33777H20.0244V0Z" fill="#5DD5A2"/>
<path d="M23.3758 0H20.026V3.33777H23.3758V0Z" fill="#5DD5A2"/>
<path d="M26.7256 0H23.3758V3.33777H26.7256V0Z" fill="#5DD5A2"/>
<path d="M30.0754 0H26.7256V3.33777H30.0754V0Z" fill="#5DD5A2"/>
<path d="M33.4253 0H30.0755V3.33777H33.4253V0Z" fill="#5DD5A2"/>
<path d="M36.7766 0H33.4268V3.33777H36.7766V0Z" fill="#5DD5A2"/>
<path d="M40.1264 0H36.7766V3.33777H40.1264V0Z" fill="#5DD5A2"/>
<path d="M43.4761 0H40.1263V3.33777H43.4761V0Z" fill="#5DD5A2"/>
<path d="M46.8275 0H43.4777V3.33777H46.8275V0Z" fill="#5DD5A2"/>
<path d="M50.1773 0H46.8274V3.33777H50.1773V0Z" fill="#5DD5A2"/>
<path d="M53.5271 0H50.1772V3.33777H53.5271V0Z" fill="#5DD5A2"/>
<path d="M56.877 0H53.5272V3.33777H56.877V0Z" fill="#5DD5A2"/>
<path d="M60.5866 0H56.8785V3.33777H60.5866V0Z" fill="#5DD5A2"/>
<path d="M13.3249 43.3213H9.97511V46.6591H13.3249V43.3213Z" fill="#5DD5A2"/>
<path d="M10.013 39.9821H6.66319V43.3199H10.013V39.9821Z" fill="#5DD5A2"/>
<path d="M6.69954 36.6414H3.34973V39.9792H6.69954V36.6414Z" fill="#5DD5A2"/>
<path d="M3.34981 33.3219H0V36.6596H3.34981V33.3219Z" fill="#5DD5A2"/>
<path d="M3.34981 29.9991H0V33.3369H3.34981V29.9991Z" fill="#5DD5A2"/>
<path d="M3.34981 26.6749H0V30.0127H3.34981V26.6749Z" fill="#5DD5A2"/>
<path d="M63.9363 3.34832H60.5865V6.68609H63.9363V3.34832Z" fill="#5DD5A2"/>
<path d="M67.2498 6.68754H63.9V10.0253H67.2498V6.68754Z" fill="#5DD5A2"/>
<path d="M70.5617 10.0285H67.2119V13.3662H70.5617V10.0285Z" fill="#5DD5A2"/>
<path d="M73.913 13.3662H70.5632V16.704H73.913V13.3662Z" fill="#5DD5A2"/>
<path d="M73.913 16.689H70.5632V20.0267H73.913V16.689Z" fill="#5DD5A2"/>
<path d="M73.913 20.0115H70.5632V23.3492H73.913V20.0115Z" fill="#5DD5A2"/>
<path d="M73.913 23.3357H70.5632V26.6734H73.913V23.3357Z" fill="#5DD5A2"/>
<path d="M63.9363 43.3213H60.5865V46.6591H63.9363V43.3213Z" fill="#5DD5A2"/>
<path d="M67.2498 39.9821H63.9V43.3199H67.2498V39.9821Z" fill="#5DD5A2"/>
<path d="M70.5617 36.6414H67.2119V39.9792H70.5617V36.6414Z" fill="#5DD5A2"/>
<path d="M73.913 33.3219H70.5632V36.6596H73.913V33.3219Z" fill="#5DD5A2"/>
<path d="M73.913 29.9991H70.5632V33.3369H73.913V29.9991Z" fill="#5DD5A2"/>
<path d="M73.913 26.6749H70.5632V30.0127H73.913V26.6749Z" fill="#5DD5A2"/>
<path d="M50.3609 10.0282H45.6521V14.737H50.3609V10.0282Z" fill="#05A38C"/>
<path d="M50.3609 14.7372H45.6521V19.4459H50.3609V14.7372Z" fill="#05A38C"/>
<path d="M55.0755 10.0282H50.3667V14.737H55.0755V10.0282Z" fill="#05A38C"/>
<path d="M55.0755 14.7372H50.3667V19.4459H55.0755V14.7372Z" fill="#05A38C"/>
<path d="M50.3609 30.6161H45.6521V35.3248H50.3609V30.6161Z" fill="#05A38C"/>
<path d="M50.3609 35.3248H45.6521V40.0335H50.3609V35.3248Z" fill="#05A38C"/>
<path d="M55.0755 30.6161H50.3667V35.3248H55.0755V30.6161Z" fill="#05A38C"/>
<path d="M55.0755 35.3248H50.3667V40.0335H55.0755V35.3248Z" fill="#05A38C"/>
</svg>
