<svg width="63" height="42" viewBox="0 0 63 42" fill="none" xmlns="http://www.w3.org/2000/svg">
<path d="M11.2178 2.81262L51 2.81268V5.6164L53.7891 5.61767V8.42267L56.5769 8.42394V11.2277H59.3979V30.794L56.5769 30.7788V33.5825H53.7891V36.3888H51V39.1938L11.2178 39.1937V36.39H8.42869V33.585H5.64087V30.7787H2.81982V11.2276H5.64087V8.42389H8.42869V5.61762H11.2178V2.81262Z" fill="#05A38C"/>
<path d="M14.0363 0.00634766H11.2166V2.81008H14.0363V0.00634766Z" fill="#5DD5A2"/>
<path d="M11.2165 2.81262H8.39673V5.61635H11.2165V2.81262Z" fill="#5DD5A2"/>
<path d="M8.42866 5.61768H5.60889V8.4214H8.42866V5.61768Z" fill="#5DD5A2"/>
<path d="M5.63959 8.42383H2.81982V11.2276H5.63959V8.42383Z" fill="#5DD5A2"/>
<path d="M2.81977 11.2277H0V14.0314H2.81977V11.2277Z" fill="#5DD5A2"/>
<path d="M2.81977 14.0187H0V16.8224H2.81977V14.0187Z" fill="#5DD5A2"/>
<path d="M2.81977 16.8097H0V19.6134H2.81977V16.8097Z" fill="#5DD5A2"/>
<path d="M2.81977 19.6021H0V22.4058H2.81977V19.6021Z" fill="#5DD5A2"/>
<path d="M14.0363 39.1963H11.2166V42H14.0363V39.1963Z" fill="#5DD5A2"/>
<path d="M16.856 39.1963H14.0363V42H16.856V39.1963Z" fill="#5DD5A2"/>
<path d="M19.6771 39.1963H16.8573V42H19.6771V39.1963Z" fill="#5DD5A2"/>
<path d="M22.4968 39.1963H19.677V42H22.4968V39.1963Z" fill="#5DD5A2"/>
<path d="M25.3166 39.1963H22.4968V42H25.3166V39.1963Z" fill="#5DD5A2"/>
<path d="M28.1363 39.1963H25.3165V42H28.1363V39.1963Z" fill="#5DD5A2"/>
<path d="M30.9575 39.1963H28.1377V42H30.9575V39.1963Z" fill="#5DD5A2"/>
<path d="M33.7772 39.1963H30.9574V42H33.7772V39.1963Z" fill="#5DD5A2"/>
<path d="M36.597 39.1963H33.7772V42H36.597V39.1963Z" fill="#5DD5A2"/>
<path d="M39.418 39.1963H36.5983V42H39.418V39.1963Z" fill="#5DD5A2"/>
<path d="M42.2377 39.1963H39.418V42H42.2377V39.1963Z" fill="#5DD5A2"/>
<path d="M45.0574 39.1963H42.2377V42H45.0574V39.1963Z" fill="#5DD5A2"/>
<path d="M47.8773 39.1963H45.0575V42H47.8773V39.1963Z" fill="#5DD5A2"/>
<path d="M50.9999 39.1963H47.8785V42H50.9999V39.1963Z" fill="#5DD5A2"/>
<path d="M16.856 0H14.0363V2.80373H16.856V0Z" fill="#5DD5A2"/>
<path d="M19.6771 0H16.8573V2.80373H19.6771V0Z" fill="#5DD5A2"/>
<path d="M22.4968 0H19.677V2.80373H22.4968V0Z" fill="#5DD5A2"/>
<path d="M25.3166 0H22.4968V2.80373H25.3166V0Z" fill="#5DD5A2"/>
<path d="M28.1363 0H25.3165V2.80373H28.1363V0Z" fill="#5DD5A2"/>
<path d="M30.9575 0H28.1377V2.80373H30.9575V0Z" fill="#5DD5A2"/>
<path d="M33.7772 0H30.9574V2.80373H33.7772V0Z" fill="#5DD5A2"/>
<path d="M36.597 0H33.7772V2.80373H36.597V0Z" fill="#5DD5A2"/>
<path d="M39.418 0H36.5983V2.80373H39.418V0Z" fill="#5DD5A2"/>
<path d="M42.2377 0H39.418V2.80373H42.2377V0Z" fill="#5DD5A2"/>
<path d="M45.0574 0H42.2377V2.80373H45.0574V0Z" fill="#5DD5A2"/>
<path d="M47.8773 0H45.0575V2.80373H47.8773V0Z" fill="#5DD5A2"/>
<path d="M50.9999 0H47.8785V2.80373H50.9999V0Z" fill="#5DD5A2"/>
<path d="M11.2165 36.39H8.39673V39.1937H11.2165V36.39Z" fill="#5DD5A2"/>
<path d="M8.42866 33.585H5.60889V36.3887H8.42866V33.585Z" fill="#5DD5A2"/>
<path d="M5.63959 30.7788H2.81982V33.5825H5.63959V30.7788Z" fill="#5DD5A2"/>
<path d="M2.81977 27.9902H0V30.794H2.81977V27.9902Z" fill="#5DD5A2"/>
<path d="M2.81977 25.1992H0V28.0029H2.81977V25.1992Z" fill="#5DD5A2"/>
<path d="M2.81977 22.407H0V25.2107H2.81977V22.407Z" fill="#5DD5A2"/>
<path d="M53.8198 2.81262H51V5.61635H53.8198V2.81262Z" fill="#5DD5A2"/>
<path d="M56.6088 5.61768H53.7891V8.4214H56.6088V5.61768Z" fill="#5DD5A2"/>
<path d="M59.3967 8.42383H56.5769V11.2276H59.3967V8.42383Z" fill="#5DD5A2"/>
<path d="M62.2177 11.2277H59.3979V14.0314H62.2177V11.2277Z" fill="#5DD5A2"/>
<path d="M62.2177 14.0187H59.3979V16.8224H62.2177V14.0187Z" fill="#5DD5A2"/>
<path d="M62.2177 16.8097H59.3979V19.6134H62.2177V16.8097Z" fill="#5DD5A2"/>
<path d="M62.2177 19.6021H59.3979V22.4058H62.2177V19.6021Z" fill="#5DD5A2"/>
<path d="M53.8198 36.39H51V39.1937H53.8198V36.39Z" fill="#5DD5A2"/>
<path d="M56.6088 33.585H53.7891V36.3887H56.6088V33.585Z" fill="#5DD5A2"/>
<path d="M59.3967 30.7788H56.5769V33.5825H59.3967V30.7788Z" fill="#5DD5A2"/>
<path d="M62.2177 27.9902H59.3979V30.794H62.2177V27.9902Z" fill="#5DD5A2"/>
<path d="M62.2177 25.1992H59.3979V28.0029H62.2177V25.1992Z" fill="#5DD5A2"/>
<path d="M62.2177 22.407H59.3979V25.2107H62.2177V22.407Z" fill="#5DD5A2"/>
<g clip-path="url(#clip0_0_451)">
<path d="M24.5006 29.668H22.3346V31.834H24.5006V29.668Z" fill="#E6F4E6"/>
<path d="M26.6666 29.668H24.5006V31.834H26.6666V29.668Z" fill="#E6F4E6"/>
<path d="M24.5006 10.166H22.3346V12.332H24.5006V10.166Z" fill="#E6F4E6"/>
<path d="M22.332 12.3346H20.166V14.5006H22.332V12.3346Z" fill="#E6F4E6"/>
<path d="M22.332 14.5006H20.166V16.6666H22.332V14.5006Z" fill="#E6F4E6"/>
<path d="M20.166 16.6666H18V18.8326H20.166V16.6666Z" fill="#E6F4E6"/>
<path d="M20.166 18.8326H18V20.9987H20.166V18.8326Z" fill="#E6F4E6"/>
<path d="M20.166 20.9987H18V23.1647H20.166V20.9987Z" fill="#E6F4E6"/>
<path d="M30.9987 16.6666H28.8326V18.8326H30.9987V16.6666Z" fill="#E6F4E6"/>
<path d="M30.9987 18.8326H28.8326V20.9987H30.9987V18.8326Z" fill="#E6F4E6"/>
<path d="M30.9987 20.9987H28.8326V23.1647H30.9987V20.9987Z" fill="#E6F4E6"/>
<path d="M33.1674 16.6666H31.0013V18.8326H33.1674V16.6666Z" fill="#E6F4E6"/>
<path d="M30.9987 14.5006H28.8326V16.6666H30.9987V14.5006Z" fill="#E6F4E6"/>
<path d="M33.1674 14.5006H31.0013V16.6666H33.1674V14.5006Z" fill="#E6F4E6"/>
<path d="M33.1674 18.8326H31.0013V20.9987H33.1674V18.8326Z" fill="#E6F4E6"/>
<path d="M33.1674 20.9987H31.0013V23.1647H33.1674V20.9987Z" fill="#E6F4E6"/>
<path d="M30.9987 25.3334H28.8326V27.4994H30.9987V25.3334Z" fill="#E6F4E6"/>
<path d="M33.1674 25.3334H31.0013V27.4994H33.1674V25.3334Z" fill="#E6F4E6"/>
<path d="M20.166 23.1674H18V25.3334H20.166V23.1674Z" fill="#E6F4E6"/>
<path d="M22.332 25.3334H20.166V27.4994H22.332V25.3334Z" fill="#E6F4E6"/>
<path d="M22.332 27.4994H20.166V29.6654H22.332V27.4994Z" fill="#E6F4E6"/>
<path d="M41.834 12.3346H39.668V14.5006H41.834V12.3346Z" fill="#E6F4E6"/>
<path d="M39.6654 10.166H37.4994V12.332H39.6654V10.166Z" fill="#E6F4E6"/>
<path d="M37.4994 10.166H35.3334V12.332H37.4994V10.166Z" fill="#E6F4E6"/>
<path d="M35.3334 8H33.1674V10.166H35.3334V8Z" fill="#E6F4E6"/>
<path d="M33.1674 8H31.0013V10.166H33.1674V8Z" fill="#E6F4E6"/>
<path d="M30.9987 8H28.8326V10.166H30.9987V8Z" fill="#E6F4E6"/>
<path d="M26.6666 10.166H24.5006V12.332H26.6666V10.166Z" fill="#E6F4E6"/>
<path d="M28.8326 8H26.6666V10.166H28.8326V8Z" fill="#E6F4E6"/>
<path d="M39.6654 29.668H37.4994V31.834H39.6654V29.668Z" fill="#E6F4E6"/>
<path d="M37.4994 29.668H35.3334V31.834H37.4994V29.668Z" fill="#E6F4E6"/>
<path d="M35.3334 31.834H33.1674V34H35.3334V31.834Z" fill="#E6F4E6"/>
<path d="M33.1674 31.834H31.0013V34H33.1674V31.834Z" fill="#E6F4E6"/>
<path d="M30.9987 31.834H28.8326V34H30.9987V31.834Z" fill="#E6F4E6"/>
<path d="M28.8326 31.834H26.6666V34H28.8326V31.834Z" fill="#E6F4E6"/>
<path d="M41.834 27.4994H39.668V29.6654H41.834V27.4994Z" fill="#E6F4E6"/>
<path d="M41.834 25.3334H39.668V27.4994H41.834V25.3334Z" fill="#E6F4E6"/>
<path d="M44 23.1674H41.834V25.3334H44V23.1674Z" fill="#E6F4E6"/>
<path d="M44 20.9987H41.834V23.1647H44V20.9987Z" fill="#E6F4E6"/>
<path d="M44 18.8326H41.834V20.9987H44V18.8326Z" fill="#E6F4E6"/>
<path d="M44 16.6666H41.834V18.8326H44V16.6666Z" fill="#E6F4E6"/>
<path d="M41.834 14.5006H39.668V16.6666H41.834V14.5006Z" fill="#E6F4E6"/>
</g>
<defs>
<clipPath id="clip0_0_451">
<rect width="26" height="26" fill="white" transform="translate(18 8)"/>
</clipPath>
</defs>
</svg>
