<svg width="63" height="42" viewBox="0 0 63 42" fill="none" xmlns="http://www.w3.org/2000/svg">
<path d="M11.2177 2.81262L50.9999 2.81268V5.6164L53.789 5.61767V8.42267L56.5768 8.42394V11.2277H59.3979V30.794L56.5768 30.7788V33.5825H53.789V36.3888H50.9999V39.1938L11.2177 39.1937V36.39H8.42863V33.585H5.64081V30.7787H2.81976V11.2276H5.64081V8.42389H8.42863V5.61762H11.2177V2.81262Z" fill="#05A38C"/>
<path d="M14.0363 0.00634766H11.2165V2.81008H14.0363V0.00634766Z" fill="#5DD5A2"/>
<path d="M11.2165 2.81262H8.39673V5.61635H11.2165V2.81262Z" fill="#5DD5A2"/>
<path d="M8.42866 5.61768H5.60889V8.4214H8.42866V5.61768Z" fill="#5DD5A2"/>
<path d="M5.63953 8.42383H2.81976V11.2276H5.63953V8.42383Z" fill="#5DD5A2"/>
<path d="M2.81977 11.2277H0V14.0314H2.81977V11.2277Z" fill="#5DD5A2"/>
<path d="M2.81977 14.0187H0V16.8224H2.81977V14.0187Z" fill="#5DD5A2"/>
<path d="M2.81977 16.8097H0V19.6134H2.81977V16.8097Z" fill="#5DD5A2"/>
<path d="M2.81977 19.6021H0V22.4058H2.81977V19.6021Z" fill="#5DD5A2"/>
<path d="M14.0363 39.1963H11.2165V42H14.0363V39.1963Z" fill="#5DD5A2"/>
<path d="M16.856 39.1963H14.0363V42H16.856V39.1963Z" fill="#5DD5A2"/>
<path d="M19.677 39.1963H16.8572V42H19.677V39.1963Z" fill="#5DD5A2"/>
<path d="M22.4968 39.1963H19.677V42H22.4968V39.1963Z" fill="#5DD5A2"/>
<path d="M25.3166 39.1963H22.4968V42H25.3166V39.1963Z" fill="#5DD5A2"/>
<path d="M28.1364 39.1963H25.3166V42H28.1364V39.1963Z" fill="#5DD5A2"/>
<path d="M30.9574 39.1963H28.1376V42H30.9574V39.1963Z" fill="#5DD5A2"/>
<path d="M33.7772 39.1963H30.9574V42H33.7772V39.1963Z" fill="#5DD5A2"/>
<path d="M36.5969 39.1963H33.7772V42H36.5969V39.1963Z" fill="#5DD5A2"/>
<path d="M39.418 39.1963H36.5983V42H39.418V39.1963Z" fill="#5DD5A2"/>
<path d="M42.2377 39.1963H39.418V42H42.2377V39.1963Z" fill="#5DD5A2"/>
<path d="M45.0575 39.1963H42.2377V42H45.0575V39.1963Z" fill="#5DD5A2"/>
<path d="M47.8773 39.1963H45.0575V42H47.8773V39.1963Z" fill="#5DD5A2"/>
<path d="M50.9999 39.1963H47.8785V42H50.9999V39.1963Z" fill="#5DD5A2"/>
<path d="M16.856 0H14.0363V2.80373H16.856V0Z" fill="#5DD5A2"/>
<path d="M19.677 0H16.8572V2.80373H19.677V0Z" fill="#5DD5A2"/>
<path d="M22.4968 0H19.677V2.80373H22.4968V0Z" fill="#5DD5A2"/>
<path d="M25.3166 0H22.4968V2.80373H25.3166V0Z" fill="#5DD5A2"/>
<path d="M28.1364 0H25.3166V2.80373H28.1364V0Z" fill="#5DD5A2"/>
<path d="M30.9574 0H28.1376V2.80373H30.9574V0Z" fill="#5DD5A2"/>
<path d="M33.7772 0H30.9574V2.80373H33.7772V0Z" fill="#5DD5A2"/>
<path d="M36.5969 0H33.7772V2.80373H36.5969V0Z" fill="#5DD5A2"/>
<path d="M39.418 0H36.5983V2.80373H39.418V0Z" fill="#5DD5A2"/>
<path d="M42.2377 0H39.418V2.80373H42.2377V0Z" fill="#5DD5A2"/>
<path d="M45.0575 0H42.2377V2.80373H45.0575V0Z" fill="#5DD5A2"/>
<path d="M47.8773 0H45.0575V2.80373H47.8773V0Z" fill="#5DD5A2"/>
<path d="M50.9999 0H47.8785V2.80373H50.9999V0Z" fill="#5DD5A2"/>
<path d="M11.2165 36.39H8.39673V39.1937H11.2165V36.39Z" fill="#5DD5A2"/>
<path d="M8.42866 33.585H5.60889V36.3887H8.42866V33.585Z" fill="#5DD5A2"/>
<path d="M5.63953 30.7788H2.81976V33.5825H5.63953V30.7788Z" fill="#5DD5A2"/>
<path d="M2.81977 27.9902H0V30.794H2.81977V27.9902Z" fill="#5DD5A2"/>
<path d="M2.81977 25.1992H0V28.0029H2.81977V25.1992Z" fill="#5DD5A2"/>
<path d="M2.81977 22.407H0V25.2107H2.81977V22.407Z" fill="#5DD5A2"/>
<path d="M53.8197 2.81262H50.9999V5.61635H53.8197V2.81262Z" fill="#5DD5A2"/>
<path d="M56.6089 5.61768H53.7891V8.4214H56.6089V5.61768Z" fill="#5DD5A2"/>
<path d="M59.3967 8.42383H56.5769V11.2276H59.3967V8.42383Z" fill="#5DD5A2"/>
<path d="M62.2177 11.2277H59.3979V14.0314H62.2177V11.2277Z" fill="#5DD5A2"/>
<path d="M62.2177 14.0187H59.3979V16.8224H62.2177V14.0187Z" fill="#5DD5A2"/>
<path d="M62.2177 16.8097H59.3979V19.6134H62.2177V16.8097Z" fill="#5DD5A2"/>
<path d="M62.2177 19.6021H59.3979V22.4058H62.2177V19.6021Z" fill="#5DD5A2"/>
<path d="M53.8197 36.39H50.9999V39.1937H53.8197V36.39Z" fill="#5DD5A2"/>
<path d="M56.6089 33.585H53.7891V36.3887H56.6089V33.585Z" fill="#5DD5A2"/>
<path d="M59.3967 30.7788H56.5769V33.5825H59.3967V30.7788Z" fill="#5DD5A2"/>
<path d="M62.2177 27.9902H59.3979V30.794H62.2177V27.9902Z" fill="#5DD5A2"/>
<path d="M62.2177 25.1992H59.3979V28.0029H62.2177V25.1992Z" fill="#5DD5A2"/>
<path d="M62.2177 22.407H59.3979V25.2107H62.2177V22.407Z" fill="#5DD5A2"/>
<g clip-path="url(#clip0_0_277)">
<path d="M24.6452 8H22.0631V10.5821H24.6452V8Z" fill="#E6F4E6"/>
<path d="M24.6452 10.582H22.0631V13.1641H24.6452V10.582Z" fill="#E6F4E6"/>
<path d="M24.6452 13.1672H22.0631V15.7493H24.6452V13.1672Z" fill="#E6F4E6"/>
<path d="M24.6452 15.7493H22.0631V18.3313H24.6452V15.7493Z" fill="#E6F4E6"/>
<path d="M22.0631 18.3314H19.481V20.9135H22.0631V18.3314Z" fill="#E6F4E6"/>
<path d="M19.4811 13.1672H16.899V15.7493H19.4811V13.1672Z" fill="#E6F4E6"/>
<path d="M19.4811 15.7493H16.899V18.3313H19.4811V15.7493Z" fill="#E6F4E6"/>
<path d="M19.4811 10.582H16.899V13.1641H19.4811V10.582Z" fill="#E6F4E6"/>
<path d="M45.311 13.1672H42.7289V15.7493H45.311V13.1672Z" fill="#E6F4E6"/>
<path d="M45.311 15.7493H42.7289V18.3313H45.311V15.7493Z" fill="#E6F4E6"/>
<path d="M42.7259 18.3314H40.1438V20.9135H42.7259V18.3314Z" fill="#E6F4E6"/>
<path d="M45.311 10.582H42.7289V13.1641H45.311V10.582Z" fill="#E6F4E6"/>
<path d="M42.7259 10.582H40.1438V13.1641H42.7259V10.582Z" fill="#E6F4E6"/>
<path d="M22.0631 10.582H19.481V13.1641H22.0631V10.582Z" fill="#E6F4E6"/>
<path d="M24.6452 18.3314H22.0631V20.9135H24.6452V18.3314Z" fill="#E6F4E6"/>
<path d="M29.8124 23.4987H27.2303V26.0807H29.8124V23.4987Z" fill="#E6F4E6"/>
<path d="M32.3945 23.4987H29.8124V26.0807H32.3945V23.4987Z" fill="#E6F4E6"/>
<path d="M27.2303 20.9135H24.6483V23.4955H27.2303V20.9135Z" fill="#E6F4E6"/>
<path d="M29.8124 20.9135H27.2303V23.4955H29.8124V20.9135Z" fill="#E6F4E6"/>
<path d="M32.3945 20.9135H29.8124V23.4955H32.3945V20.9135Z" fill="#E6F4E6"/>
<path d="M27.2303 18.3314H24.6483V20.9135H27.2303V18.3314Z" fill="#E6F4E6"/>
<path d="M29.8124 18.3314H27.2303V20.9135H29.8124V18.3314Z" fill="#E6F4E6"/>
<path d="M32.3945 18.3314H29.8124V20.9135H32.3945V18.3314Z" fill="#E6F4E6"/>
<path d="M27.2303 15.7493H24.6483V18.3313H27.2303V15.7493Z" fill="#E6F4E6"/>
<path d="M29.8124 15.7493H27.2303V18.3313H29.8124V15.7493Z" fill="#E6F4E6"/>
<path d="M32.3945 15.7493H29.8124V18.3313H32.3945V15.7493Z" fill="#E6F4E6"/>
<path d="M27.2303 13.1672H24.6483V15.7493H27.2303V13.1672Z" fill="#E6F4E6"/>
<path d="M29.8124 13.1672H27.2303V15.7493H29.8124V13.1672Z" fill="#E6F4E6"/>
<path d="M32.3945 13.1672H29.8124V15.7493H32.3945V13.1672Z" fill="#E6F4E6"/>
<path d="M27.2303 10.582H24.6483V13.1641H27.2303V10.582Z" fill="#E6F4E6"/>
<path d="M29.8124 10.582H27.2303V13.1641H29.8124V10.582Z" fill="#E6F4E6"/>
<path d="M32.3945 10.582H29.8124V13.1641H32.3945V10.582Z" fill="#E6F4E6"/>
<path d="M34.9797 23.4987H32.3976V26.0807H34.9797V23.4987Z" fill="#E6F4E6"/>
<path d="M34.9797 20.9135H32.3976V23.4955H34.9797V20.9135Z" fill="#E6F4E6"/>
<path d="M34.9797 18.3314H32.3976V20.9135H34.9797V18.3314Z" fill="#E6F4E6"/>
<path d="M34.9797 15.7493H32.3976V18.3313H34.9797V15.7493Z" fill="#E6F4E6"/>
<path d="M34.9797 13.1672H32.3976V15.7493H34.9797V13.1672Z" fill="#E6F4E6"/>
<path d="M32.3945 26.0807H29.8124V28.6628H32.3945V26.0807Z" fill="#E6F4E6"/>
<path d="M32.3945 28.6627H29.8124V31.2448H32.3945V28.6627Z" fill="#E6F4E6"/>
<path d="M29.8124 28.6627H27.2303V31.2448H29.8124V28.6627Z" fill="#E6F4E6"/>
<path d="M34.9797 28.6627H32.3976V31.2448H34.9797V28.6627Z" fill="#E6F4E6"/>
<path d="M29.8124 31.2449H27.2303V33.8269H29.8124V31.2449Z" fill="#E6F4E6"/>
<path d="M27.2303 31.2449H24.6483V33.8269H27.2303V31.2449Z" fill="#E6F4E6"/>
<path d="M32.3945 31.2449H29.8124V33.8269H32.3945V31.2449Z" fill="#E6F4E6"/>
<path d="M34.9797 31.2449H32.3976V33.8269H34.9797V31.2449Z" fill="#E6F4E6"/>
<path d="M37.5618 31.2449H34.9797V33.8269H37.5618V31.2449Z" fill="#E6F4E6"/>
<path d="M37.5618 20.9135H34.9797V23.4955H37.5618V20.9135Z" fill="#E6F4E6"/>
<path d="M40.1438 18.3314H37.5617V20.9135H40.1438V18.3314Z" fill="#E6F4E6"/>
<path d="M40.1438 15.7493H37.5617V18.3313H40.1438V15.7493Z" fill="#E6F4E6"/>
<path d="M40.1438 13.1672H37.5617V15.7493H40.1438V13.1672Z" fill="#E6F4E6"/>
<path d="M40.1438 10.582H37.5617V13.1641H40.1438V10.582Z" fill="#E6F4E6"/>
<path d="M27.2303 8H24.6483V10.5821H27.2303V8Z" fill="#E6F4E6"/>
<path d="M29.8124 8H27.2303V10.5821H29.8124V8Z" fill="#E6F4E6"/>
<path d="M32.3945 8H29.8124V10.5821H32.3945V8Z" fill="#E6F4E6"/>
<path d="M34.9797 8H32.3976V10.5821H34.9797V8Z" fill="#E6F4E6"/>
<path d="M37.5618 8H34.9797V10.5821H37.5618V8Z" fill="#E6F4E6"/>
<path d="M40.1438 8H37.5617V10.5821H40.1438V8Z" fill="#E6F4E6"/>
</g>
<defs>
<clipPath id="clip0_0_277">
<rect width="28.4121" height="25.83" fill="white" transform="translate(16.899 8)"/>
</clipPath>
</defs>
</svg>
