<svg width="186" height="42" viewBox="0 0 186 42" fill="none" xmlns="http://www.w3.org/2000/svg">
<path d="M14.0363 0.00634766H11.2166V2.81008H14.0363V0.00634766Z" fill="#5DD5A2"/>
<path d="M11.2165 2.81262H8.39673V5.61635H11.2165V2.81262Z" fill="#5DD5A2"/>
<path d="M8.42866 5.61768H5.60889V8.4214H8.42866V5.61768Z" fill="#5DD5A2"/>
<path d="M5.63959 8.42395H2.81982V11.2277H5.63959V8.42395Z" fill="#5DD5A2"/>
<path d="M2.81977 11.2277H0V14.0314H2.81977V11.2277Z" fill="#5DD5A2"/>
<path d="M2.81977 14.0187H0V16.8224H2.81977V14.0187Z" fill="#5DD5A2"/>
<path d="M2.81977 16.8097H0V19.6134H2.81977V16.8097Z" fill="#5DD5A2"/>
<path d="M2.81977 19.6019H0V22.4057H2.81977V19.6019Z" fill="#5DD5A2"/>
<path d="M14.0363 39.1963H11.2166V42H14.0363V39.1963Z" fill="#5DD5A2"/>
<path d="M16.8561 39.1963H14.0364V42H16.8561V39.1963Z" fill="#5DD5A2"/>
<path d="M19.6772 39.1963H16.8574V42H19.6772V39.1963Z" fill="#5DD5A2"/>
<path d="M22.4968 39.1963H19.677V42H22.4968V39.1963Z" fill="#5DD5A2"/>
<path d="M25.3166 39.1963H22.4968V42H25.3166V39.1963Z" fill="#5DD5A2"/>
<path d="M28.1364 39.1963H25.3167V42H28.1364V39.1963Z" fill="#5DD5A2"/>
<path d="M30.9575 39.1963H28.1377V42H30.9575V39.1963Z" fill="#5DD5A2"/>
<path d="M33.7773 39.1963H30.9575V42H33.7773V39.1963Z" fill="#5DD5A2"/>
<path d="M36.5971 39.1963H33.7773V42H36.5971V39.1963Z" fill="#5DD5A2"/>
<path d="M39.4182 39.1963H36.5984V42H39.4182V39.1963Z" fill="#5DD5A2"/>
<path d="M42.2377 39.1963H39.418V42H42.2377V39.1963Z" fill="#5DD5A2"/>
<path d="M45.0576 39.1963H42.2378V42H45.0576V39.1963Z" fill="#5DD5A2"/>
<path d="M47.8774 39.1963H45.0576V42H47.8774V39.1963Z" fill="#5DD5A2"/>
<path d="M50.6984 39.1963H47.8787V42H50.6984V39.1963Z" fill="#5DD5A2"/>
<path d="M53.5183 39.1963H50.6985V42H53.5183V39.1963Z" fill="#5DD5A2"/>
<path d="M56.3378 39.1963H53.5181V42H56.3378V39.1963Z" fill="#5DD5A2"/>
<path d="M59.1577 39.1963H56.3379V42H59.1577V39.1963Z" fill="#5DD5A2"/>
<path d="M61.9787 39.1963H59.1589V42H61.9787V39.1963Z" fill="#5DD5A2"/>
<path d="M64.7985 39.1963H61.9788V42H64.7985V39.1963Z" fill="#5DD5A2"/>
<path d="M67.6184 39.1963H64.7986V42H67.6184V39.1963Z" fill="#5DD5A2"/>
<path d="M70.4394 39.1963H67.6196V42H70.4394V39.1963Z" fill="#5DD5A2"/>
<path d="M73.259 39.1963H70.4392V42H73.259V39.1963Z" fill="#5DD5A2"/>
<path d="M76.0788 39.1963H73.259V42H76.0788V39.1963Z" fill="#5DD5A2"/>
<path d="M78.8986 39.1963H76.0789V42H78.8986V39.1963Z" fill="#5DD5A2"/>
<path d="M81.7197 39.1963H78.8999V42H81.7197V39.1963Z" fill="#5DD5A2"/>
<path d="M84.5395 39.1963H81.7197V42H84.5395V39.1963Z" fill="#5DD5A2"/>
<path d="M87.3593 39.1963H84.5396V42H87.3593V39.1963Z" fill="#5DD5A2"/>
<path d="M90.1791 39.1963H87.3594V42H90.1791V39.1963Z" fill="#5DD5A2"/>
<path d="M92.9999 39.1963H90.1802V42H92.9999V39.1963Z" fill="#5DD5A2"/>
<path d="M95.8198 39.1963H93V42H95.8198V39.1963Z" fill="#5DD5A2"/>
<path d="M98.6396 39.1963H95.8198V42H98.6396V39.1963Z" fill="#5DD5A2"/>
<path d="M101.461 39.1963H98.6409V42H101.461V39.1963Z" fill="#5DD5A2"/>
<path d="M104.28 39.1963H101.461V42H104.28V39.1963Z" fill="#5DD5A2"/>
<path d="M107.1 39.1963H104.281V42H107.1V39.1963Z" fill="#5DD5A2"/>
<path d="M109.92 39.1963H107.1V42H109.92V39.1963Z" fill="#5DD5A2"/>
<path d="M112.741 39.1963H109.921V42H112.741V39.1963Z" fill="#5DD5A2"/>
<path d="M115.561 39.1963H112.741V42H115.561V39.1963Z" fill="#5DD5A2"/>
<path d="M118.381 39.1963H115.561V42H118.381V39.1963Z" fill="#5DD5A2"/>
<path d="M121.2 39.1963H118.381V42H121.2V39.1963Z" fill="#5DD5A2"/>
<path d="M124.021 39.1963H121.202V42H124.021V39.1963Z" fill="#5DD5A2"/>
<path d="M126.841 39.1963H124.021V42H126.841V39.1963Z" fill="#5DD5A2"/>
<path d="M129.661 39.1963H126.841V42H129.661V39.1963Z" fill="#5DD5A2"/>
<path d="M132.482 39.1963H129.662V42H132.482V39.1963Z" fill="#5DD5A2"/>
<path d="M135.302 39.1963H132.482V42H135.302V39.1963Z" fill="#5DD5A2"/>
<path d="M138.122 39.1963H135.302V42H138.122V39.1963Z" fill="#5DD5A2"/>
<path d="M140.941 39.1963H138.122V42H140.941V39.1963Z" fill="#5DD5A2"/>
<path d="M143.762 39.1963H140.943V42H143.762V39.1963Z" fill="#5DD5A2"/>
<path d="M146.582 39.1963H143.762V42H146.582V39.1963Z" fill="#5DD5A2"/>
<path d="M149.402 39.1963H146.582V42H149.402V39.1963Z" fill="#5DD5A2"/>
<path d="M152.222 39.1963H149.402V42H152.222V39.1963Z" fill="#5DD5A2"/>
<path d="M155.043 39.1963H152.223V42H155.043V39.1963Z" fill="#5DD5A2"/>
<path d="M157.863 39.1963H155.043V42H157.863V39.1963Z" fill="#5DD5A2"/>
<path d="M160.682 39.1963H157.862V42H160.682V39.1963Z" fill="#5DD5A2"/>
<path d="M163.503 39.1963H160.684V42H163.503V39.1963Z" fill="#5DD5A2"/>
<path d="M166.323 39.1963H163.503V42H166.323V39.1963Z" fill="#5DD5A2"/>
<path d="M169.143 39.1963H166.323V42H169.143V39.1963Z" fill="#5DD5A2"/>
<path d="M171.963 39.1963H169.143V42H171.963V39.1963Z" fill="#5DD5A2"/>
<path d="M16.8561 0H14.0364V2.80373H16.8561V0Z" fill="#5DD5A2"/>
<path d="M19.6772 0H16.8574V2.80373H19.6772V0Z" fill="#5DD5A2"/>
<path d="M22.4968 0H19.677V2.80373H22.4968V0Z" fill="#5DD5A2"/>
<path d="M25.3166 0H22.4968V2.80373H25.3166V0Z" fill="#5DD5A2"/>
<path d="M28.1364 0H25.3167V2.80373H28.1364V0Z" fill="#5DD5A2"/>
<path d="M30.9575 0H28.1377V2.80373H30.9575V0Z" fill="#5DD5A2"/>
<path d="M33.7773 0H30.9575V2.80373H33.7773V0Z" fill="#5DD5A2"/>
<path d="M36.5971 0H33.7773V2.80373H36.5971V0Z" fill="#5DD5A2"/>
<path d="M39.4182 0H36.5984V2.80373H39.4182V0Z" fill="#5DD5A2"/>
<path d="M42.2377 0H39.418V2.80373H42.2377V0Z" fill="#5DD5A2"/>
<path d="M45.0576 0H42.2378V2.80373H45.0576V0Z" fill="#5DD5A2"/>
<path d="M47.8774 0H45.0576V2.80373H47.8774V0Z" fill="#5DD5A2"/>
<path d="M50.6984 0H47.8787V2.80373H50.6984V0Z" fill="#5DD5A2"/>
<path d="M53.5183 0H50.6985V2.80373H53.5183V0Z" fill="#5DD5A2"/>
<path d="M56.3378 0H53.5181V2.80373H56.3378V0Z" fill="#5DD5A2"/>
<path d="M59.1577 0H56.3379V2.80373H59.1577V0Z" fill="#5DD5A2"/>
<path d="M61.9787 0H59.1589V2.80373H61.9787V0Z" fill="#5DD5A2"/>
<path d="M64.7985 0H61.9788V2.80373H64.7985V0Z" fill="#5DD5A2"/>
<path d="M67.6184 0H64.7986V2.80373H67.6184V0Z" fill="#5DD5A2"/>
<path d="M70.4394 0H67.6196V2.80373H70.4394V0Z" fill="#5DD5A2"/>
<path d="M73.259 0H70.4392V2.80373H73.259V0Z" fill="#5DD5A2"/>
<path d="M76.0788 0H73.259V2.80373H76.0788V0Z" fill="#5DD5A2"/>
<path d="M78.8986 0H76.0789V2.80373H78.8986V0Z" fill="#5DD5A2"/>
<path d="M81.7197 0H78.8999V2.80373H81.7197V0Z" fill="#5DD5A2"/>
<path d="M84.5395 0H81.7197V2.80373H84.5395V0Z" fill="#5DD5A2"/>
<path d="M87.3593 0H84.5396V2.80373H87.3593V0Z" fill="#5DD5A2"/>
<path d="M90.1791 0H87.3594V2.80373H90.1791V0Z" fill="#5DD5A2"/>
<path d="M92.9999 0H90.1802V2.80373H92.9999V0Z" fill="#5DD5A2"/>
<path d="M95.8198 0H93V2.80373H95.8198V0Z" fill="#5DD5A2"/>
<path d="M98.6396 0H95.8198V2.80373H98.6396V0Z" fill="#5DD5A2"/>
<path d="M101.461 0H98.6409V2.80373H101.461V0Z" fill="#5DD5A2"/>
<path d="M104.28 0H101.461V2.80373H104.28V0Z" fill="#5DD5A2"/>
<path d="M107.1 0H104.281V2.80373H107.1V0Z" fill="#5DD5A2"/>
<path d="M109.92 0H107.1V2.80373H109.92V0Z" fill="#5DD5A2"/>
<path d="M112.741 0H109.921V2.80373H112.741V0Z" fill="#5DD5A2"/>
<path d="M115.561 0H112.741V2.80373H115.561V0Z" fill="#5DD5A2"/>
<path d="M118.381 0H115.561V2.80373H118.381V0Z" fill="#5DD5A2"/>
<path d="M121.2 0H118.381V2.80373H121.2V0Z" fill="#5DD5A2"/>
<path d="M124.021 0H121.202V2.80373H124.021V0Z" fill="#5DD5A2"/>
<path d="M126.841 0H124.021V2.80373H126.841V0Z" fill="#5DD5A2"/>
<path d="M129.661 0H126.841V2.80373H129.661V0Z" fill="#5DD5A2"/>
<path d="M132.482 0H129.662V2.80373H132.482V0Z" fill="#5DD5A2"/>
<path d="M135.302 0H132.482V2.80373H135.302V0Z" fill="#5DD5A2"/>
<path d="M138.122 0H135.302V2.80373H138.122V0Z" fill="#5DD5A2"/>
<path d="M140.941 0H138.122V2.80373H140.941V0Z" fill="#5DD5A2"/>
<path d="M143.762 0H140.943V2.80373H143.762V0Z" fill="#5DD5A2"/>
<path d="M146.582 0H143.762V2.80373H146.582V0Z" fill="#5DD5A2"/>
<path d="M149.402 0H146.582V2.80373H149.402V0Z" fill="#5DD5A2"/>
<path d="M152.222 0H149.402V2.80373H152.222V0Z" fill="#5DD5A2"/>
<path d="M155.043 0H152.223V2.80373H155.043V0Z" fill="#5DD5A2"/>
<path d="M157.863 0H155.043V2.80373H157.863V0Z" fill="#5DD5A2"/>
<path d="M160.682 0H157.862V2.80373H160.682V0Z" fill="#5DD5A2"/>
<path d="M163.503 0H160.684V2.80373H163.503V0Z" fill="#5DD5A2"/>
<path d="M166.323 0H163.503V2.80373H166.323V0Z" fill="#5DD5A2"/>
<path d="M169.143 0H166.323V2.80373H169.143V0Z" fill="#5DD5A2"/>
<path d="M171.963 0H169.143V2.80373H171.963V0Z" fill="#5DD5A2"/>
<path d="M11.2165 36.39H8.39673V39.1937H11.2165V36.39Z" fill="#5DD5A2"/>
<path d="M8.42866 33.5851H5.60889V36.3888H8.42866V33.5851Z" fill="#5DD5A2"/>
<path d="M5.63959 30.7788H2.81982V33.5825H5.63959V30.7788Z" fill="#5DD5A2"/>
<path d="M2.81977 27.9902H0V30.794H2.81977V27.9902Z" fill="#5DD5A2"/>
<path d="M2.81977 25.1992H0V28.0029H2.81977V25.1992Z" fill="#5DD5A2"/>
<path d="M2.81977 22.407H0V25.2107H2.81977V22.407Z" fill="#5DD5A2"/>
<path d="M174.784 0.00634766H171.964V2.81008H174.784V0.00634766Z" fill="#5DD5A2"/>
<path d="M177.602 2.81262H174.782V5.61635H177.602V2.81262Z" fill="#5DD5A2"/>
<path d="M180.391 5.61768H177.572V8.4214H180.391V5.61768Z" fill="#5DD5A2"/>
<path d="M183.179 8.42395H180.359V11.2277H183.179V8.42395Z" fill="#5DD5A2"/>
<path d="M186 11.2277H183.18V14.0314H186V11.2277Z" fill="#5DD5A2"/>
<path d="M186 14.0187H183.18V16.8224H186V14.0187Z" fill="#5DD5A2"/>
<path d="M186 16.8097H183.18V19.6134H186V16.8097Z" fill="#5DD5A2"/>
<path d="M186 19.6019H183.18V22.4057H186V19.6019Z" fill="#5DD5A2"/>
<path d="M174.784 39.1963H171.964V42H174.784V39.1963Z" fill="#5DD5A2"/>
<path d="M177.602 36.39H174.782V39.1937H177.602V36.39Z" fill="#5DD5A2"/>
<path d="M180.391 33.5851H177.572V36.3888H180.391V33.5851Z" fill="#5DD5A2"/>
<path d="M183.179 30.7788H180.359V33.5825H183.179V30.7788Z" fill="#5DD5A2"/>
<path d="M186 27.9902H183.18V30.794H186V27.9902Z" fill="#5DD5A2"/>
<path d="M186 25.1992H183.18V28.0029H186V25.1992Z" fill="#5DD5A2"/>
<path d="M186 22.407H183.18V25.2107H186V22.407Z" fill="#5DD5A2"/>
</svg>
