<svg width="113" height="50" viewBox="0 0 113 50" fill="none" xmlns="http://www.w3.org/2000/svg">
<path d="M94.9637 32.7339H96.1148V33.885H94.9637V32.7339ZM96.1148 32.7339H97.2659V33.885H96.1148V32.7339ZM96.1148 33.885H97.2659V35.036H96.1148V33.885ZM96.1148 35.036H97.2659V36.1871H96.1148V35.036ZM96.1148 36.1871H97.2659V37.3382H96.1148V36.1871ZM96.1148 37.3382H97.2659V38.4893H96.1148V37.3382ZM97.2659 36.1871H98.417V37.3382H97.2659V36.1871ZM97.2659 35.036H98.417V36.1871H97.2659V35.036ZM97.2659 33.885H98.417V35.036H97.2659V33.885ZM97.2659 32.7339H98.417V33.885H97.2659V32.7339ZM94.9637 35.036H96.1148V36.1871H94.9637V35.036ZM94.9637 33.885H96.1148V35.036H94.9637V33.885ZM94.9637 36.1871H96.1148V37.3382H94.9637V36.1871ZM94.9637 37.3382H96.1148V38.4893H94.9637V37.3382ZM94.9637 38.4893H96.1148V39.6403H94.9637V38.4893ZM94.9637 39.6403H96.1148V40.7914H94.9637V39.6403ZM94.9637 40.7914H96.1148V41.9425H94.9637V40.7914ZM94.9637 41.9425H96.1148V43.0936H94.9637V41.9425ZM94.9637 43.0936H96.1148V44.2446H94.9637V43.0936ZM94.9637 44.2446H96.1148V45.3957H94.9637V44.2446ZM94.9637 45.3957H96.1148V46.5468H94.9637V45.3957ZM94.9637 46.5468H96.1148V47.6979H94.9637V46.5468ZM96.1148 46.5468H97.2659V47.6979H96.1148V46.5468ZM96.1148 47.6979H97.2659V48.8489H96.1148V47.6979ZM96.1148 48.8489H97.2659V50H96.1148V48.8489ZM94.9637 48.8489H96.1148V50H94.9637V48.8489ZM94.9637 47.6979H96.1148V48.8489H94.9637V47.6979ZM97.2659 48.8489H98.417V50H97.2659V48.8489ZM97.2659 47.6979H98.417V48.8489H97.2659V47.6979ZM97.2659 46.5468H98.417V47.6979H97.2659V46.5468ZM97.2659 45.3957H98.417V46.5468H97.2659V45.3957ZM97.2659 44.2446H98.417V45.3957H97.2659V44.2446ZM97.2659 43.0936H98.417V44.2446H97.2659V43.0936ZM97.2659 41.9425H98.417V43.0936H97.2659V41.9425ZM96.1148 41.9425H97.2659V43.0936H96.1148V41.9425ZM96.1148 40.7914H97.2659V41.9425H96.1148V40.7914ZM96.1148 39.6403H97.2659V40.7914H96.1148V39.6403ZM96.1148 38.4893H97.2659V39.6403H96.1148V38.4893ZM97.2659 37.3382H98.417V38.4893H97.2659V37.3382ZM97.2659 38.4893H98.417V39.6403H97.2659V38.4893ZM97.2659 39.6403H98.417V40.7914H97.2659V39.6403ZM97.2659 40.7914H98.417V41.9425H97.2659V40.7914ZM96.1148 43.0936H97.2659V44.2446H96.1148V43.0936ZM96.1148 44.2446H97.2659V45.3957H96.1148V44.2446ZM96.1148 45.3957H97.2659V46.5468H96.1148V45.3957ZM111.079 32.7339H112.23V33.885H111.079V32.7339ZM111.079 33.885H112.23V35.036H111.079V33.885ZM111.079 35.036H112.23V36.1871H111.079V35.036ZM111.079 36.1871H112.23V37.3382H111.079V36.1871ZM111.079 37.3382H112.23V38.4893H111.079V37.3382ZM111.079 38.4893H112.23V39.6403H111.079V38.4893ZM111.079 39.6403H112.23V40.7914H111.079V39.6403ZM111.079 40.7914H112.23V41.9425H111.079V40.7914ZM111.079 41.9425H112.23V43.0936H111.079V41.9425ZM111.079 43.0936H112.23V44.2446H111.079V43.0936ZM111.079 44.2446H112.23V45.3957H111.079V44.2446ZM111.079 45.3957H112.23V46.5468H111.079V45.3957ZM111.079 46.5468H112.23V47.6979H111.079V46.5468ZM111.079 47.6979H112.23V48.8489H111.079V47.6979ZM111.079 48.8489H112.23V50H111.079V48.8489ZM109.928 48.8489H111.079V50H109.928V48.8489ZM108.777 47.6979H109.928V48.8489H108.777V47.6979ZM108.777 46.5468H109.928V47.6979H108.777V46.5468ZM108.777 48.8489H109.928V50H108.777V48.8489ZM109.928 47.6979H111.079V48.8489H109.928V47.6979ZM109.928 46.5468H111.079V47.6979H109.928V46.5468ZM109.928 45.3957H111.079V46.5468H109.928V45.3957ZM109.928 44.2446H111.079V45.3957H109.928V44.2446ZM109.928 43.0936H111.079V44.2446H109.928V43.0936ZM109.928 41.9425H111.079V43.0936H109.928V41.9425ZM109.928 40.7914H111.079V41.9425H109.928V40.7914ZM109.928 39.6403H111.079V40.7914H109.928V39.6403ZM109.928 38.4893H111.079V39.6403H109.928V38.4893ZM109.928 37.3382H111.079V38.4893H109.928V37.3382ZM109.928 36.1871H111.079V37.3382H109.928V36.1871ZM109.928 35.036H111.079V36.1871H109.928V35.036ZM109.928 33.885H111.079V35.036H109.928V33.885ZM109.928 32.7339H111.079V33.885H109.928V32.7339ZM108.777 32.7339H109.928V33.885H108.777V32.7339ZM108.777 33.885H109.928V35.036H108.777V33.885ZM108.777 35.036H109.928V36.1871H108.777V35.036ZM108.777 36.1871H109.928V37.3382H108.777V36.1871ZM108.777 38.4893H109.928V39.6403H108.777V38.4893ZM108.777 39.6403H109.928V40.7914H108.777V39.6403ZM108.777 40.7914H109.928V41.9425H108.777V40.7914ZM108.777 41.9425H109.928V43.0936H108.777V41.9425ZM108.777 45.3957H109.928V46.5468H108.777V45.3957ZM108.777 44.2446H109.928V45.3957H108.777V44.2446ZM108.777 43.0936H109.928V44.2446H108.777V43.0936ZM108.777 37.3382H109.928V38.4893H108.777V37.3382ZM98.417 33.885H99.568V35.036H98.417V33.885ZM98.417 35.036H99.568V36.1871H98.417V35.036ZM98.417 36.1871H99.568V37.3382H98.417V36.1871ZM98.417 37.3382H99.568V38.4893H98.417V37.3382ZM98.417 38.4893H99.568V39.6403H98.417V38.4893ZM99.568 35.036H100.719V36.1871H99.568V35.036ZM99.568 36.1871H100.719V37.3382H99.568V36.1871ZM99.568 37.3382H100.719V38.4893H99.568V37.3382ZM99.568 38.4893H100.719V39.6403H99.568V38.4893ZM99.568 39.6403H100.719V40.7914H99.568V39.6403ZM100.719 36.1871H101.87V37.3382H100.719V36.1871ZM100.719 37.3382H101.87V38.4893H100.719V37.3382ZM100.719 38.4893H101.87V39.6403H100.719V38.4893ZM100.719 39.6403H101.87V40.7914H100.719V39.6403ZM100.719 40.7914H101.87V41.9425H100.719V40.7914ZM101.87 37.3382H103.021V38.4893H101.87V37.3382ZM101.87 38.4893H103.021V39.6403H101.87V38.4893ZM101.87 39.6403H103.021V40.7914H101.87V39.6403ZM101.87 40.7914H103.021V41.9425H101.87V40.7914ZM101.87 41.9425H103.021V43.0936H101.87V41.9425ZM103.021 38.4893H104.172V39.6403H103.021V38.4893ZM103.021 39.6403H104.172V40.7914H103.021V39.6403ZM103.021 40.7914H104.172V41.9425H103.021V40.7914ZM104.172 37.3382H105.323V38.4893H104.172V37.3382ZM104.172 38.4893H105.323V39.6403H104.172V38.4893ZM104.172 39.6403H105.323V40.7914H104.172V39.6403ZM105.323 36.1871H106.474V37.3382H105.323V36.1871ZM105.323 37.3382H106.474V38.4893H105.323V37.3382ZM105.323 38.4893H106.474V39.6403H105.323V38.4893ZM107.626 33.885H108.777V35.036H107.626V33.885ZM107.626 35.036H108.777V36.1871H107.626V35.036ZM107.626 36.1871H108.777V37.3382H107.626V36.1871ZM107.626 37.3382H108.777V38.4893H107.626V37.3382ZM107.626 38.4893H108.777V39.6403H107.626V38.4893ZM106.474 35.036H107.626V36.1871H106.474V35.036ZM106.474 36.1871H107.626V37.3382H106.474V36.1871ZM106.474 37.3382H107.626V38.4893H106.474V37.3382ZM106.474 38.4893H107.626V39.6403H106.474V38.4893ZM106.474 39.6403H107.626V40.7914H106.474V39.6403ZM105.323 39.6403H106.474V40.7914H105.323V39.6403ZM105.323 40.7914H106.474V41.9425H105.323V40.7914ZM104.172 40.7914H105.323V41.9425H104.172V40.7914ZM104.172 41.9425H105.323V43.0936H104.172V41.9425ZM103.021 41.9425H104.172V43.0936H103.021V41.9425ZM103.021 43.0936H104.172V44.2446H103.021V43.0936Z" fill="white"/>
<path d="M82.4458 32.7339H83.7407V33.885H82.4458V32.7339ZM88.9206 32.7339H90.2155V33.885H88.9206V32.7339ZM88.9206 33.885H90.2155V35.036H88.9206V33.885ZM90.2155 33.885H91.5105V35.036H90.2155V33.885ZM82.4458 33.885H83.7407V35.036H82.4458V33.885ZM81.1508 35.036H82.4458V36.1871H81.1508V35.036ZM81.1508 33.885H82.4458V35.036H81.1508V33.885ZM79.8558 35.036H81.1508V36.1871H79.8558V35.036ZM82.4458 35.036H83.7407V36.1871H82.4458V35.036ZM88.9206 35.036H90.2155V36.1871H88.9206V35.036ZM90.2155 35.036H91.5105V36.1871H90.2155V35.036ZM91.5105 35.036H92.8054V36.1871H91.5105V35.036ZM91.5105 36.1871H92.8054V37.3382H91.5105V36.1871ZM90.2155 36.1871H91.5105V37.3382H90.2155V36.1871ZM88.9206 36.1871H90.2155V37.3382H88.9206V36.1871ZM88.9206 37.3382H90.2155V38.4893H88.9206V37.3382ZM88.9206 38.4893H90.2155V39.6403H88.9206V38.4893ZM88.9206 39.6403H90.2155V40.7914H88.9206V39.6403ZM88.9206 40.7914H90.2155V41.9425H88.9206V40.7914ZM88.9206 41.9425H90.2155V43.0936H88.9206V41.9425ZM90.2155 40.7914H91.5105V41.9425H90.2155V40.7914ZM91.5105 40.7914H92.8054V41.9425H91.5105V40.7914ZM91.5105 39.6403H92.8054V40.7914H91.5105V39.6403ZM91.5105 38.4893H92.8054V39.6403H91.5105V38.4893ZM91.5105 37.3382H92.8054V38.4893H91.5105V37.3382ZM90.2155 37.3382H91.5105V38.4893H90.2155V37.3382ZM90.2155 38.4893H91.5105V39.6403H90.2155V38.4893ZM90.2155 39.6403H91.5105V40.7914H90.2155V39.6403ZM90.2155 41.9425H91.5105V43.0936H90.2155V41.9425ZM90.2155 43.0936H91.5105V44.2446H90.2155V43.0936ZM91.5105 43.0936H92.8054V44.2446H91.5105V43.0936ZM91.5105 41.9425H92.8054V43.0936H91.5105V41.9425ZM91.5105 44.2446H92.8054V45.3957H91.5105V44.2446ZM91.5105 45.3957H92.8054V46.5468H91.5105V45.3957ZM91.5105 46.5468H92.8054V47.6979H91.5105V46.5468ZM90.2155 46.5468H91.5105V47.6979H90.2155V46.5468ZM90.2155 45.3957H91.5105V46.5468H90.2155V45.3957ZM90.2155 44.2446H91.5105V45.3957H90.2155V44.2446ZM88.9206 43.0936H90.2155V44.2446H88.9206V43.0936ZM88.9206 44.2446H90.2155V45.3957H88.9206V44.2446ZM88.9206 45.3957H90.2155V46.5468H88.9206V45.3957ZM87.6256 45.3957H88.9206V46.5468H87.6256V45.3957ZM88.9206 46.5468H90.2155V47.6979H88.9206V46.5468ZM90.2155 47.6979H91.5105V48.8489H90.2155V47.6979ZM88.9206 47.6979H90.2155V48.8489H88.9206V47.6979ZM87.6256 46.5468H88.9206V47.6979H87.6256V46.5468ZM87.6256 47.6979H88.9206V48.8489H87.6256V47.6979ZM88.9206 48.8489H90.2155V50H88.9206V48.8489ZM87.6256 48.8489H88.9206V50H87.6256V48.8489ZM86.3306 48.8489H87.6256V50H86.3306V48.8489ZM85.0357 48.8489H86.3306V50H85.0357V48.8489ZM83.7407 48.8489H85.0357V50H83.7407V48.8489ZM82.4458 48.8489H83.7407V50H82.4458V48.8489ZM82.4458 47.6979H83.7407V48.8489H82.4458V47.6979ZM83.7407 47.6979H85.0357V48.8489H83.7407V47.6979ZM83.7407 46.5468H85.0357V47.6979H83.7407V46.5468ZM85.0357 46.5468H86.3306V47.6979H85.0357V46.5468ZM86.3306 46.5468H87.6256V47.6979H86.3306V46.5468ZM86.3306 47.6979H87.6256V48.8489H86.3306V47.6979ZM85.0357 47.6979H86.3306V48.8489H85.0357V47.6979ZM81.1508 47.6979H82.4458V48.8489H81.1508V47.6979ZM82.4458 46.5468H83.7407V47.6979H82.4458V46.5468ZM83.7407 45.3957H85.0357V46.5468H83.7407V45.3957ZM82.4458 45.3957H83.7407V46.5468H82.4458V45.3957ZM81.1508 45.3957H82.4458V46.5468H81.1508V45.3957ZM81.1508 46.5468H82.4458V47.6979H81.1508V46.5468ZM79.8558 46.5468H81.1508V47.6979H79.8558V46.5468ZM79.8558 45.3957H81.1508V46.5468H79.8558V45.3957ZM79.8558 44.2446H81.1508V45.3957H79.8558V44.2446ZM79.8558 43.0936H81.1508V44.2446H79.8558V43.0936ZM79.8558 41.9425H81.1508V43.0936H79.8558V41.9425ZM79.8558 40.7914H81.1508V41.9425H79.8558V40.7914ZM79.8558 39.6403H81.1508V40.7914H79.8558V39.6403ZM79.8558 38.4893H81.1508V39.6403H79.8558V38.4893ZM79.8558 37.3382H81.1508V38.4893H79.8558V37.3382ZM79.8558 36.1871H81.1508V37.3382H79.8558V36.1871ZM81.1508 36.1871H82.4458V37.3382H81.1508V36.1871ZM82.4458 36.1871H83.7407V37.3382H82.4458V36.1871ZM82.4458 37.3382H83.7407V38.4893H82.4458V37.3382ZM82.4458 38.4893H83.7407V39.6403H82.4458V38.4893ZM82.4458 39.6403H83.7407V40.7914H82.4458V39.6403ZM82.4458 40.7914H83.7407V41.9425H82.4458V40.7914ZM82.4458 41.9425H83.7407V43.0936H82.4458V41.9425ZM82.4458 43.0936H83.7407V44.2446H82.4458V43.0936ZM82.4458 44.2446H83.7407V45.3957H82.4458V44.2446ZM81.1508 44.2446H82.4458V45.3957H81.1508V44.2446ZM81.1508 43.0936H82.4458V44.2446H81.1508V43.0936ZM81.1508 41.9425H82.4458V43.0936H81.1508V41.9425ZM81.1508 40.7914H82.4458V41.9425H81.1508V40.7914ZM81.1508 39.6403H82.4458V40.7914H81.1508V39.6403ZM81.1508 38.4893H82.4458V39.6403H81.1508V38.4893ZM81.1508 37.3382H82.4458V38.4893H81.1508V37.3382ZM81.1508 32.7339H82.4458V33.885H81.1508V32.7339ZM79.8558 32.7339H81.1508V33.885H79.8558V32.7339ZM79.8558 33.885H81.1508V35.036H79.8558V33.885ZM90.2155 32.7339H91.5105V33.885H90.2155V32.7339ZM91.5105 32.7339H92.8054V33.885H91.5105V32.7339ZM91.5105 33.885H92.8054V35.036H91.5105V33.885Z" fill="white"/>
<path d="M70.0237 32.7339H70.9829V33.885H70.0237V32.7339ZM70.0237 33.885H70.9829V35.036H70.0237V33.885ZM70.0237 35.036H70.9829V36.1871H70.0237V35.036ZM70.0237 36.1871H70.9829V37.3382H70.0237V36.1871ZM70.0237 37.3382H70.9829V38.4893H70.0237V37.3382ZM70.0237 38.4893H70.9829V39.6403H70.0237V38.4893ZM70.0237 39.6403H70.9829V40.7914H70.0237V39.6403ZM70.0237 40.7914H70.9829V41.9425H70.0237V40.7914ZM70.0237 41.9425H70.9829V43.0936H70.0237V41.9425ZM70.0237 43.0936H70.9829V44.2446H70.0237V43.0936ZM70.0237 44.2446H70.9829V45.3957H70.0237V44.2446ZM70.0237 45.3957H70.9829V46.5468H70.0237V45.3957ZM70.0237 46.5468H70.9829V47.6979H70.0237V46.5468ZM70.0237 47.6979H70.9829V48.8489H70.0237V47.6979ZM70.0237 48.8489H70.9829V50H70.0237V48.8489ZM69.0645 48.8489H70.0237V50H69.0645V48.8489ZM69.0645 47.6979H70.0237V48.8489H69.0645V47.6979ZM69.0645 46.5468H70.0237V47.6979H69.0645V46.5468ZM69.0645 33.885H70.0237V35.036H69.0645V33.885ZM69.0645 32.7339H70.0237V33.885H69.0645V32.7339ZM69.0645 35.036H70.0237V36.1871H69.0645V35.036ZM69.0645 36.1871H70.0237V37.3382H69.0645V36.1871ZM69.0645 37.3382H70.0237V38.4893H69.0645V37.3382ZM69.0645 38.4893H70.0237V39.6403H69.0645V38.4893ZM69.0645 39.6403H70.0237V40.7914H69.0645V39.6403ZM69.0645 40.7914H70.0237V41.9425H69.0645V40.7914ZM69.0645 41.9425H70.0237V43.0936H69.0645V41.9425ZM69.0645 43.0936H70.0237V44.2446H69.0645V43.0936ZM69.0645 44.2446H70.0237V45.3957H69.0645V44.2446ZM69.0645 45.3957H70.0237V46.5468H69.0645V45.3957ZM70.9829 48.8489H71.9421V50H70.9829V48.8489ZM70.9829 47.6979H71.9421V48.8489H70.9829V47.6979ZM70.9829 46.5468H71.9421V47.6979H70.9829V46.5468ZM70.9829 45.3957H71.9421V46.5468H70.9829V45.3957ZM70.9829 43.0936H71.9421V44.2446H70.9829V43.0936ZM70.9829 41.9425H71.9421V43.0936H70.9829V41.9425ZM70.9829 40.7914H71.9421V41.9425H70.9829V40.7914ZM70.9829 39.6403H71.9421V40.7914H70.9829V39.6403ZM70.9829 38.4893H71.9421V39.6403H70.9829V38.4893ZM70.9829 37.3382H71.9421V38.4893H70.9829V37.3382ZM70.9829 32.7339H71.9421V33.885H70.9829V32.7339ZM70.9829 33.885H71.9421V35.036H70.9829V33.885ZM70.9829 35.036H71.9421V36.1871H70.9829V35.036ZM70.9829 36.1871H71.9421V37.3382H70.9829V36.1871ZM70.9829 44.2446H71.9421V45.3957H70.9829V44.2446ZM71.9421 48.8489H72.9014V50H71.9421V48.8489ZM72.9014 48.8489H73.8606V50H72.9014V48.8489ZM73.8606 48.8489H74.8198V50H73.8606V48.8489ZM73.8606 47.6979H74.8198V48.8489H73.8606V47.6979ZM73.8606 46.5468H74.8198V47.6979H73.8606V46.5468ZM72.9014 46.5468H73.8606V47.6979H72.9014V46.5468ZM72.9014 47.6979H73.8606V48.8489H72.9014V47.6979ZM71.9421 47.6979H72.9014V48.8489H71.9421V47.6979ZM71.9421 46.5468H72.9014V47.6979H71.9421V46.5468ZM74.8198 46.5468H75.7791V47.6979H74.8198V46.5468ZM74.8198 47.6979H75.7791V48.8489H74.8198V47.6979ZM74.8198 48.8489H75.7791V50H74.8198V48.8489ZM75.7791 48.8489H76.7383V50H75.7791V48.8489ZM75.7791 47.6979H76.7383V48.8489H75.7791V47.6979ZM75.7791 46.5468H76.7383V47.6979H75.7791V46.5468ZM76.7383 46.5468H77.6975V47.6979H76.7383V46.5468ZM76.7383 47.6979H77.6975V48.8489H76.7383V47.6979ZM76.7383 48.8489H77.6975V50H76.7383V48.8489ZM71.9421 32.7339H72.9014V33.885H71.9421V32.7339ZM72.9014 32.7339H73.8606V33.885H72.9014V32.7339ZM73.8606 32.7339H74.8198V33.885H73.8606V32.7339ZM74.8198 32.7339H75.7791V33.885H74.8198V32.7339ZM75.7791 32.7339H76.7383V33.885H75.7791V32.7339ZM76.7383 32.7339H77.6975V33.885H76.7383V32.7339ZM76.7383 33.885H77.6975V35.036H76.7383V33.885ZM76.7383 35.036H77.6975V36.1871H76.7383V35.036ZM75.7791 35.036H76.7383V36.1871H75.7791V35.036ZM74.8198 35.036H75.7791V36.1871H74.8198V35.036ZM73.8606 35.036H74.8198V36.1871H73.8606V35.036ZM72.9014 35.036H73.8606V36.1871H72.9014V35.036ZM72.9014 33.885H73.8606V35.036H72.9014V33.885ZM71.9421 33.885H72.9014V35.036H71.9421V33.885ZM71.9421 35.036H72.9014V36.1871H71.9421V35.036ZM73.8606 33.885H74.8198V35.036H73.8606V33.885ZM74.8198 33.885H75.7791V35.036H74.8198V33.885ZM75.7791 33.885H76.7383V35.036H75.7791V33.885ZM71.9421 39.6403H72.9014V40.7914H71.9421V39.6403ZM71.9421 40.7914H72.9014V41.9425H71.9421V40.7914ZM71.9421 41.9425H72.9014V43.0936H71.9421V41.9425ZM72.9014 41.9425H73.8606V43.0936H72.9014V41.9425ZM72.9014 40.7914H73.8606V41.9425H72.9014V40.7914ZM72.9014 39.6403H73.8606V40.7914H72.9014V39.6403ZM73.8606 39.6403H74.8198V40.7914H73.8606V39.6403ZM73.8606 40.7914H74.8198V41.9425H73.8606V40.7914ZM74.8198 40.7914H75.7791V41.9425H74.8198V40.7914ZM74.8198 39.6403H75.7791V40.7914H74.8198V39.6403ZM74.8198 41.9425H75.7791V43.0936H74.8198V41.9425ZM73.8606 41.9425H74.8198V43.0936H73.8606V41.9425ZM75.7791 39.6403H76.7383V40.7914H75.7791V39.6403ZM75.7791 40.7914H76.7383V41.9425H75.7791V40.7914ZM75.7791 41.9425H76.7383V43.0936H75.7791V41.9425Z" fill="white"/>
<path d="M51.7983 32.7339H53.0933V33.885H51.7983V32.7339ZM53.0933 32.7339H54.3883V33.885H53.0933V32.7339ZM54.3883 32.7339H55.6832V33.885H54.3883V32.7339ZM55.6832 32.7339H56.9782V33.885H55.6832V32.7339ZM56.9782 32.7339H58.2731V33.885H56.9782V32.7339ZM58.2731 32.7339H59.5681V33.885H58.2731V32.7339ZM59.5681 32.7339H60.8631V33.885H59.5681V32.7339ZM60.8631 32.7339H62.158V33.885H60.8631V32.7339ZM60.8631 33.885H62.158V35.036H60.8631V33.885ZM62.158 33.885H63.453V35.036H62.158V33.885ZM59.5681 33.885H60.8631V35.036H59.5681V33.885ZM58.2731 33.885H59.5681V35.036H58.2731V33.885ZM56.9782 33.885H58.2731V35.036H56.9782V33.885ZM55.6832 33.885H56.9782V35.036H55.6832V33.885ZM54.3883 33.885H55.6832V35.036H54.3883V33.885ZM53.0933 33.885H54.3883V35.036H53.0933V33.885ZM51.7983 33.885H53.0933V35.036H51.7983V33.885ZM51.7983 35.036H53.0933V36.1871H51.7983V35.036ZM53.0933 35.036H54.3883V36.1871H53.0933V35.036ZM54.3883 35.036H55.6832V36.1871H54.3883V35.036ZM55.6832 35.036H56.9782V36.1871H55.6832V35.036ZM58.2731 35.036H59.5681V36.1871H58.2731V35.036ZM59.5681 35.036H60.8631V36.1871H59.5681V35.036ZM60.8631 35.036H62.158V36.1871H60.8631V35.036ZM62.158 35.036H63.453V36.1871H62.158V35.036ZM63.453 35.036H64.7479V36.1871H63.453V35.036ZM56.9782 35.036H58.2731V36.1871H56.9782V35.036ZM59.5681 36.1871H60.8631V37.3382H59.5681V36.1871ZM60.8631 36.1871H62.158V37.3382H60.8631V36.1871ZM63.453 36.1871H64.7479V37.3382H63.453V36.1871ZM62.158 36.1871H63.453V37.3382H62.158V36.1871ZM62.158 37.3382H63.453V38.4893H62.158V37.3382ZM62.158 39.6403H63.453V40.7914H62.158V39.6403ZM63.453 39.6403H64.7479V40.7914H63.453V39.6403ZM63.453 40.7914H64.7479V41.9425H63.453V40.7914ZM63.453 37.3382H64.7479V38.4893H63.453V37.3382ZM60.8631 39.6403H62.158V40.7914H60.8631V39.6403ZM60.8631 37.3382H62.158V38.4893H60.8631V37.3382ZM59.5681 39.6403H60.8631V40.7914H59.5681V39.6403ZM60.8631 40.7914H62.158V41.9425H60.8631V40.7914ZM62.158 40.7914H63.453V41.9425H62.158V40.7914ZM62.158 41.9425H63.453V43.0936H62.158V41.9425ZM59.5681 43.0936H60.8631V44.2446H59.5681V43.0936ZM60.8631 43.0936H62.158V44.2446H60.8631V43.0936ZM60.8631 41.9425H62.158V43.0936H60.8631V41.9425ZM59.5681 41.9425H60.8631V43.0936H59.5681V41.9425ZM59.5681 40.7914H60.8631V41.9425H59.5681V40.7914ZM58.2731 43.0936H59.5681V44.2446H58.2731V43.0936ZM56.9782 43.0936H58.2731V44.2446H56.9782V43.0936ZM55.6832 43.0936H56.9782V44.2446H55.6832V43.0936ZM55.6832 41.9425H56.9782V43.0936H55.6832V41.9425ZM56.9782 41.9425H58.2731V43.0936H56.9782V41.9425ZM56.9782 40.7914H58.2731V41.9425H56.9782V40.7914ZM58.2731 40.7914H59.5681V41.9425H58.2731V40.7914ZM55.6832 40.7914H56.9782V41.9425H55.6832V40.7914ZM58.2731 41.9425H59.5681V43.0936H58.2731V41.9425ZM53.0933 36.1871H54.3883V37.3382H53.0933V36.1871ZM54.3883 36.1871H55.6832V37.3382H54.3883V36.1871ZM54.3883 37.3382H55.6832V38.4893H54.3883V37.3382ZM54.3883 38.4893H55.6832V39.6403H54.3883V38.4893ZM54.3883 39.6403H55.6832V40.7914H54.3883V39.6403ZM53.0933 39.6403H54.3883V40.7914H53.0933V39.6403ZM51.7983 39.6403H53.0933V40.7914H51.7983V39.6403ZM51.7983 38.4893H53.0933V39.6403H51.7983V38.4893ZM51.7983 37.3382H53.0933V38.4893H51.7983V37.3382ZM51.7983 36.1871H53.0933V37.3382H51.7983V36.1871ZM53.0933 38.4893H54.3883V39.6403H53.0933V38.4893ZM53.0933 40.7914H54.3883V41.9425H53.0933V40.7914ZM53.0933 37.3382H54.3883V38.4893H53.0933V37.3382ZM51.7983 40.7914H53.0933V41.9425H51.7983V40.7914ZM51.7983 41.9425H53.0933V43.0936H51.7983V41.9425ZM53.0933 41.9425H54.3883V43.0936H53.0933V41.9425ZM54.3883 40.7914H55.6832V41.9425H54.3883V40.7914ZM54.3883 41.9425H55.6832V43.0936H54.3883V41.9425ZM54.3883 43.0936H55.6832V44.2446H54.3883V43.0936ZM54.3883 44.2446H55.6832V45.3957H54.3883V44.2446ZM54.3883 45.3957H55.6832V46.5468H54.3883V45.3957ZM54.3883 46.5468H55.6832V47.6979H54.3883V46.5468ZM54.3883 48.8489H55.6832V50H54.3883V48.8489ZM53.0933 48.8489H54.3883V50H53.0933V48.8489ZM51.7983 48.8489H53.0933V50H51.7983V48.8489ZM51.7983 47.6979H53.0933V48.8489H51.7983V47.6979ZM51.7983 46.5468H53.0933V47.6979H51.7983V46.5468ZM51.7983 45.3957H53.0933V46.5468H51.7983V45.3957ZM51.7983 44.2446H53.0933V45.3957H51.7983V44.2446ZM51.7983 43.0936H53.0933V44.2446H51.7983V43.0936ZM53.0933 43.0936H54.3883V44.2446H53.0933V43.0936ZM53.0933 44.2446H54.3883V45.3957H53.0933V44.2446ZM53.0933 45.3957H54.3883V46.5468H53.0933V45.3957ZM53.0933 46.5468H54.3883V47.6979H53.0933V46.5468ZM53.0933 47.6979H54.3883V48.8489H53.0933V47.6979ZM54.3883 47.6979H55.6832V48.8489H54.3883V47.6979ZM63.453 38.4893H64.7479V39.6403H63.453V38.4893ZM62.158 38.4893H63.453V39.6403H62.158V38.4893ZM60.8631 38.4893H62.158V39.6403H60.8631V38.4893ZM63.453 48.8489H64.7479V50H63.453V48.8489ZM63.453 47.6979H64.7479V48.8489H63.453V47.6979ZM63.453 46.5468H64.7479V47.6979H63.453V46.5468ZM62.158 46.5468H63.453V47.6979H62.158V46.5468ZM60.8631 46.5468H62.158V47.6979H60.8631V46.5468ZM60.8631 47.6979H62.158V48.8489H60.8631V47.6979ZM60.8631 48.8489H62.158V50H60.8631V48.8489ZM62.158 48.8489H63.453V50H62.158V48.8489ZM62.158 47.6979H63.453V48.8489H62.158V47.6979ZM60.8631 45.3957H62.158V46.5468H60.8631V45.3957ZM60.8631 44.2446H62.158V45.3957H60.8631V44.2446ZM59.5681 44.2446H60.8631V45.3957H59.5681V44.2446ZM63.453 45.3957H64.7479V46.5468H63.453V45.3957ZM63.453 44.2446H64.7479V45.3957H63.453V44.2446ZM62.158 45.3957H63.453V46.5468H62.158V45.3957ZM62.158 44.2446H63.453V45.3957H62.158V44.2446ZM62.158 43.0936H63.453V44.2446H62.158V43.0936Z" fill="white"/>
<path d="M40.0478 32.7339H41.2468V33.885H40.0478V32.7339ZM40.0478 33.885H41.2468V35.036H40.0478V33.885ZM40.0478 35.036H41.2468V36.1871H40.0478V35.036ZM40.0478 36.1871H41.2468V37.3382H40.0478V36.1871ZM40.0478 37.3382H41.2468V38.4893H40.0478V37.3382ZM40.0478 38.4893H41.2468V39.6403H40.0478V38.4893ZM40.0478 39.6403H41.2468V40.7914H40.0478V39.6403ZM40.0478 40.7914H41.2468V41.9425H40.0478V40.7914ZM40.0478 41.9425H41.2468V43.0936H40.0478V41.9425ZM40.0478 43.0936H41.2468V44.2446H40.0478V43.0936ZM40.0478 44.2446H41.2468V45.3957H40.0478V44.2446ZM40.0478 45.3957H41.2468V46.5468H40.0478V45.3957ZM40.0478 46.5468H41.2468V47.6979H40.0478V46.5468ZM40.0478 47.6979H41.2468V48.8489H40.0478V47.6979ZM40.0478 48.8489H41.2468V50H40.0478V48.8489ZM38.8488 48.8489H40.0478V50H38.8488V48.8489ZM38.8488 47.6979H40.0478V48.8489H38.8488V47.6979ZM38.8488 46.5468H40.0478V47.6979H38.8488V46.5468ZM38.8488 33.885H40.0478V35.036H38.8488V33.885ZM38.8488 32.7339H40.0478V33.885H38.8488V32.7339ZM38.8488 35.036H40.0478V36.1871H38.8488V35.036ZM38.8488 36.1871H40.0478V37.3382H38.8488V36.1871ZM38.8488 37.3382H40.0478V38.4893H38.8488V37.3382ZM38.8488 38.4893H40.0478V39.6403H38.8488V38.4893ZM38.8488 39.6403H40.0478V40.7914H38.8488V39.6403ZM38.8488 40.7914H40.0478V41.9425H38.8488V40.7914ZM38.8488 41.9425H40.0478V43.0936H38.8488V41.9425ZM38.8488 43.0936H40.0478V44.2446H38.8488V43.0936ZM38.8488 44.2446H40.0478V45.3957H38.8488V44.2446ZM38.8488 45.3957H40.0478V46.5468H38.8488V45.3957ZM41.2468 48.8489H42.4459V50H41.2468V48.8489ZM41.2468 47.6979H42.4459V48.8489H41.2468V47.6979ZM41.2468 46.5468H42.4459V47.6979H41.2468V46.5468ZM41.2468 45.3957H42.4459V46.5468H41.2468V45.3957ZM41.2468 43.0936H42.4459V44.2446H41.2468V43.0936ZM41.2468 41.9425H42.4459V43.0936H41.2468V41.9425ZM41.2468 40.7914H42.4459V41.9425H41.2468V40.7914ZM41.2468 39.6403H42.4459V40.7914H41.2468V39.6403ZM41.2468 38.4893H42.4459V39.6403H41.2468V38.4893ZM41.2468 37.3382H42.4459V38.4893H41.2468V37.3382ZM41.2468 32.7339H42.4459V33.885H41.2468V32.7339ZM41.2468 33.885H42.4459V35.036H41.2468V33.885ZM41.2468 35.036H42.4459V36.1871H41.2468V35.036ZM41.2468 36.1871H42.4459V37.3382H41.2468V36.1871ZM41.2468 44.2446H42.4459V45.3957H41.2468V44.2446ZM42.4459 48.8489H43.6449V50H42.4459V48.8489ZM43.6449 48.8489H44.8439V50H43.6449V48.8489ZM44.8439 48.8489H46.043V50H44.8439V48.8489ZM44.8439 47.6979H46.043V48.8489H44.8439V47.6979ZM44.8439 46.5468H46.043V47.6979H44.8439V46.5468ZM43.6449 46.5468H44.8439V47.6979H43.6449V46.5468ZM43.6449 47.6979H44.8439V48.8489H43.6449V47.6979ZM42.4459 47.6979H43.6449V48.8489H42.4459V47.6979ZM42.4459 46.5468H43.6449V47.6979H42.4459V46.5468ZM46.043 46.5468H47.242V47.6979H46.043V46.5468ZM46.043 47.6979H47.242V48.8489H46.043V47.6979ZM46.043 48.8489H47.242V50H46.043V48.8489ZM47.242 48.8489H48.441V50H47.242V48.8489ZM47.242 47.6979H48.441V48.8489H47.242V47.6979ZM47.242 46.5468H48.441V47.6979H47.242V46.5468ZM48.441 46.5468H49.6401V47.6979H48.441V46.5468ZM48.441 47.6979H49.6401V48.8489H48.441V47.6979ZM48.441 48.8489H49.6401V50H48.441V48.8489ZM42.4459 32.7339H43.6449V33.885H42.4459V32.7339ZM43.6449 32.7339H44.8439V33.885H43.6449V32.7339ZM44.8439 32.7339H46.043V33.885H44.8439V32.7339ZM46.043 32.7339H47.242V33.885H46.043V32.7339ZM47.242 32.7339H48.441V33.885H47.242V32.7339ZM48.441 32.7339H49.6401V33.885H48.441V32.7339ZM48.441 33.885H49.6401V35.036H48.441V33.885ZM48.441 35.036H49.6401V36.1871H48.441V35.036ZM47.242 35.036H48.441V36.1871H47.242V35.036ZM46.043 35.036H47.242V36.1871H46.043V35.036ZM44.8439 35.036H46.043V36.1871H44.8439V35.036ZM43.6449 35.036H44.8439V36.1871H43.6449V35.036ZM43.6449 33.885H44.8439V35.036H43.6449V33.885ZM42.4459 33.885H43.6449V35.036H42.4459V33.885ZM42.4459 35.036H43.6449V36.1871H42.4459V35.036ZM44.8439 33.885H46.043V35.036H44.8439V33.885ZM46.043 33.885H47.242V35.036H46.043V33.885ZM47.242 33.885H48.441V35.036H47.242V33.885ZM42.4459 39.6403H43.6449V40.7914H42.4459V39.6403ZM42.4459 40.7914H43.6449V41.9425H42.4459V40.7914ZM42.4459 41.9425H43.6449V43.0936H42.4459V41.9425ZM43.6449 41.9425H44.8439V43.0936H43.6449V41.9425ZM43.6449 40.7914H44.8439V41.9425H43.6449V40.7914ZM43.6449 39.6403H44.8439V40.7914H43.6449V39.6403ZM44.8439 39.6403H46.043V40.7914H44.8439V39.6403ZM44.8439 40.7914H46.043V41.9425H44.8439V40.7914ZM46.043 40.7914H47.242V41.9425H46.043V40.7914ZM46.043 39.6403H47.242V40.7914H46.043V39.6403ZM46.043 41.9425H47.242V43.0936H46.043V41.9425ZM44.8439 41.9425H46.043V43.0936H44.8439V41.9425ZM47.242 39.6403H48.441V40.7914H47.242V39.6403ZM47.242 40.7914H48.441V41.9425H47.242V40.7914ZM47.242 41.9425H48.441V43.0936H47.242V41.9425Z" fill="white"/>
<path d="M29.1366 39.6403H30.2157V40.7914H29.1366V39.6403ZM30.2157 39.6403H31.2948V40.7914H30.2157V39.6403ZM31.2948 39.6403H32.374V40.7914H31.2948V39.6403ZM32.374 39.6403H33.4531V40.7914H32.374V39.6403ZM33.4531 39.6403H34.5322V40.7914H33.4531V39.6403ZM33.4531 40.7914H34.5322V41.9425H33.4531V40.7914ZM33.4531 41.9425H34.5322V43.0936H33.4531V41.9425ZM32.374 41.9425H33.4531V43.0936H32.374V41.9425ZM31.2948 41.9425H32.374V43.0936H31.2948V41.9425ZM30.2157 41.9425H31.2948V43.0936H30.2157V41.9425ZM29.1366 41.9425H30.2157V43.0936H29.1366V41.9425ZM28.0574 41.9425H29.1366V43.0936H28.0574V41.9425ZM26.9783 41.9425H28.0574V43.0936H26.9783V41.9425ZM28.0574 40.7914H29.1366V41.9425H28.0574V40.7914ZM29.1366 40.7914H30.2157V41.9425H29.1366V40.7914ZM30.2157 40.7914H31.2948V41.9425H30.2157V40.7914ZM31.2948 40.7914H32.374V41.9425H31.2948V40.7914ZM32.374 40.7914H33.4531V41.9425H32.374V40.7914ZM28.0574 39.6403H29.1366V40.7914H28.0574V39.6403ZM28.0574 38.4893H29.1366V39.6403H28.0574V38.4893ZM28.0574 37.3382H29.1366V38.4893H28.0574V37.3382ZM28.0574 36.1871H29.1366V37.3382H28.0574V36.1871ZM28.0574 35.036H29.1366V36.1871H28.0574V35.036ZM26.9783 33.885H28.0574V35.036H26.9783V33.885ZM26.9783 32.7339H28.0574V33.885H26.9783V32.7339ZM28.0574 32.7339H29.1366V33.885H28.0574V32.7339ZM28.0574 33.885H29.1366V35.036H28.0574V33.885ZM25.8992 32.7339H26.9783V33.885H25.8992V32.7339ZM25.8992 33.885H26.9783V35.036H25.8992V33.885ZM25.8992 35.036H26.9783V36.1871H25.8992V35.036ZM25.8992 36.1871H26.9783V37.3382H25.8992V36.1871ZM25.8992 37.3382H26.9783V38.4893H25.8992V37.3382ZM25.8992 38.4893H26.9783V39.6403H25.8992V38.4893ZM25.8992 39.6403H26.9783V40.7914H25.8992V39.6403ZM25.8992 40.7914H26.9783V41.9425H25.8992V40.7914ZM25.8992 41.9425H26.9783V43.0936H25.8992V41.9425ZM26.9783 40.7914H28.0574V41.9425H26.9783V40.7914ZM26.9783 39.6403H28.0574V40.7914H26.9783V39.6403ZM26.9783 38.4893H28.0574V39.6403H26.9783V38.4893ZM26.9783 37.3382H28.0574V38.4893H26.9783V37.3382ZM26.9783 36.1871H28.0574V37.3382H26.9783V36.1871ZM26.9783 35.036H28.0574V36.1871H26.9783V35.036ZM26.9783 43.0936H28.0574V44.2446H26.9783V43.0936ZM26.9783 44.2446H28.0574V45.3957H26.9783V44.2446ZM26.9783 45.3957H28.0574V46.5468H26.9783V45.3957ZM26.9783 46.5468H28.0574V47.6979H26.9783V46.5468ZM25.8992 45.3957H26.9783V46.5468H25.8992V45.3957ZM25.8992 44.2446H26.9783V45.3957H25.8992V44.2446ZM25.8992 43.0936H26.9783V44.2446H25.8992V43.0936ZM28.0574 45.3957H29.1366V46.5468H28.0574V45.3957ZM28.0574 46.5468H29.1366V47.6979H28.0574V46.5468ZM28.0574 44.2446H29.1366V45.3957H28.0574V44.2446ZM28.0574 43.0936H29.1366V44.2446H28.0574V43.0936ZM28.0574 47.6979H29.1366V48.8489H28.0574V47.6979ZM28.0574 48.8489H29.1366V50H28.0574V48.8489ZM26.9783 48.8489H28.0574V50H26.9783V48.8489ZM26.9783 47.6979H28.0574V48.8489H26.9783V47.6979ZM25.8992 47.6979H26.9783V48.8489H25.8992V47.6979ZM25.8992 46.5468H26.9783V47.6979H25.8992V46.5468ZM25.8992 48.8489H26.9783V50H25.8992V48.8489ZM33.4531 32.7339H34.5322V33.885H33.4531V32.7339ZM34.5322 32.7339H35.6114V33.885H34.5322V32.7339ZM35.6114 32.7339H36.6905V33.885H35.6114V32.7339ZM35.6114 33.885H36.6905V35.036H35.6114V33.885ZM35.6114 35.036H36.6905V36.1871H35.6114V35.036ZM35.6114 36.1871H36.6905V37.3382H35.6114V36.1871ZM35.6114 37.3382H36.6905V38.4893H35.6114V37.3382ZM35.6114 38.4893H36.6905V39.6403H35.6114V38.4893ZM34.5322 38.4893H35.6114V39.6403H34.5322V38.4893ZM34.5322 37.3382H35.6114V38.4893H34.5322V37.3382ZM34.5322 36.1871H35.6114V37.3382H34.5322V36.1871ZM34.5322 35.036H35.6114V36.1871H34.5322V35.036ZM34.5322 33.885H35.6114V35.036H34.5322V33.885ZM33.4531 33.885H34.5322V35.036H33.4531V33.885ZM33.4531 35.036H34.5322V36.1871H33.4531V35.036ZM33.4531 36.1871H34.5322V37.3382H33.4531V36.1871ZM33.4531 37.3382H34.5322V38.4893H33.4531V37.3382ZM33.4531 38.4893H34.5322V39.6403H33.4531V38.4893ZM33.4531 43.0936H34.5322V44.2446H33.4531V43.0936ZM34.5322 43.0936H35.6114V44.2446H34.5322V43.0936ZM34.5322 44.2446H35.6114V45.3957H34.5322V44.2446ZM34.5322 45.3957H35.6114V46.5468H34.5322V45.3957ZM34.5322 46.5468H35.6114V47.6979H34.5322V46.5468ZM33.4531 46.5468H34.5322V47.6979H33.4531V46.5468ZM33.4531 45.3957H34.5322V46.5468H33.4531V45.3957ZM33.4531 44.2446H34.5322V45.3957H33.4531V44.2446ZM33.4531 47.6979H34.5322V48.8489H33.4531V47.6979ZM33.4531 48.8489H34.5322V50H33.4531V48.8489ZM34.5322 48.8489H35.6114V50H34.5322V48.8489ZM35.6114 48.8489H36.6905V50H35.6114V48.8489ZM35.6114 47.6979H36.6905V48.8489H35.6114V47.6979ZM35.6114 46.5468H36.6905V47.6979H35.6114V46.5468ZM35.6114 45.3957H36.6905V46.5468H35.6114V45.3957ZM35.6114 44.2446H36.6905V45.3957H35.6114V44.2446ZM35.6114 43.0936H36.6905V44.2446H35.6114V43.0936ZM35.6114 41.9425H36.6905V43.0936H35.6114V41.9425ZM35.6114 40.7914H36.6905V41.9425H35.6114V40.7914ZM34.5322 40.7914H35.6114V41.9425H34.5322V40.7914ZM34.5322 39.6403H35.6114V40.7914H34.5322V39.6403ZM35.6114 39.6403H36.6905V40.7914H35.6114V39.6403ZM34.5322 41.9425H35.6114V43.0936H34.5322V41.9425ZM34.5322 47.6979H35.6114V48.8489H34.5322V47.6979Z" fill="white"/>
<path d="M16.5467 48.8489H17.7457V50H16.5467V48.8489ZM17.7457 48.8489H18.9448V50H17.7457V48.8489ZM18.9448 48.8489H20.1438V50H18.9448V48.8489ZM18.9448 47.6979H20.1438V48.8489H18.9448V47.6979ZM18.9448 46.5468H20.1438V47.6979H18.9448V46.5468ZM18.9448 45.3957H20.1438V46.5468H18.9448V45.3957ZM18.9448 44.2446H20.1438V45.3957H18.9448V44.2446ZM18.9448 43.0936H20.1438V44.2446H18.9448V43.0936ZM18.9448 41.9425H20.1438V43.0936H18.9448V41.9425ZM18.9448 40.7914H20.1438V41.9425H18.9448V40.7914ZM18.9448 39.6403H20.1438V40.7914H18.9448V39.6403ZM18.9448 38.4893H20.1438V39.6403H18.9448V38.4893ZM18.9448 37.3382H20.1438V38.4893H18.9448V37.3382ZM18.9448 36.1871H20.1438V37.3382H18.9448V36.1871ZM17.7457 36.1871H18.9448V37.3382H17.7457V36.1871ZM17.7457 35.036H18.9448V36.1871H17.7457V35.036ZM18.9448 35.036H20.1438V36.1871H18.9448V35.036ZM16.5467 35.036H17.7457V36.1871H16.5467V35.036ZM16.5467 39.6403H17.7457V40.7914H16.5467V39.6403ZM16.5467 40.7914H17.7457V41.9425H16.5467V40.7914ZM16.5467 41.9425H17.7457V43.0936H16.5467V41.9425ZM16.5467 43.0936H17.7457V44.2446H16.5467V43.0936ZM16.5467 44.2446H17.7457V45.3957H16.5467V44.2446ZM17.7457 45.3957H18.9448V46.5468H17.7457V45.3957ZM17.7457 46.5468H18.9448V47.6979H17.7457V46.5468ZM17.7457 47.6979H18.9448V48.8489H17.7457V47.6979ZM16.5467 47.6979H17.7457V48.8489H16.5467V47.6979ZM16.5467 46.5468H17.7457V47.6979H16.5467V46.5468ZM16.5467 45.3957H17.7457V46.5468H16.5467V45.3957ZM17.7457 40.7914H18.9448V41.9425H17.7457V40.7914ZM17.7457 39.6403H18.9448V40.7914H17.7457V39.6403ZM17.7457 38.4893H18.9448V39.6403H17.7457V38.4893ZM17.7457 37.3382H18.9448V38.4893H17.7457V37.3382ZM16.5467 37.3382H17.7457V38.4893H16.5467V37.3382ZM16.5467 38.4893H17.7457V39.6403H16.5467V38.4893ZM17.7457 44.2446H18.9448V45.3957H17.7457V44.2446ZM17.7457 43.0936H18.9448V44.2446H17.7457V43.0936ZM17.7457 41.9425H18.9448V43.0936H17.7457V41.9425ZM16.5467 36.1871H17.7457V37.3382H16.5467V36.1871ZM16.5467 33.885H17.7457V35.036H16.5467V33.885ZM17.7457 33.885H18.9448V35.036H17.7457V33.885ZM18.9448 33.885H20.1438V35.036H18.9448V33.885ZM18.9448 32.7339H20.1438V33.885H18.9448V32.7339ZM17.7457 32.7339H18.9448V33.885H17.7457V32.7339ZM16.5467 32.7339H17.7457V33.885H16.5467V32.7339ZM15.3477 32.7339H16.5467V33.885H15.3477V32.7339ZM14.1486 32.7339H15.3477V33.885H14.1486V32.7339ZM14.1486 33.885H15.3477V35.036H14.1486V33.885ZM14.1486 35.036H15.3477V36.1871H14.1486V35.036ZM15.3477 33.885H16.5467V35.036H15.3477V33.885ZM15.3477 35.036H16.5467V36.1871H15.3477V35.036ZM20.1438 32.7339H21.3428V33.885H20.1438V32.7339ZM21.3428 32.7339H22.5419V33.885H21.3428V32.7339ZM21.3428 33.885H22.5419V35.036H21.3428V33.885ZM21.3428 35.036H22.5419V36.1871H21.3428V35.036ZM20.1438 35.036H21.3428V36.1871H20.1438V35.036ZM20.1438 33.885H21.3428V35.036H20.1438V33.885ZM22.5419 32.7339H23.7409V33.885H22.5419V32.7339ZM22.5419 33.885H23.7409V35.036H22.5419V33.885ZM22.5419 35.036H23.7409V36.1871H22.5419V35.036ZM12.9496 32.7339H14.1486V33.885H12.9496V32.7339ZM12.9496 33.885H14.1486V35.036H12.9496V33.885ZM12.9496 35.036H14.1486V36.1871H12.9496V35.036Z" fill="white"/>
<path d="M1.19904 32.7339H2.39807V33.885H1.19904V32.7339ZM1.19904 33.885H2.39807V35.036H1.19904V33.885ZM1.19904 35.036H2.39807V36.1871H1.19904V35.036ZM1.19904 36.1871H2.39807V37.3382H1.19904V36.1871ZM1.19904 37.3382H2.39807V38.4893H1.19904V37.3382ZM1.19904 38.4893H2.39807V39.6403H1.19904V38.4893ZM1.19904 39.6403H2.39807V40.7914H1.19904V39.6403ZM1.19904 40.7914H2.39807V41.9425H1.19904V40.7914ZM1.19904 41.9425H2.39807V43.0936H1.19904V41.9425ZM1.19904 43.0936H2.39807V44.2446H1.19904V43.0936ZM1.19904 44.2446H2.39807V45.3957H1.19904V44.2446ZM1.19904 45.3957H2.39807V46.5468H1.19904V45.3957ZM1.19904 46.5468H2.39807V47.6979H1.19904V46.5468ZM1.19904 47.6979H2.39807V48.8489H1.19904V47.6979ZM1.19904 48.8489H2.39807V50H1.19904V48.8489ZM0 48.8489H1.19904V50H0V48.8489ZM0 47.6979H1.19904V48.8489H0V47.6979ZM0 46.5468H1.19904V47.6979H0V46.5468ZM0 33.885H1.19904V35.036H0V33.885ZM0 32.7339H1.19904V33.885H0V32.7339ZM0 35.036H1.19904V36.1871H0V35.036ZM0 36.1871H1.19904V37.3382H0V36.1871ZM0 37.3382H1.19904V38.4893H0V37.3382ZM0 38.4893H1.19904V39.6403H0V38.4893ZM0 39.6403H1.19904V40.7914H0V39.6403ZM0 40.7914H1.19904V41.9425H0V40.7914ZM0 41.9425H1.19904V43.0936H0V41.9425ZM0 43.0936H1.19904V44.2446H0V43.0936ZM0 44.2446H1.19904V45.3957H0V44.2446ZM0 45.3957H1.19904V46.5468H0V45.3957ZM2.39807 48.8489H3.59711V50H2.39807V48.8489ZM2.39807 47.6979H3.59711V48.8489H2.39807V47.6979ZM2.39807 46.5468H3.59711V47.6979H2.39807V46.5468ZM2.39807 45.3957H3.59711V46.5468H2.39807V45.3957ZM2.39807 43.0936H3.59711V44.2446H2.39807V43.0936ZM2.39807 41.9425H3.59711V43.0936H2.39807V41.9425ZM2.39807 40.7914H3.59711V41.9425H2.39807V40.7914ZM2.39807 39.6403H3.59711V40.7914H2.39807V39.6403ZM2.39807 38.4893H3.59711V39.6403H2.39807V38.4893ZM2.39807 37.3382H3.59711V38.4893H2.39807V37.3382ZM2.39807 32.7339H3.59711V33.885H2.39807V32.7339ZM2.39807 33.885H3.59711V35.036H2.39807V33.885ZM2.39807 35.036H3.59711V36.1871H2.39807V35.036ZM2.39807 36.1871H3.59711V37.3382H2.39807V36.1871ZM2.39807 44.2446H3.59711V45.3957H2.39807V44.2446ZM3.59711 48.8489H4.79615V50H3.59711V48.8489ZM4.79615 48.8489H5.99518V50H4.79615V48.8489ZM5.99518 48.8489H7.19422V50H5.99518V48.8489ZM5.99518 47.6979H7.19422V48.8489H5.99518V47.6979ZM5.99518 46.5468H7.19422V47.6979H5.99518V46.5468ZM4.79615 46.5468H5.99518V47.6979H4.79615V46.5468ZM4.79615 47.6979H5.99518V48.8489H4.79615V47.6979ZM3.59711 47.6979H4.79615V48.8489H3.59711V47.6979ZM3.59711 46.5468H4.79615V47.6979H3.59711V46.5468ZM7.19422 46.5468H8.39326V47.6979H7.19422V46.5468ZM7.19422 47.6979H8.39326V48.8489H7.19422V47.6979ZM7.19422 48.8489H8.39326V50H7.19422V48.8489ZM8.39326 48.8489H9.59229V50H8.39326V48.8489ZM8.39326 47.6979H9.59229V48.8489H8.39326V47.6979ZM8.39326 46.5468H9.59229V47.6979H8.39326V46.5468ZM9.59229 46.5468H10.7913V47.6979H9.59229V46.5468ZM9.59229 47.6979H10.7913V48.8489H9.59229V47.6979ZM9.59229 48.8489H10.7913V50H9.59229V48.8489ZM3.59711 32.7339H4.79615V33.885H3.59711V32.7339ZM4.79615 32.7339H5.99518V33.885H4.79615V32.7339ZM5.99518 32.7339H7.19422V33.885H5.99518V32.7339ZM7.19422 32.7339H8.39326V33.885H7.19422V32.7339ZM8.39326 32.7339H9.59229V33.885H8.39326V32.7339ZM9.59229 32.7339H10.7913V33.885H9.59229V32.7339ZM9.59229 33.885H10.7913V35.036H9.59229V33.885ZM9.59229 35.036H10.7913V36.1871H9.59229V35.036ZM8.39326 35.036H9.59229V36.1871H8.39326V35.036ZM7.19422 35.036H8.39326V36.1871H7.19422V35.036ZM5.99518 35.036H7.19422V36.1871H5.99518V35.036ZM4.79615 35.036H5.99518V36.1871H4.79615V35.036ZM4.79615 33.885H5.99518V35.036H4.79615V33.885ZM3.59711 33.885H4.79615V35.036H3.59711V33.885ZM3.59711 35.036H4.79615V36.1871H3.59711V35.036ZM5.99518 33.885H7.19422V35.036H5.99518V33.885ZM7.19422 33.885H8.39326V35.036H7.19422V33.885ZM8.39326 33.885H9.59229V35.036H8.39326V33.885ZM3.59711 39.6403H4.79615V40.7914H3.59711V39.6403ZM3.59711 40.7914H4.79615V41.9425H3.59711V40.7914ZM3.59711 41.9425H4.79615V43.0936H3.59711V41.9425ZM4.79615 41.9425H5.99518V43.0936H4.79615V41.9425ZM4.79615 40.7914H5.99518V41.9425H4.79615V40.7914ZM4.79615 39.6403H5.99518V40.7914H4.79615V39.6403ZM5.99518 39.6403H7.19422V40.7914H5.99518V39.6403ZM5.99518 40.7914H7.19422V41.9425H5.99518V40.7914ZM7.19422 40.7914H8.39326V41.9425H7.19422V40.7914ZM7.19422 39.6403H8.39326V40.7914H7.19422V39.6403ZM7.19422 41.9425H8.39326V43.0936H7.19422V41.9425ZM5.99518 41.9425H7.19422V43.0936H5.99518V41.9425ZM8.39326 39.6403H9.59229V40.7914H8.39326V39.6403ZM8.39326 40.7914H9.59229V41.9425H8.39326V40.7914ZM8.39326 41.9425H9.59229V43.0936H8.39326V41.9425Z" fill="white"/>
<path d="M96.8822 0H98.8007V1.8705H96.8822V0ZM96.8822 1.8705H98.8007V3.74099H96.8822V1.8705ZM96.8822 3.74099H98.8007V5.61149H96.8822V3.74099ZM96.8822 5.61149H98.8007V7.48199H96.8822V5.61149ZM96.8822 7.48199H98.8007V9.35249H96.8822V7.48199ZM96.8822 9.35249H98.8007V11.223H96.8822V9.35249ZM96.8822 11.223H98.8007V13.0935H96.8822V11.223ZM96.8822 13.0935H98.8007V14.964H96.8822V13.0935ZM96.8822 14.964H98.8007V16.8345H96.8822V14.964ZM96.8822 16.8345H98.8007V18.705H96.8822V16.8345ZM96.8822 18.705H98.8007V20.5755H96.8822V18.705ZM96.8822 20.5755H98.8007V22.446H96.8822V20.5755ZM96.8822 22.446H98.8007V24.3165H96.8822V22.446ZM96.8822 24.3165H98.8007V26.187H96.8822V24.3165ZM96.8822 26.187H98.8007V28.0575H96.8822V26.187ZM94.9637 26.187H96.8822V28.0575H94.9637V26.187ZM94.9637 24.3165H96.8822V26.187H94.9637V24.3165ZM94.9637 22.446H96.8822V24.3165H94.9637V22.446ZM94.9637 1.8705H96.8822V3.74099H94.9637V1.8705ZM94.9637 0H96.8822V1.8705H94.9637V0ZM94.9637 3.74099H96.8822V5.61149H94.9637V3.74099ZM94.9637 5.61149H96.8822V7.48199H94.9637V5.61149ZM94.9637 7.48199H96.8822V9.35249H94.9637V7.48199ZM94.9637 9.35249H96.8822V11.223H94.9637V9.35249ZM94.9637 11.223H96.8822V13.0935H94.9637V11.223ZM94.9637 13.0935H96.8822V14.964H94.9637V13.0935ZM94.9637 14.964H96.8822V16.8345H94.9637V14.964ZM94.9637 16.8345H96.8822V18.705H94.9637V16.8345ZM94.9637 18.705H96.8822V20.5755H94.9637V18.705ZM94.9637 20.5755H96.8822V22.446H94.9637V20.5755ZM98.8007 26.187H100.719V28.0575H98.8007V26.187ZM98.8007 24.3165H100.719V26.187H98.8007V24.3165ZM98.8007 22.446H100.719V24.3165H98.8007V22.446ZM98.8007 20.5755H100.719V22.446H98.8007V20.5755ZM98.8007 16.8345H100.719V18.705H98.8007V16.8345ZM98.8007 14.964H100.719V16.8345H98.8007V14.964ZM98.8007 13.0935H100.719V14.964H98.8007V13.0935ZM98.8007 11.223H100.719V13.0935H98.8007V11.223ZM98.8007 9.35249H100.719V11.223H98.8007V9.35249ZM98.8007 7.48199H100.719V9.35249H98.8007V7.48199ZM98.8007 0H100.719V1.8705H98.8007V0ZM98.8007 1.8705H100.719V3.74099H98.8007V1.8705ZM98.8007 3.74099H100.719V5.61149H98.8007V3.74099ZM98.8007 5.61149H100.719V7.48199H98.8007V5.61149ZM98.8007 18.705H100.719V20.5755H98.8007V18.705ZM100.719 26.187H102.638V28.0575H100.719V26.187ZM102.638 26.187H104.556V28.0575H102.638V26.187ZM104.556 26.187H106.474V28.0575H104.556V26.187ZM104.556 24.3165H106.474V26.187H104.556V24.3165ZM104.556 22.446H106.474V24.3165H104.556V22.446ZM102.638 22.446H104.556V24.3165H102.638V22.446ZM102.638 24.3165H104.556V26.187H102.638V24.3165ZM100.719 24.3165H102.638V26.187H100.719V24.3165ZM100.719 22.446H102.638V24.3165H100.719V22.446ZM106.474 22.446H108.393V24.3165H106.474V22.446ZM106.474 24.3165H108.393V26.187H106.474V24.3165ZM106.474 26.187H108.393V28.0575H106.474V26.187ZM108.393 26.187H110.311V28.0575H108.393V26.187ZM108.393 24.3165H110.311V26.187H108.393V24.3165ZM108.393 22.446H110.311V24.3165H108.393V22.446ZM110.311 22.446H112.23V24.3165H110.311V22.446ZM110.311 24.3165H112.23V26.187H110.311V24.3165ZM110.311 26.187H112.23V28.0575H110.311V26.187ZM100.719 0H102.638V1.8705H100.719V0ZM102.638 0H104.556V1.8705H102.638V0ZM104.556 0H106.474V1.8705H104.556V0ZM106.474 0H108.393V1.8705H106.474V0ZM108.393 0H110.311V1.8705H108.393V0ZM110.311 0H112.23V1.8705H110.311V0ZM110.311 1.8705H112.23V3.74099H110.311V1.8705ZM110.311 3.74099H112.23V5.61149H110.311V3.74099ZM108.393 3.74099H110.311V5.61149H108.393V3.74099ZM106.474 3.74099H108.393V5.61149H106.474V3.74099ZM104.556 3.74099H106.474V5.61149H104.556V3.74099ZM102.638 3.74099H104.556V5.61149H102.638V3.74099ZM102.638 1.8705H104.556V3.74099H102.638V1.8705ZM100.719 1.8705H102.638V3.74099H100.719V1.8705ZM100.719 3.74099H102.638V5.61149H100.719V3.74099ZM104.556 1.8705H106.474V3.74099H104.556V1.8705ZM106.474 1.8705H108.393V3.74099H106.474V1.8705ZM108.393 1.8705H110.311V3.74099H108.393V1.8705ZM100.719 11.223H102.638V13.0935H100.719V11.223ZM100.719 13.0935H102.638V14.964H100.719V13.0935ZM100.719 14.964H102.638V16.8345H100.719V14.964ZM102.638 14.964H104.556V16.8345H102.638V14.964ZM102.638 13.0935H104.556V14.964H102.638V13.0935ZM102.638 11.223H104.556V13.0935H102.638V11.223ZM104.556 11.223H106.474V13.0935H104.556V11.223ZM104.556 13.0935H106.474V14.964H104.556V13.0935ZM106.474 13.0935H108.393V14.964H106.474V13.0935ZM106.474 11.223H108.393V13.0935H106.474V11.223ZM106.474 14.964H108.393V16.8345H106.474V14.964ZM104.556 14.964H106.474V16.8345H104.556V14.964ZM108.393 11.223H110.311V13.0935H108.393V11.223ZM108.393 13.0935H110.311V14.964H108.393V13.0935ZM108.393 14.964H110.311V16.8345H108.393V14.964Z" fill="white"/>
<path d="M73.381 0H75.2994V1.8705H73.381V0ZM75.2994 0H77.2179V1.8705H75.2994V0ZM75.2994 1.8705H77.2179V3.74099H75.2994V1.8705ZM77.2179 1.8705H79.1364V3.74099H77.2179V1.8705ZM77.2179 3.74099H79.1364V5.61149H77.2179V3.74099ZM77.2179 0H79.1364V1.8705H77.2179V0ZM73.381 1.8705H75.2994V3.74099H73.381V1.8705ZM73.381 3.74099H75.2994V5.61149H73.381V3.74099ZM73.381 5.61149H75.2994V7.48199H73.381V5.61149ZM73.381 7.48199H75.2994V9.35249H73.381V7.48199ZM75.2994 7.48199H77.2179V9.35249H75.2994V7.48199ZM75.2994 5.61149H77.2179V7.48199H75.2994V5.61149ZM77.2179 5.61149H79.1364V7.48199H77.2179V5.61149ZM75.2994 3.74099H77.2179V5.61149H75.2994V3.74099ZM77.2179 7.48199H79.1364V9.35249H77.2179V7.48199ZM77.2179 9.35249H79.1364V11.223H77.2179V9.35249ZM75.2994 9.35249H77.2179V11.223H75.2994V9.35249ZM75.2994 11.223H77.2179V13.0935H75.2994V11.223ZM73.381 9.35249H75.2994V11.223H73.381V9.35249ZM73.381 11.223H75.2994V13.0935H73.381V11.223ZM73.381 13.0935H75.2994V14.964H73.381V13.0935ZM73.381 14.964H75.2994V16.8345H73.381V14.964ZM73.381 16.8345H75.2994V18.705H73.381V16.8345ZM73.381 18.705H75.2994V20.5755H73.381V18.705ZM73.381 20.5755H75.2994V22.446H73.381V20.5755ZM73.381 26.187H75.2994V28.0575H73.381V26.187ZM73.381 24.3165H75.2994V26.187H73.381V24.3165ZM73.381 22.446H75.2994V24.3165H73.381V22.446ZM75.2994 22.446H77.2179V24.3165H75.2994V22.446ZM77.2179 22.446H79.1364V24.3165H77.2179V22.446ZM77.2179 24.3165H79.1364V26.187H77.2179V24.3165ZM77.2179 26.187H79.1364V28.0575H77.2179V26.187ZM75.2994 26.187H77.2179V28.0575H75.2994V26.187ZM75.2994 24.3165H77.2179V26.187H75.2994V24.3165ZM84.8917 20.5755H86.8102V22.446H84.8917V20.5755ZM84.8917 22.446H86.8102V24.3165H84.8917V22.446ZM84.8917 24.3165H86.8102V26.187H84.8917V24.3165ZM84.8917 26.187H86.8102V28.0575H84.8917V26.187ZM86.8102 26.187H88.7286V28.0575H86.8102V26.187ZM88.7286 26.187H90.6471V28.0575H88.7286V26.187ZM88.7286 24.3165H90.6471V26.187H88.7286V24.3165ZM88.7286 22.446H90.6471V24.3165H88.7286V22.446ZM86.8102 22.446H88.7286V24.3165H86.8102V22.446ZM86.8102 24.3165H88.7286V26.187H86.8102V24.3165ZM86.8102 20.5755H88.7286V22.446H86.8102V20.5755ZM88.7286 20.5755H90.6471V22.446H88.7286V20.5755ZM88.7286 18.705H90.6471V20.5755H88.7286V18.705ZM88.7286 16.8345H90.6471V18.705H88.7286V16.8345ZM86.8102 16.8345H88.7286V18.705H86.8102V16.8345ZM86.8102 18.705H88.7286V20.5755H86.8102V18.705ZM84.8917 18.705H86.8102V20.5755H84.8917V18.705ZM84.8917 16.8345H86.8102V18.705H84.8917V16.8345ZM82.9733 16.8345H84.8917V18.705H82.9733V16.8345ZM84.8917 14.964H86.8102V16.8345H84.8917V14.964ZM86.8102 14.964H88.7286V16.8345H86.8102V14.964ZM82.9733 14.964H84.8917V16.8345H82.9733V14.964ZM81.0548 14.964H82.9733V16.8345H81.0548V14.964ZM79.1364 14.964H81.0548V16.8345H79.1364V14.964ZM77.2179 20.5755H79.1364V22.446H77.2179V20.5755ZM77.2179 18.705H79.1364V20.5755H77.2179V18.705ZM77.2179 16.8345H79.1364V18.705H77.2179V16.8345ZM77.2179 14.964H79.1364V16.8345H77.2179V14.964ZM75.2994 14.964H77.2179V16.8345H75.2994V14.964ZM75.2994 16.8345H77.2179V18.705H75.2994V16.8345ZM75.2994 18.705H77.2179V20.5755H75.2994V18.705ZM75.2994 20.5755H77.2179V22.446H75.2994V20.5755ZM75.2994 13.0935H77.2179V14.964H75.2994V13.0935ZM77.2179 13.0935H79.1364V14.964H77.2179V13.0935ZM79.1364 13.0935H81.0548V14.964H79.1364V13.0935ZM81.0548 13.0935H82.9733V14.964H81.0548V13.0935ZM82.9733 13.0935H84.8917V14.964H82.9733V13.0935ZM84.8917 13.0935H86.8102V14.964H84.8917V13.0935ZM82.9733 11.223H84.8917V13.0935H82.9733V11.223ZM81.0548 11.223H82.9733V13.0935H81.0548V11.223ZM79.1364 11.223H81.0548V13.0935H79.1364V11.223ZM77.2179 11.223H79.1364V13.0935H77.2179V11.223ZM84.8917 11.223H86.8102V13.0935H84.8917V11.223ZM86.8102 11.223H88.7286V13.0935H86.8102V11.223ZM84.8917 9.35249H86.8102V11.223H84.8917V9.35249ZM82.9733 9.35249H84.8917V11.223H82.9733V9.35249ZM86.8102 9.35249H88.7286V11.223H86.8102V9.35249ZM88.7286 9.35249H90.6471V11.223H88.7286V9.35249ZM88.7286 7.48199H90.6471V9.35249H88.7286V7.48199ZM88.7286 5.61149H90.6471V7.48199H88.7286V5.61149ZM88.7286 3.74099H90.6471V5.61149H88.7286V3.74099ZM84.8917 0H86.8102V1.8705H84.8917V0ZM86.8102 0H88.7286V1.8705H86.8102V0ZM88.7286 0H90.6471V1.8705H88.7286V0ZM88.7286 1.8705H90.6471V3.74099H88.7286V1.8705ZM86.8102 1.8705H88.7286V3.74099H86.8102V1.8705ZM84.8917 1.8705H86.8102V3.74099H84.8917V1.8705ZM84.8917 3.74099H86.8102V5.61149H84.8917V3.74099ZM84.8917 5.61149H86.8102V7.48199H84.8917V5.61149ZM84.8917 7.48199H86.8102V9.35249H84.8917V7.48199ZM86.8102 7.48199H88.7286V9.35249H86.8102V7.48199ZM86.8102 5.61149H88.7286V7.48199H86.8102V5.61149ZM86.8102 3.74099H88.7286V5.61149H86.8102V3.74099Z" fill="white"/>
<path d="M57.4099 0H59.3523V1.8705H57.4099V0ZM59.3523 0H61.2948V1.8705H59.3523V0ZM59.3523 1.8705H61.2948V3.74099H59.3523V1.8705ZM61.2948 1.8705H63.2372V3.74099H61.2948V1.8705ZM57.4099 1.8705H59.3523V3.74099H57.4099V1.8705ZM55.4675 1.8705H57.4099V3.74099H55.4675V1.8705ZM55.4675 3.74099H57.4099V5.61149H55.4675V3.74099ZM53.525 3.74099H55.4675V5.61149H53.525V3.74099ZM57.4099 3.74099H59.3523V5.61149H57.4099V3.74099ZM59.3523 3.74099H61.2948V5.61149H59.3523V3.74099ZM61.2948 3.74099H63.2372V5.61149H61.2948V3.74099ZM63.2372 3.74099H65.1796V5.61149H63.2372V3.74099ZM63.2372 5.61149H65.1796V7.48199H63.2372V5.61149ZM65.1796 5.61149H67.1221V7.48199H65.1796V5.61149ZM61.2948 5.61149H63.2372V7.48199H61.2948V5.61149ZM59.3523 5.61149H61.2948V7.48199H59.3523V5.61149ZM57.4099 5.61149H59.3523V7.48199H57.4099V5.61149ZM55.4675 5.61149H57.4099V7.48199H55.4675V5.61149ZM53.525 5.61149H55.4675V7.48199H53.525V5.61149ZM51.5826 5.61149H53.525V7.48199H51.5826V5.61149ZM55.4675 7.48199H57.4099V9.35249H55.4675V7.48199ZM53.525 7.48199H55.4675V9.35249H53.525V7.48199ZM51.5826 7.48199H53.525V9.35249H51.5826V7.48199ZM49.6401 7.48199H51.5826V9.35249H49.6401V7.48199ZM49.6401 9.35249H51.5826V11.223H49.6401V9.35249ZM49.6401 11.223H51.5826V13.0935H49.6401V11.223ZM51.5826 11.223H53.525V13.0935H51.5826V11.223ZM51.5826 9.35249H53.525V11.223H51.5826V9.35249ZM53.525 9.35249H55.4675V11.223H53.525V9.35249ZM53.525 11.223H55.4675V13.0935H53.525V11.223ZM53.525 13.0935H55.4675V14.964H53.525V13.0935ZM51.5826 13.0935H53.525V14.964H51.5826V13.0935ZM49.6401 13.0935H51.5826V14.964H49.6401V13.0935ZM49.6401 14.964H51.5826V16.8345H49.6401V14.964ZM51.5826 14.964H53.525V16.8345H51.5826V14.964ZM53.525 14.964H55.4675V16.8345H53.525V14.964ZM55.4675 14.964H57.4099V16.8345H55.4675V14.964ZM57.4099 14.964H59.3523V16.8345H57.4099V14.964ZM59.3523 14.964H61.2948V16.8345H59.3523V14.964ZM61.2948 14.964H63.2372V16.8345H61.2948V14.964ZM63.2372 13.0935H65.1796V14.964H63.2372V13.0935ZM65.1796 13.0935H67.1221V14.964H65.1796V13.0935ZM65.1796 14.964H67.1221V16.8345H65.1796V14.964ZM63.2372 14.964H65.1796V16.8345H63.2372V14.964ZM67.1221 14.964H69.0645V16.8345H67.1221V14.964ZM67.1221 13.0935H69.0645V14.964H67.1221V13.0935ZM67.1221 11.223H69.0645V13.0935H67.1221V11.223ZM67.1221 9.35249H69.0645V11.223H67.1221V9.35249ZM67.1221 7.48199H69.0645V9.35249H67.1221V7.48199ZM65.1796 7.48199H67.1221V9.35249H65.1796V7.48199ZM63.2372 7.48199H65.1796V9.35249H63.2372V7.48199ZM61.2948 7.48199H63.2372V9.35249H61.2948V7.48199ZM65.1796 9.35249H67.1221V11.223H65.1796V9.35249ZM65.1796 11.223H67.1221V13.0935H65.1796V11.223ZM63.2372 11.223H65.1796V13.0935H63.2372V11.223ZM63.2372 9.35249H65.1796V11.223H63.2372V9.35249ZM49.6401 16.8345H51.5826V18.705H49.6401V16.8345ZM51.5826 16.8345H53.525V18.705H51.5826V16.8345ZM53.525 16.8345H55.4675V18.705H53.525V16.8345ZM55.4675 16.8345H57.4099V18.705H55.4675V16.8345ZM57.4099 16.8345H59.3523V18.705H57.4099V16.8345ZM59.3523 16.8345H61.2948V18.705H59.3523V16.8345ZM61.2948 16.8345H63.2372V18.705H61.2948V16.8345ZM63.2372 16.8345H65.1796V18.705H63.2372V16.8345ZM65.1796 16.8345H67.1221V18.705H65.1796V16.8345ZM67.1221 16.8345H69.0645V18.705H67.1221V16.8345ZM67.1221 18.705H69.0645V20.5755H67.1221V18.705ZM65.1796 18.705H67.1221V20.5755H65.1796V18.705ZM63.2372 18.705H65.1796V20.5755H63.2372V18.705ZM61.2948 18.705H63.2372V20.5755H61.2948V18.705ZM59.3523 18.705H61.2948V20.5755H59.3523V18.705ZM57.4099 18.705H59.3523V20.5755H57.4099V18.705ZM55.4675 18.705H57.4099V20.5755H55.4675V18.705ZM51.5826 18.705H53.525V20.5755H51.5826V18.705ZM49.6401 18.705H51.5826V20.5755H49.6401V18.705ZM53.525 18.705H55.4675V20.5755H53.525V18.705ZM53.525 20.5755H55.4675V22.446H53.525V20.5755ZM53.525 22.446H55.4675V24.3165H53.525V22.446ZM53.525 24.3165H55.4675V26.187H53.525V24.3165ZM53.525 26.187H55.4675V28.0575H53.525V26.187ZM51.5826 26.187H53.525V28.0575H51.5826V26.187ZM49.6401 26.187H51.5826V28.0575H49.6401V26.187ZM49.6401 24.3165H51.5826V26.187H49.6401V24.3165ZM49.6401 22.446H51.5826V24.3165H49.6401V22.446ZM49.6401 20.5755H51.5826V22.446H49.6401V20.5755ZM51.5826 20.5755H53.525V22.446H51.5826V20.5755ZM51.5826 22.446H53.525V24.3165H51.5826V22.446ZM51.5826 24.3165H53.525V26.187H51.5826V24.3165ZM63.2372 20.5755H65.1796V22.446H63.2372V20.5755ZM63.2372 22.446H65.1796V24.3165H63.2372V22.446ZM63.2372 24.3165H65.1796V26.187H63.2372V24.3165ZM63.2372 26.187H65.1796V28.0575H63.2372V26.187ZM65.1796 26.187H67.1221V28.0575H65.1796V26.187ZM67.1221 26.187H69.0645V28.0575H67.1221V26.187ZM67.1221 24.3165H69.0645V26.187H67.1221V24.3165ZM67.1221 22.446H69.0645V24.3165H67.1221V22.446ZM67.1221 20.5755H69.0645V22.446H67.1221V20.5755ZM65.1796 20.5755H67.1221V22.446H65.1796V20.5755ZM65.1796 22.446H67.1221V24.3165H65.1796V22.446ZM65.1796 24.3165H67.1221V26.187H65.1796V24.3165Z" fill="white"/>
<path d="M25.8992 0H27.665V1.8705H25.8992V0ZM27.665 0H29.4309V1.8705H27.665V0ZM29.4309 0H31.1967V1.8705H29.4309V0ZM31.1967 0H32.9626V1.8705H31.1967V0ZM31.1967 1.8705H32.9626V3.74099H31.1967V1.8705ZM31.1967 3.74099H32.9626V5.61149H31.1967V3.74099ZM31.1967 5.61149H32.9626V7.48199H31.1967V5.61149ZM25.8992 1.8705H27.665V3.74099H25.8992V1.8705ZM25.8992 3.74099H27.665V5.61149H25.8992V3.74099ZM25.8992 5.61149H27.665V7.48199H25.8992V5.61149ZM25.8992 9.35249H27.665V11.223H25.8992V9.35249ZM25.8992 11.223H27.665V13.0935H25.8992V11.223ZM25.8992 13.0935H27.665V14.964H25.8992V13.0935ZM25.8992 14.964H27.665V16.8345H25.8992V14.964ZM25.8992 16.8345H27.665V18.705H25.8992V16.8345ZM27.665 18.705H29.4309V20.5755H27.665V18.705ZM27.665 20.5755H29.4309V22.446H27.665V20.5755ZM27.665 22.446H29.4309V24.3165H27.665V22.446ZM27.665 24.3165H29.4309V26.187H27.665V24.3165ZM27.665 26.187H29.4309V28.0575H27.665V26.187ZM25.8992 7.48199H27.665V9.35249H25.8992V7.48199ZM25.8992 18.705H27.665V20.5755H25.8992V18.705ZM25.8992 20.5755H27.665V22.446H25.8992V20.5755ZM25.8992 22.446H27.665V24.3165H25.8992V22.446ZM25.8992 24.3165H27.665V26.187H25.8992V24.3165ZM25.8992 26.187H27.665V28.0575H25.8992V26.187ZM29.4309 26.187H31.1967V28.0575H29.4309V26.187ZM29.4309 24.3165H31.1967V26.187H29.4309V24.3165ZM29.4309 22.446H31.1967V24.3165H29.4309V22.446ZM29.4309 20.5755H31.1967V22.446H29.4309V20.5755ZM29.4309 16.8345H31.1967V18.705H29.4309V16.8345ZM29.4309 14.964H31.1967V16.8345H29.4309V14.964ZM29.4309 11.223H31.1967V13.0935H29.4309V11.223ZM29.4309 9.35249H31.1967V11.223H29.4309V9.35249ZM29.4309 7.48199H31.1967V9.35249H29.4309V7.48199ZM29.4309 13.0935H31.1967V14.964H29.4309V13.0935ZM29.4309 18.705H31.1967V20.5755H29.4309V18.705ZM27.665 16.8345H29.4309V18.705H27.665V16.8345ZM27.665 14.964H29.4309V16.8345H27.665V14.964ZM27.665 13.0935H29.4309V14.964H27.665V13.0935ZM27.665 11.223H29.4309V13.0935H27.665V11.223ZM27.665 9.35249H29.4309V11.223H27.665V9.35249ZM27.665 7.48199H29.4309V9.35249H27.665V7.48199ZM27.665 5.61149H29.4309V7.48199H27.665V5.61149ZM27.665 3.74099H29.4309V5.61149H27.665V3.74099ZM27.665 1.8705H29.4309V3.74099H27.665V1.8705ZM29.4309 1.8705H31.1967V3.74099H29.4309V1.8705ZM29.4309 3.74099H31.1967V5.61149H29.4309V3.74099ZM29.4309 5.61149H31.1967V7.48199H29.4309V5.61149ZM31.1967 7.48199H32.9626V9.35249H31.1967V7.48199ZM31.1967 9.35249H32.9626V11.223H31.1967V9.35249ZM32.9626 9.35249H34.7284V11.223H32.9626V9.35249ZM32.9626 11.223H34.7284V13.0935H32.9626V11.223ZM31.1967 11.223H32.9626V13.0935H31.1967V11.223ZM32.9626 7.48199H34.7284V9.35249H32.9626V7.48199ZM32.9626 5.61149H34.7284V7.48199H32.9626V5.61149ZM32.9626 3.74099H34.7284V5.61149H32.9626V3.74099ZM32.9626 13.0935H34.7284V14.964H32.9626V13.0935ZM34.7284 13.0935H36.4943V14.964H34.7284V13.0935ZM34.7284 11.223H36.4943V13.0935H34.7284V11.223ZM34.7284 9.35249H36.4943V11.223H34.7284V9.35249ZM34.7284 7.48199H36.4943V9.35249H34.7284V7.48199ZM32.9626 14.964H34.7284V16.8345H32.9626V14.964ZM34.7284 14.964H36.4943V16.8345H34.7284V14.964ZM36.4943 14.964H38.2601V16.8345H36.4943V14.964ZM36.4943 13.0935H38.2601V14.964H36.4943V13.0935ZM36.4943 11.223H38.2601V13.0935H36.4943V11.223ZM34.7284 18.705H36.4943V20.5755H34.7284V18.705ZM34.7284 16.8345H36.4943V18.705H34.7284V16.8345ZM36.4943 16.8345H38.2601V18.705H36.4943V16.8345ZM36.4943 18.705H38.2601V20.5755H36.4943V18.705ZM38.2601 16.8345H40.026V18.705H38.2601V16.8345ZM38.2601 14.964H40.026V16.8345H38.2601V14.964ZM38.2601 18.705H40.026V20.5755H38.2601V18.705ZM38.2601 20.5755H40.026V22.446H38.2601V20.5755ZM36.4943 20.5755H38.2601V22.446H36.4943V20.5755ZM36.4943 22.446H38.2601V24.3165H36.4943V22.446ZM38.2601 22.446H40.026V24.3165H38.2601V22.446ZM38.2601 24.3165H40.026V26.187H38.2601V24.3165ZM38.2601 26.187H40.026V28.0575H38.2601V26.187ZM40.026 26.187H41.7919V28.0575H40.026V26.187ZM41.7919 26.187H43.5577V28.0575H41.7919V26.187ZM43.5577 26.187H45.3236V28.0575H43.5577V26.187ZM43.5577 24.3165H45.3236V26.187H43.5577V24.3165ZM41.7919 22.446H43.5577V24.3165H41.7919V22.446ZM41.7919 20.5755H43.5577V22.446H41.7919V20.5755ZM41.7919 18.705H43.5577V20.5755H41.7919V18.705ZM41.7919 16.8345H43.5577V18.705H41.7919V16.8345ZM41.7919 14.964H43.5577V16.8345H41.7919V14.964ZM43.5577 18.705H45.3236V20.5755H43.5577V18.705ZM43.5577 20.5755H45.3236V22.446H43.5577V20.5755ZM43.5577 22.446H45.3236V24.3165H43.5577V22.446ZM41.7919 24.3165H43.5577V26.187H41.7919V24.3165ZM40.026 24.3165H41.7919V26.187H40.026V24.3165ZM40.026 22.446H41.7919V24.3165H40.026V22.446ZM40.026 20.5755H41.7919V22.446H40.026V20.5755ZM40.026 18.705H41.7919V20.5755H40.026V18.705ZM40.026 16.8345H41.7919V18.705H40.026V16.8345ZM40.026 14.964H41.7919V16.8345H40.026V14.964ZM40.026 13.0935H41.7919V14.964H40.026V13.0935ZM41.7919 13.0935H43.5577V14.964H41.7919V13.0935ZM43.5577 16.8345H45.3236V18.705H43.5577V16.8345ZM43.5577 14.964H45.3236V16.8345H43.5577V14.964ZM43.5577 13.0935H45.3236V14.964H43.5577V13.0935ZM43.5577 11.223H45.3236V13.0935H43.5577V11.223ZM43.5577 9.35249H45.3236V11.223H43.5577V9.35249ZM43.5577 7.48199H45.3236V9.35249H43.5577V7.48199ZM41.7919 7.48199H43.5577V9.35249H41.7919V7.48199ZM41.7919 5.61149H43.5577V7.48199H41.7919V5.61149ZM40.026 7.48199H41.7919V9.35249H40.026V7.48199ZM40.026 9.35249H41.7919V11.223H40.026V9.35249ZM40.026 11.223H41.7919V13.0935H40.026V11.223ZM41.7919 11.223H43.5577V13.0935H41.7919V11.223ZM41.7919 9.35249H43.5577V11.223H41.7919V9.35249ZM40.026 0H41.7919V1.8705H40.026V0ZM41.7919 0H43.5577V1.8705H41.7919V0ZM43.5577 0H45.3236V1.8705H43.5577V0ZM43.5577 1.8705H45.3236V3.74099H43.5577V1.8705ZM43.5577 3.74099H45.3236V5.61149H43.5577V3.74099ZM43.5577 5.61149H45.3236V7.48199H43.5577V5.61149ZM41.7919 3.74099H43.5577V5.61149H41.7919V3.74099ZM41.7919 1.8705H43.5577V3.74099H41.7919V1.8705ZM40.026 5.61149H41.7919V7.48199H40.026V5.61149ZM40.026 3.74099H41.7919V5.61149H40.026V3.74099ZM40.026 1.8705H41.7919V3.74099H40.026V1.8705Z" fill="white"/>
<path d="M15.6965 0H17.6585V1.8705H15.6965V0ZM13.7344 0H15.6965V1.8705H13.7344V0ZM11.7724 0H13.7344V1.8705H11.7724V0ZM7.84824 0H9.8103V1.8705H7.84824V0ZM5.88618 0H7.84824V1.8705H5.88618V0ZM3.92412 0H5.88618V1.8705H3.92412V0ZM9.8103 0H11.7724V1.8705H9.8103V0ZM9.8103 1.8705H11.7724V3.74099H9.8103V1.8705ZM11.7724 1.8705H13.7344V3.74099H11.7724V1.8705ZM13.7344 1.8705H15.6965V3.74099H13.7344V1.8705ZM15.6965 1.8705H17.6585V3.74099H15.6965V1.8705ZM17.6585 1.8705H19.6206V3.74099H17.6585V1.8705ZM7.84824 1.8705H9.8103V3.74099H7.84824V1.8705ZM5.88618 1.8705H7.84824V3.74099H5.88618V1.8705ZM3.92412 1.8705H5.88618V3.74099H3.92412V1.8705ZM1.96206 1.8705H3.92412V3.74099H1.96206V1.8705ZM0 3.74099H1.96206V5.61149H0V3.74099ZM1.96206 3.74099H3.92412V5.61149H1.96206V3.74099ZM3.92412 3.74099H5.88618V5.61149H3.92412V3.74099ZM5.88618 3.74099H7.84824V5.61149H5.88618V3.74099ZM7.84824 3.74099H9.8103V5.61149H7.84824V3.74099ZM9.8103 3.74099H11.7724V5.61149H9.8103V3.74099ZM11.7724 3.74099H13.7344V5.61149H11.7724V3.74099ZM13.7344 3.74099H15.6965V5.61149H13.7344V3.74099ZM15.6965 3.74099H17.6585V5.61149H15.6965V3.74099ZM17.6585 3.74099H19.6206V5.61149H17.6585V3.74099ZM19.6206 3.74099H21.5827V5.61149H19.6206V3.74099ZM19.6206 5.61149H21.5827V7.48199H19.6206V5.61149ZM19.6206 7.48199H21.5827V9.35249H19.6206V7.48199ZM17.6585 7.48199H19.6206V9.35249H17.6585V7.48199ZM17.6585 5.61149H19.6206V7.48199H17.6585V5.61149ZM15.6965 7.48199H17.6585V9.35249H15.6965V7.48199ZM15.6965 5.61149H17.6585V7.48199H15.6965V5.61149ZM13.7344 5.61149H15.6965V7.48199H13.7344V5.61149ZM5.88618 5.61149H7.84824V7.48199H5.88618V5.61149ZM3.92412 5.61149H5.88618V7.48199H3.92412V5.61149ZM1.96206 5.61149H3.92412V7.48199H1.96206V5.61149ZM0 5.61149H1.96206V7.48199H0V5.61149ZM0 7.48199H1.96206V9.35249H0V7.48199ZM1.96206 7.48199H3.92412V9.35249H1.96206V7.48199ZM1.96206 9.35249H3.92412V11.223H1.96206V9.35249ZM3.92412 7.48199H5.88618V9.35249H3.92412V7.48199ZM3.92412 9.35249H5.88618V11.223H3.92412V9.35249ZM5.88618 9.35249H7.84824V11.223H5.88618V9.35249ZM0 9.35249H1.96206V11.223H0V9.35249ZM0 11.223H1.96206V13.0935H0V11.223ZM1.96206 11.223H3.92412V13.0935H1.96206V11.223ZM1.96206 13.0935H3.92412V14.964H1.96206V13.0935ZM3.92412 13.0935H5.88618V14.964H3.92412V13.0935ZM3.92412 11.223H5.88618V13.0935H3.92412V11.223ZM5.88618 11.223H7.84824V13.0935H5.88618V11.223ZM5.88618 13.0935H7.84824V14.964H5.88618V13.0935ZM3.92412 14.964H5.88618V16.8345H3.92412V14.964ZM5.88618 14.964H7.84824V16.8345H5.88618V14.964ZM7.84824 14.964H9.8103V16.8345H7.84824V14.964ZM9.8103 14.964H11.7724V16.8345H9.8103V14.964ZM11.7724 14.964H13.7344V16.8345H11.7724V14.964ZM11.7724 13.0935H13.7344V14.964H11.7724V13.0935ZM13.7344 13.0935H15.6965V14.964H13.7344V13.0935ZM15.6965 13.0935H17.6585V14.964H15.6965V13.0935ZM15.6965 11.223H17.6585V13.0935H15.6965V11.223ZM13.7344 11.223H15.6965V13.0935H13.7344V11.223ZM11.7724 11.223H13.7344V13.0935H11.7724V11.223ZM9.8103 11.223H11.7724V13.0935H9.8103V11.223ZM9.8103 13.0935H11.7724V14.964H9.8103V13.0935ZM7.84824 13.0935H9.8103V14.964H7.84824V13.0935ZM7.84824 11.223H9.8103V13.0935H7.84824V11.223ZM17.6585 13.0935H19.6206V14.964H17.6585V13.0935ZM17.6585 14.964H19.6206V16.8345H17.6585V14.964ZM15.6965 14.964H17.6585V16.8345H15.6965V14.964ZM15.6965 16.8345H17.6585V18.705H15.6965V16.8345ZM13.7344 16.8345H15.6965V18.705H13.7344V16.8345ZM13.7344 14.964H15.6965V16.8345H13.7344V14.964ZM17.6585 16.8345H19.6206V18.705H17.6585V16.8345ZM19.6206 16.8345H21.5827V18.705H19.6206V16.8345ZM19.6206 14.964H21.5827V16.8345H19.6206V14.964ZM19.6206 18.705H21.5827V20.5755H19.6206V18.705ZM19.6206 20.5755H21.5827V22.446H19.6206V20.5755ZM19.6206 22.446H21.5827V24.3165H19.6206V22.446ZM17.6585 22.446H19.6206V24.3165H17.6585V22.446ZM17.6585 24.3165H19.6206V26.187H17.6585V24.3165ZM15.6965 24.3165H17.6585V26.187H15.6965V24.3165ZM15.6965 22.446H17.6585V24.3165H15.6965V22.446ZM13.7344 22.446H15.6965V24.3165H13.7344V22.446ZM13.7344 20.5755H15.6965V22.446H13.7344V20.5755ZM15.6965 20.5755H17.6585V22.446H15.6965V20.5755ZM15.6965 18.705H17.6585V20.5755H15.6965V18.705ZM17.6585 18.705H19.6206V20.5755H17.6585V18.705ZM17.6585 20.5755H19.6206V22.446H17.6585V20.5755ZM0 18.705H1.96206V20.5755H0V18.705ZM0 20.5755H1.96206V22.446H0V20.5755ZM1.96206 20.5755H3.92412V22.446H1.96206V20.5755ZM1.96206 18.705H3.92412V20.5755H1.96206V18.705ZM3.92412 18.705H5.88618V20.5755H3.92412V18.705ZM3.92412 20.5755H5.88618V22.446H3.92412V20.5755ZM0 22.446H1.96206V24.3165H0V22.446ZM1.96206 22.446H3.92412V24.3165H1.96206V22.446ZM5.88618 20.5755H7.84824V22.446H5.88618V20.5755ZM5.88618 22.446H7.84824V24.3165H5.88618V22.446ZM3.92412 22.446H5.88618V24.3165H3.92412V22.446ZM3.92412 24.3165H5.88618V26.187H3.92412V24.3165ZM1.96206 24.3165H3.92412V26.187H1.96206V24.3165ZM3.92412 26.187H5.88618V28.0575H3.92412V26.187ZM5.88618 26.187H7.84824V28.0575H5.88618V26.187ZM7.84824 26.187H9.8103V28.0575H7.84824V26.187ZM9.8103 26.187H11.7724V28.0575H9.8103V26.187ZM11.7724 26.187H13.7344V28.0575H11.7724V26.187ZM13.7344 26.187H15.6965V28.0575H13.7344V26.187ZM15.6965 26.187H17.6585V28.0575H15.6965V26.187ZM13.7344 24.3165H15.6965V26.187H13.7344V24.3165ZM11.7724 24.3165H13.7344V26.187H11.7724V24.3165ZM9.8103 24.3165H11.7724V26.187H9.8103V24.3165ZM9.8103 22.446H11.7724V24.3165H9.8103V22.446ZM7.84824 22.446H9.8103V24.3165H7.84824V22.446ZM11.7724 22.446H13.7344V24.3165H11.7724V22.446ZM7.84824 24.3165H9.8103V26.187H7.84824V24.3165ZM5.88618 24.3165H7.84824V26.187H5.88618V24.3165Z" fill="white"/>
</svg>
