<svg width="63" height="42" viewBox="0 0 63 42" fill="none" xmlns="http://www.w3.org/2000/svg">
<path d="M11.2177 2.81262L50.9999 2.81268V5.6164L53.789 5.61767V8.42267L56.5768 8.42394V11.2277H59.3979V30.794L56.5768 30.7788V33.5825H53.789V36.3888H50.9999V39.1938L11.2177 39.1937V36.39H8.42863V33.585H5.64081V30.7787H2.81976V11.2276H5.64081V8.42389H8.42863V5.61762H11.2177V2.81262Z" fill="#05A38C"/>
<path d="M14.0363 0.00634766H11.2166V2.81008H14.0363V0.00634766Z" fill="#5DD5A2"/>
<path d="M11.2165 2.81262H8.39673V5.61635H11.2165V2.81262Z" fill="#5DD5A2"/>
<path d="M8.42866 5.61768H5.60889V8.4214H8.42866V5.61768Z" fill="#5DD5A2"/>
<path d="M5.63953 8.42383H2.81976V11.2276H5.63953V8.42383Z" fill="#5DD5A2"/>
<path d="M2.81977 11.2277H0V14.0314H2.81977V11.2277Z" fill="#5DD5A2"/>
<path d="M2.81977 14.0187H0V16.8224H2.81977V14.0187Z" fill="#5DD5A2"/>
<path d="M2.81977 16.8097H0V19.6134H2.81977V16.8097Z" fill="#5DD5A2"/>
<path d="M2.81977 19.6021H0V22.4058H2.81977V19.6021Z" fill="#5DD5A2"/>
<path d="M14.0363 39.1963H11.2166V42H14.0363V39.1963Z" fill="#5DD5A2"/>
<path d="M16.856 39.1963H14.0363V42H16.856V39.1963Z" fill="#5DD5A2"/>
<path d="M19.6769 39.1963H16.8572V42H19.6769V39.1963Z" fill="#5DD5A2"/>
<path d="M22.4968 39.1963H19.677V42H22.4968V39.1963Z" fill="#5DD5A2"/>
<path d="M25.3166 39.1963H22.4968V42H25.3166V39.1963Z" fill="#5DD5A2"/>
<path d="M28.1364 39.1963H25.3167V42H28.1364V39.1963Z" fill="#5DD5A2"/>
<path d="M30.9575 39.1963H28.1377V42H30.9575V39.1963Z" fill="#5DD5A2"/>
<path d="M33.7772 39.1963H30.9574V42H33.7772V39.1963Z" fill="#5DD5A2"/>
<path d="M36.5969 39.1963H33.7771V42H36.5969V39.1963Z" fill="#5DD5A2"/>
<path d="M39.418 39.1963H36.5983V42H39.418V39.1963Z" fill="#5DD5A2"/>
<path d="M42.2377 39.1963H39.418V42H42.2377V39.1963Z" fill="#5DD5A2"/>
<path d="M45.0576 39.1963H42.2378V42H45.0576V39.1963Z" fill="#5DD5A2"/>
<path d="M47.8773 39.1963H45.0575V42H47.8773V39.1963Z" fill="#5DD5A2"/>
<path d="M50.9999 39.1963H47.8785V42H50.9999V39.1963Z" fill="#5DD5A2"/>
<path d="M16.856 0H14.0363V2.80373H16.856V0Z" fill="#5DD5A2"/>
<path d="M19.6769 0H16.8572V2.80373H19.6769V0Z" fill="#5DD5A2"/>
<path d="M22.4968 0H19.677V2.80373H22.4968V0Z" fill="#5DD5A2"/>
<path d="M25.3166 0H22.4968V2.80373H25.3166V0Z" fill="#5DD5A2"/>
<path d="M28.1364 0H25.3167V2.80373H28.1364V0Z" fill="#5DD5A2"/>
<path d="M30.9575 0H28.1377V2.80373H30.9575V0Z" fill="#5DD5A2"/>
<path d="M33.7772 0H30.9574V2.80373H33.7772V0Z" fill="#5DD5A2"/>
<path d="M36.5969 0H33.7771V2.80373H36.5969V0Z" fill="#5DD5A2"/>
<path d="M39.418 0H36.5983V2.80373H39.418V0Z" fill="#5DD5A2"/>
<path d="M42.2377 0H39.418V2.80373H42.2377V0Z" fill="#5DD5A2"/>
<path d="M45.0576 0H42.2378V2.80373H45.0576V0Z" fill="#5DD5A2"/>
<path d="M47.8773 0H45.0575V2.80373H47.8773V0Z" fill="#5DD5A2"/>
<path d="M50.9999 0H47.8785V2.80373H50.9999V0Z" fill="#5DD5A2"/>
<path d="M11.2165 36.39H8.39673V39.1937H11.2165V36.39Z" fill="#5DD5A2"/>
<path d="M8.42866 33.585H5.60889V36.3887H8.42866V33.585Z" fill="#5DD5A2"/>
<path d="M5.63953 30.7788H2.81976V33.5825H5.63953V30.7788Z" fill="#5DD5A2"/>
<path d="M2.81977 27.9902H0V30.794H2.81977V27.9902Z" fill="#5DD5A2"/>
<path d="M2.81977 25.1992H0V28.0029H2.81977V25.1992Z" fill="#5DD5A2"/>
<path d="M2.81977 22.407H0V25.2107H2.81977V22.407Z" fill="#5DD5A2"/>
<path d="M53.8198 2.81262H51V5.61635H53.8198V2.81262Z" fill="#5DD5A2"/>
<path d="M56.6088 5.61768H53.7891V8.4214H56.6088V5.61768Z" fill="#5DD5A2"/>
<path d="M59.3967 8.42383H56.5769V11.2276H59.3967V8.42383Z" fill="#5DD5A2"/>
<path d="M62.2177 11.2277H59.3979V14.0314H62.2177V11.2277Z" fill="#5DD5A2"/>
<path d="M62.2177 14.0187H59.3979V16.8224H62.2177V14.0187Z" fill="#5DD5A2"/>
<path d="M62.2177 16.8097H59.3979V19.6134H62.2177V16.8097Z" fill="#5DD5A2"/>
<path d="M62.2177 19.6021H59.3979V22.4058H62.2177V19.6021Z" fill="#5DD5A2"/>
<path d="M53.8198 36.39H51V39.1937H53.8198V36.39Z" fill="#5DD5A2"/>
<path d="M56.6088 33.585H53.7891V36.3887H56.6088V33.585Z" fill="#5DD5A2"/>
<path d="M59.3967 30.7788H56.5769V33.5825H59.3967V30.7788Z" fill="#5DD5A2"/>
<path d="M62.2177 27.9902H59.3979V30.794H62.2177V27.9902Z" fill="#5DD5A2"/>
<path d="M62.2177 25.1992H59.3979V28.0029H62.2177V25.1992Z" fill="#5DD5A2"/>
<path d="M62.2177 22.407H59.3979V25.2107H62.2177V22.407Z" fill="#5DD5A2"/>
<g clip-path="url(#clip0_0_392)">
<path d="M18 33.3534V31.7066H19.6941V35H18V33.3534ZM43.3192 33.3534V31.7066H45.0002V35H43.3192V33.3534ZM19.6972 30.0696L19.7006 28.4454H21.3815L21.3848 30.0696L21.3882 31.6938H19.6939L19.6972 30.0696ZM41.6252 30.0663V28.4389H43.3061V31.6938H41.6252V30.0663ZM21.3882 27.6061V26.7858L22.2292 26.789L23.0702 26.7924L23.0696 27.6061L23.0691 28.4199L22.2285 28.4233L21.3878 28.4266L21.3883 27.6063L21.3882 27.6061ZM39.9311 27.6061V26.786H41.612V28.4262H39.9311V27.6061ZM23.0884 26.7699C23.0849 26.761 23.0837 26.3906 23.0854 25.9465L23.0887 25.1392L23.926 25.1359L24.7634 25.1327L24.7599 25.9561L24.7565 26.7795L23.9255 26.7827C23.2677 26.7853 23.0931 26.7827 23.0882 26.7699H23.0884ZM28.1207 26.7772C28.116 26.7726 28.1119 26.4005 28.1119 25.9506V25.1325H24.7763V23.4794H28.1119V25.1325H34.8883V23.4794L36.5594 23.4827L38.2305 23.4859V25.1262L36.5594 25.1294L34.8884 25.1327L34.8851 25.9559L34.8818 26.7793L31.5057 26.7825C29.6488 26.7844 28.1258 26.7818 28.1209 26.7772H28.1207ZM38.2458 26.7774C38.2408 26.7726 38.2368 26.4007 38.2368 25.9508V25.1327H39.9179L39.9144 25.9561L39.9111 26.7795L39.0827 26.7827C38.6271 26.7846 38.2503 26.782 38.2456 26.7774H38.2458ZM23.091 23.4712C23.0861 23.4664 23.0822 22.7225 23.0822 21.8179V20.1732L23.926 20.1766L24.7698 20.1799V23.4732L23.935 23.4765C23.4758 23.4784 23.0961 23.476 23.0912 23.4712H23.091ZM38.2401 21.8297L38.2435 20.1799L39.0806 20.1766L39.9178 20.1732V23.4796H38.2366L38.24 21.8297H38.2401ZM21.3969 20.1648C21.392 20.1602 21.3882 18.6839 21.3882 16.8843V13.6121L22.2288 13.6155L23.0695 13.6187V20.1638C23.0695 20.1756 21.4094 20.1768 21.3973 20.1648H21.3969ZM39.9311 16.8928V13.6122H41.612V20.1734H39.9311V16.8928ZM23.0822 11.9528V10.3062H24.7632V13.5996H23.0822V11.953V11.9528ZM38.2368 11.9528V10.3062H39.9178V13.5996H38.2368V11.953V11.9528ZM24.7851 10.2977C24.7802 10.293 24.7763 9.92093 24.7763 9.47102V8.6531H28.1121L28.1086 9.47649L28.1053 10.2999L26.4496 10.3031C25.539 10.3048 24.7898 10.3026 24.7851 10.2978V10.2977ZM34.8968 10.2977C34.8921 10.2929 34.8881 9.92093 34.8881 9.47102V8.6531H36.5548C37.6526 8.6531 38.223 8.65755 38.226 8.66593C38.2282 8.67294 38.2288 9.04488 38.2268 9.4924L38.2233 10.3062H36.5645C35.6521 10.3062 34.9016 10.3023 34.8968 10.2977ZM28.1251 7.82664V7H34.8884L34.8851 7.82339L34.8818 8.64678L31.5034 8.65003L28.1252 8.65328V7.82681L28.1251 7.82664Z" fill="#E6F4E6"/>
</g>
<defs>
<clipPath id="clip0_0_392">
<rect width="27" height="28" fill="white" transform="translate(18 7)"/>
</clipPath>
</defs>
</svg>
