<svg width="219" height="129" viewBox="0 0 219 129" fill="none" xmlns="http://www.w3.org/2000/svg">
<g clip-path="url(#clip0_47_33355)">
<rect width="219" height="129" rx="8" fill="#1D2C29"/>
<g clip-path="url(#clip1_47_33355)">
<path d="M52.8353 1.84229H38.7499C38.2084 1.84229 37.7695 2.28119 37.7695 2.82262V16.91C37.7695 17.4514 38.2084 17.8903 38.7499 17.8903H52.8353C53.3767 17.8903 53.8156 17.4514 53.8156 16.91V2.82262C53.8156 2.28119 53.3767 1.84229 52.8353 1.84229Z" fill="#24453A"/>
<path d="M34.7188 1.84229H20.6334C20.092 1.84229 19.6531 2.28119 19.6531 2.82262V16.91C19.6531 17.4514 20.092 17.8903 20.6334 17.8903H34.7188C35.2603 17.8903 35.6992 17.4514 35.6992 16.91V2.82262C35.6992 2.28119 35.2603 1.84229 34.7188 1.84229Z" fill="#1D2C29"/>
<path d="M16.6024 1.84229H2.51695C1.97553 1.84229 1.53662 2.28119 1.53662 2.82262V16.91C1.53662 17.4514 1.97553 17.8903 2.51695 17.8903H16.6024C17.1438 17.8903 17.5827 17.4514 17.5827 16.91V2.82262C17.5827 2.28119 17.1438 1.84229 16.6024 1.84229Z" fill="#24453A"/>
<path d="M70.9538 1.84229H56.8664C56.325 1.84229 55.8861 2.28119 55.8861 2.82262V16.91C55.8861 17.4514 56.325 17.8903 56.8664 17.8903H70.9538C71.4952 17.8903 71.9341 17.4514 71.9341 16.91V2.82262C71.9341 2.28119 71.4952 1.84229 70.9538 1.84229Z" fill="#1D2C29"/>
<path d="M125.303 1.84229H111.218C110.677 1.84229 110.238 2.28119 110.238 2.82262V16.91C110.238 17.4514 110.677 17.8903 111.218 17.8903H125.303C125.845 17.8903 126.284 17.4514 126.284 16.91V2.82262C126.284 2.28119 125.845 1.84229 125.303 1.84229Z" fill="#24453A"/>
<path d="M107.187 1.84229H93.1014C92.56 1.84229 92.1211 2.28119 92.1211 2.82262V16.91C92.1211 17.4514 92.56 17.8903 93.1014 17.8903H107.187C107.728 17.8903 108.167 17.4514 108.167 16.91V2.82262C108.167 2.28119 107.728 1.84229 107.187 1.84229Z" fill="#1D2C29"/>
<path d="M89.0704 1.84229H74.983C74.4416 1.84229 74.0027 2.28119 74.0027 2.82262V16.91C74.0027 17.4514 74.4416 17.8903 74.983 17.8903H89.0704C89.6118 17.8903 90.0507 17.4514 90.0507 16.91V2.82262C90.0507 2.28119 89.6118 1.84229 89.0704 1.84229Z" fill="#24453A"/>
<path d="M143.422 1.84229H129.335C128.793 1.84229 128.354 2.28119 128.354 2.82262V16.91C128.354 17.4514 128.793 17.8903 129.335 17.8903H143.422C143.963 17.8903 144.402 17.4514 144.402 16.91V2.82262C144.402 2.28119 143.963 1.84229 143.422 1.84229Z" fill="#1D2C29"/>
<path d="M197.772 1.84229H183.684C183.143 1.84229 182.704 2.28119 182.704 2.82262V16.91C182.704 17.4514 183.143 17.8903 183.684 17.8903H197.772C198.313 17.8903 198.752 17.4514 198.752 16.91V2.82262C198.752 2.28119 198.313 1.84229 197.772 1.84229Z" fill="#24453A"/>
<path d="M179.655 1.84229H165.568C165.026 1.84229 164.587 2.28119 164.587 2.82262V16.91C164.587 17.4514 165.026 17.8903 165.568 17.8903H179.655C180.196 17.8903 180.635 17.4514 180.635 16.91V2.82262C180.635 2.28119 180.196 1.84229 179.655 1.84229Z" fill="#1D2C29"/>
<path d="M161.536 1.84229H147.451C146.91 1.84229 146.471 2.28119 146.471 2.82262V16.91C146.471 17.4514 146.91 17.8903 147.451 17.8903H161.536C162.078 17.8903 162.517 17.4514 162.517 16.91V2.82262C162.517 2.28119 162.078 1.84229 161.536 1.84229Z" fill="#24453A"/>
<path d="M215.89 1.84229H201.803C201.261 1.84229 200.822 2.28119 200.822 2.82262V16.91C200.822 17.4514 201.261 17.8903 201.803 17.8903H215.89C216.431 17.8903 216.87 17.4514 216.87 16.91V2.82262C216.87 2.28119 216.431 1.84229 215.89 1.84229Z" fill="#1D2C29"/>
<path d="M234.007 1.84229H219.919C219.378 1.84229 218.939 2.28119 218.939 2.82262V16.91C218.939 17.4514 219.378 17.8903 219.919 17.8903H234.007C234.548 17.8903 234.987 17.4514 234.987 16.91V2.82262C234.987 2.28119 234.548 1.84229 234.007 1.84229Z" fill="#24453A"/>
<path d="M16.6024 19.9824H2.51695C1.97553 19.9824 1.53662 20.4213 1.53662 20.9628V35.0501C1.53662 35.5915 1.97553 36.0305 2.51695 36.0305H16.6024C17.1438 36.0305 17.5827 35.5915 17.5827 35.0501V20.9628C17.5827 20.4213 17.1438 19.9824 16.6024 19.9824Z" fill="#1D2C29"/>
<path d="M70.9538 19.9824H56.8664C56.325 19.9824 55.8861 20.4213 55.8861 20.9628V35.0501C55.8861 35.5915 56.325 36.0305 56.8664 36.0305H70.9538C71.4952 36.0305 71.9341 35.5915 71.9341 35.0501V20.9628C71.9341 20.4213 71.4952 19.9824 70.9538 19.9824Z" fill="#24453A"/>
<path d="M52.8353 19.9824H38.7499C38.2084 19.9824 37.7695 20.4213 37.7695 20.9628V35.0501C37.7695 35.5915 38.2084 36.0305 38.7499 36.0305H52.8353C53.3767 36.0305 53.8156 35.5915 53.8156 35.0501V20.9628C53.8156 20.4213 53.3767 19.9824 52.8353 19.9824Z" fill="#1D2C29"/>
<path d="M34.7188 19.9824H20.6334C20.092 19.9824 19.6531 20.4213 19.6531 20.9628V35.0501C19.6531 35.5915 20.092 36.0305 20.6334 36.0305H34.7188C35.2603 36.0305 35.6992 35.5915 35.6992 35.0501V20.9628C35.6992 20.4213 35.2603 19.9824 34.7188 19.9824Z" fill="#24453A"/>
<path d="M161.536 19.9824H147.451C146.91 19.9824 146.471 20.4213 146.471 20.9628V35.0501C146.471 35.5915 146.91 36.0305 147.451 36.0305H161.536C162.078 36.0305 162.517 35.5915 162.517 35.0501V20.9628C162.517 20.4213 162.078 19.9824 161.536 19.9824Z" fill="#1D2C29"/>
<path d="M215.89 19.9824H201.803C201.261 19.9824 200.822 20.4213 200.822 20.9628V35.0501C200.822 35.5915 201.261 36.0305 201.803 36.0305H215.89C216.431 36.0305 216.87 35.5915 216.87 35.0501V20.9628C216.87 20.4213 216.431 19.9824 215.89 19.9824Z" fill="#24453A"/>
<path d="M197.772 19.9824H183.684C183.143 19.9824 182.704 20.4213 182.704 20.9628V35.0501C182.704 35.5915 183.143 36.0305 183.684 36.0305H197.772C198.313 36.0305 198.752 35.5915 198.752 35.0501V20.9628C198.752 20.4213 198.313 19.9824 197.772 19.9824Z" fill="#1D2C29"/>
<path d="M179.655 19.9824H165.568C165.026 19.9824 164.587 20.4213 164.587 20.9628V35.0501C164.587 35.5915 165.026 36.0305 165.568 36.0305H179.655C180.196 36.0305 180.635 35.5915 180.635 35.0501V20.9628C180.635 20.4213 180.196 19.9824 179.655 19.9824Z" fill="#24453A"/>
<path d="M234.007 19.9824H219.919C219.378 19.9824 218.939 20.4213 218.939 20.9628V35.0501C218.939 35.5915 219.378 36.0305 219.919 36.0305H234.007C234.548 36.0305 234.987 35.5915 234.987 35.0501V20.9628C234.987 20.4213 234.548 19.9824 234.007 19.9824Z" fill="#1D2C29"/>
<path d="M52.8353 38.0989H38.7499C38.2084 38.0989 37.7695 38.5378 37.7695 39.0792V53.1646C37.7695 53.706 38.2084 54.145 38.7499 54.145H52.8353C53.3767 54.145 53.8156 53.706 53.8156 53.1646V39.0792C53.8156 38.5378 53.3767 38.0989 52.8353 38.0989Z" fill="#24453A"/>
<path d="M34.7188 38.0989H20.6334C20.092 38.0989 19.6531 38.5378 19.6531 39.0792V53.1646C19.6531 53.706 20.092 54.145 20.6334 54.145H34.7188C35.2603 54.145 35.6992 53.706 35.6992 53.1646V39.0792C35.6992 38.5378 35.2603 38.0989 34.7188 38.0989Z" fill="#1D2C29"/>
<path d="M16.6024 38.0989H2.51695C1.97553 38.0989 1.53662 38.5378 1.53662 39.0792V53.1646C1.53662 53.706 1.97553 54.145 2.51695 54.145H16.6024C17.1438 54.145 17.5827 53.706 17.5827 53.1646V39.0792C17.5827 38.5378 17.1438 38.0989 16.6024 38.0989Z" fill="#24453A"/>
<path d="M70.9538 38.0989H56.8664C56.325 38.0989 55.8861 38.5378 55.8861 39.0792V53.1646C55.8861 53.706 56.325 54.145 56.8664 54.145H70.9538C71.4952 54.145 71.9341 53.706 71.9341 53.1646V39.0792C71.9341 38.5378 71.4952 38.0989 70.9538 38.0989Z" fill="#1D2C29"/>
<path d="M125.303 38.0989H111.218C110.677 38.0989 110.238 38.5378 110.238 39.0792V53.1646C110.238 53.706 110.677 54.145 111.218 54.145H125.303C125.845 54.145 126.284 53.706 126.284 53.1646V39.0792C126.284 38.5378 125.845 38.0989 125.303 38.0989Z" fill="#24453A"/>
<path d="M107.187 38.0989H93.1014C92.56 38.0989 92.1211 38.5378 92.1211 39.0792V53.1646C92.1211 53.706 92.56 54.145 93.1014 54.145H107.187C107.728 54.145 108.167 53.706 108.167 53.1646V39.0792C108.167 38.5378 107.728 38.0989 107.187 38.0989Z" fill="#1D2C29"/>
<path d="M197.772 38.0989H183.684C183.143 38.0989 182.704 38.5378 182.704 39.0792V53.1646C182.704 53.706 183.143 54.145 183.684 54.145H197.772C198.313 54.145 198.752 53.706 198.752 53.1646V39.0792C198.752 38.5378 198.313 38.0989 197.772 38.0989Z" fill="#24453A"/>
<path d="M179.655 38.0989H165.568C165.026 38.0989 164.587 38.5378 164.587 39.0792V53.1646C164.587 53.706 165.026 54.145 165.568 54.145H179.655C180.196 54.145 180.635 53.706 180.635 53.1646V39.0792C180.635 38.5378 180.196 38.0989 179.655 38.0989Z" fill="#1D2C29"/>
<path d="M161.536 38.0989H147.451C146.91 38.0989 146.471 38.5378 146.471 39.0792V53.1646C146.471 53.706 146.91 54.145 147.451 54.145H161.536C162.078 54.145 162.517 53.706 162.517 53.1646V39.0792C162.517 38.5378 162.078 38.0989 161.536 38.0989Z" fill="#24453A"/>
<path d="M215.89 38.0989H201.803C201.261 38.0989 200.822 38.5378 200.822 39.0792V53.1646C200.822 53.706 201.261 54.145 201.803 54.145H215.89C216.431 54.145 216.87 53.706 216.87 53.1646V39.0792C216.87 38.5378 216.431 38.0989 215.89 38.0989Z" fill="#1D2C29"/>
<path d="M234.007 38.0989H219.919C219.378 38.0989 218.939 38.5378 218.939 39.0792V53.1646C218.939 53.706 219.378 54.145 219.919 54.145H234.007C234.548 54.145 234.987 53.706 234.987 53.1646V39.0792C234.987 38.5378 234.548 38.0989 234.007 38.0989Z" fill="#24453A"/>
<path d="M16.6024 56.2368H2.51695C1.97553 56.2368 1.53662 56.6757 1.53662 57.2171V71.3026C1.53662 71.844 1.97553 72.2829 2.51695 72.2829H16.6024C17.1438 72.2829 17.5827 71.844 17.5827 71.3026V57.2171C17.5827 56.6757 17.1438 56.2368 16.6024 56.2368Z" fill="#1D2C29"/>
<path d="M70.9538 56.2368H56.8664C56.325 56.2368 55.8861 56.6757 55.8861 57.2171V71.3026C55.8861 71.844 56.325 72.2829 56.8664 72.2829H70.9538C71.4952 72.2829 71.9341 71.844 71.9341 71.3026V57.2171C71.9341 56.6757 71.4952 56.2368 70.9538 56.2368Z" fill="#24453A"/>
<path d="M52.8353 56.2368H38.7499C38.2084 56.2368 37.7695 56.6757 37.7695 57.2171V71.3026C37.7695 71.844 38.2084 72.2829 38.7499 72.2829H52.8353C53.3767 72.2829 53.8156 71.844 53.8156 71.3026V57.2171C53.8156 56.6757 53.3767 56.2368 52.8353 56.2368Z" fill="#1D2C29"/>
<path d="M34.7188 56.2368H20.6334C20.092 56.2368 19.6531 56.6757 19.6531 57.2171V71.3026C19.6531 71.844 20.092 72.2829 20.6334 72.2829H34.7188C35.2603 72.2829 35.6992 71.844 35.6992 71.3026V57.2171C35.6992 56.6757 35.2603 56.2368 34.7188 56.2368Z" fill="#24453A"/>
<path d="M125.303 56.2368H111.218C110.677 56.2368 110.238 56.6757 110.238 57.2171V71.3026C110.238 71.844 110.677 72.2829 111.218 72.2829H125.303C125.845 72.2829 126.284 71.844 126.284 71.3026V57.2171C126.284 56.6757 125.845 56.2368 125.303 56.2368Z" fill="#1D2C29"/>
<path d="M107.187 56.2368H93.1014C92.56 56.2368 92.1211 56.6757 92.1211 57.2171V71.3026C92.1211 71.844 92.56 72.2829 93.1014 72.2829H107.187C107.728 72.2829 108.167 71.844 108.167 71.3026V57.2171C108.167 56.6757 107.728 56.2368 107.187 56.2368Z" fill="#24453A"/>
<path d="M215.89 56.2368H201.803C201.261 56.2368 200.822 56.6757 200.822 57.2171V71.3026C200.822 71.844 201.261 72.2829 201.803 72.2829H215.89C216.431 72.2829 216.87 71.844 216.87 71.3026V57.2171C216.87 56.6757 216.431 56.2368 215.89 56.2368Z" fill="#24453A"/>
<path d="M197.772 56.2368H183.684C183.143 56.2368 182.704 56.6757 182.704 57.2171V71.3026C182.704 71.844 183.143 72.2829 183.684 72.2829H197.772C198.313 72.2829 198.752 71.844 198.752 71.3026V57.2171C198.752 56.6757 198.313 56.2368 197.772 56.2368Z" fill="#1D2C29"/>
<path d="M234.007 56.2368H219.919C219.378 56.2368 218.939 56.6757 218.939 57.2171V71.3026C218.939 71.844 219.378 72.2829 219.919 72.2829H234.007C234.548 72.2829 234.987 71.844 234.987 71.3026V57.2171C234.987 56.6757 234.548 56.2368 234.007 56.2368Z" fill="#1D2C29"/>
<path d="M52.8353 74.3672H38.7499C38.2084 74.3672 37.7695 74.8061 37.7695 75.3475V89.4329C37.7695 89.9744 38.2084 90.4133 38.7499 90.4133H52.8353C53.3767 90.4133 53.8156 89.9744 53.8156 89.4329V75.3475C53.8156 74.8061 53.3767 74.3672 52.8353 74.3672Z" fill="#24453A"/>
<path d="M34.7188 74.3672H20.6334C20.092 74.3672 19.6531 74.8061 19.6531 75.3475V89.4329C19.6531 89.9744 20.092 90.4133 20.6334 90.4133H34.7188C35.2603 90.4133 35.6992 89.9744 35.6992 89.4329V75.3475C35.6992 74.8061 35.2603 74.3672 34.7188 74.3672Z" fill="#1D2C29"/>
<path d="M16.6024 74.3672H2.51695C1.97553 74.3672 1.53662 74.8061 1.53662 75.3475V89.4329C1.53662 89.9744 1.97553 90.4133 2.51695 90.4133H16.6024C17.1438 90.4133 17.5827 89.9744 17.5827 89.4329V75.3475C17.5827 74.8061 17.1438 74.3672 16.6024 74.3672Z" fill="#24453A"/>
<path d="M70.9538 74.3672H56.8664C56.325 74.3672 55.8861 74.8061 55.8861 75.3475V89.4329C55.8861 89.9744 56.325 90.4133 56.8664 90.4133H70.9538C71.4952 90.4133 71.9341 89.9744 71.9341 89.4329V75.3475C71.9341 74.8061 71.4952 74.3672 70.9538 74.3672Z" fill="#1D2C29"/>
<path d="M125.303 74.3672H111.218C110.677 74.3672 110.238 74.8061 110.238 75.3475V89.4329C110.238 89.9744 110.677 90.4133 111.218 90.4133H125.303C125.845 90.4133 126.284 89.9744 126.284 89.4329V75.3475C126.284 74.8061 125.845 74.3672 125.303 74.3672Z" fill="#24453A"/>
<path d="M107.187 74.3672H93.1014C92.56 74.3672 92.1211 74.8061 92.1211 75.3475V89.4329C92.1211 89.9744 92.56 90.4133 93.1014 90.4133H107.187C107.728 90.4133 108.167 89.9744 108.167 89.4329V75.3475C108.167 74.8061 107.728 74.3672 107.187 74.3672Z" fill="#1D2C29"/>
<path d="M143.422 74.3672H129.335C128.793 74.3672 128.354 74.8061 128.354 75.3475V89.4329C128.354 89.9744 128.793 90.4133 129.335 90.4133H143.422C143.963 90.4133 144.402 89.9744 144.402 89.4329V75.3475C144.402 74.8061 143.963 74.3672 143.422 74.3672Z" fill="#1D2C29"/>
<path d="M197.772 74.3672H183.684C183.143 74.3672 182.704 74.8061 182.704 75.3475V89.4329C182.704 89.9744 183.143 90.4133 183.684 90.4133H197.772C198.313 90.4133 198.752 89.9744 198.752 89.4329V75.3475C198.752 74.8061 198.313 74.3672 197.772 74.3672Z" fill="#24453A"/>
<path d="M179.655 74.3672H165.568C165.026 74.3672 164.587 74.8061 164.587 75.3475V89.4329C164.587 89.9744 165.026 90.4133 165.568 90.4133H179.655C180.196 90.4133 180.635 89.9744 180.635 89.4329V75.3475C180.635 74.8061 180.196 74.3672 179.655 74.3672Z" fill="#1D2C29"/>
<path d="M161.536 74.3672H147.451C146.91 74.3672 146.471 74.8061 146.471 75.3475V89.4329C146.471 89.9744 146.91 90.4133 147.451 90.4133H161.536C162.078 90.4133 162.517 89.9744 162.517 89.4329V75.3475C162.517 74.8061 162.078 74.3672 161.536 74.3672Z" fill="#24453A"/>
<path d="M215.89 74.3672H201.803C201.261 74.3672 200.822 74.8061 200.822 75.3475V89.4329C200.822 89.9744 201.261 90.4133 201.803 90.4133H215.89C216.431 90.4133 216.87 89.9744 216.87 89.4329V75.3475C216.87 74.8061 216.431 74.3672 215.89 74.3672Z" fill="#1D2C29"/>
<path d="M234.007 74.3672H219.919C219.378 74.3672 218.939 74.8061 218.939 75.3475V89.4329C218.939 89.9744 219.378 90.4133 219.919 90.4133H234.007C234.548 90.4133 234.987 89.9744 234.987 89.4329V75.3475C234.987 74.8061 234.548 74.3672 234.007 74.3672Z" fill="#24453A"/>
<path d="M143.422 92.4858H129.335C128.793 92.4858 128.354 92.9247 128.354 93.4662V107.552C128.354 108.093 128.793 108.532 129.335 108.532H143.422C143.963 108.532 144.402 108.093 144.402 107.552V93.4662C144.402 92.9247 143.963 92.4858 143.422 92.4858Z" fill="#24453A"/>
<path d="M125.303 92.4858H111.218C110.677 92.4858 110.238 92.9247 110.238 93.4662V107.552C110.238 108.093 110.677 108.532 111.218 108.532H125.303C125.845 108.532 126.284 108.093 126.284 107.552V93.4662C126.284 92.9247 125.845 92.4858 125.303 92.4858Z" fill="#1D2C29"/>
<path d="M107.187 92.4858H93.1014C92.56 92.4858 92.1211 92.9247 92.1211 93.4662V107.552C92.1211 108.093 92.56 108.532 93.1014 108.532H107.187C107.728 108.532 108.167 108.093 108.167 107.552V93.4662C108.167 92.9247 107.728 92.4858 107.187 92.4858Z" fill="#24453A"/>
<path d="M161.536 92.4858H147.451C146.91 92.4858 146.471 92.9247 146.471 93.4662V107.552C146.471 108.093 146.91 108.532 147.451 108.532H161.536C162.078 108.532 162.517 108.093 162.517 107.552V93.4662C162.517 92.9247 162.078 92.4858 161.536 92.4858Z" fill="#1D2C29"/>
<path d="M215.89 92.4858H201.803C201.261 92.4858 200.822 92.9247 200.822 93.4662V107.552C200.822 108.093 201.261 108.532 201.803 108.532H215.89C216.431 108.532 216.87 108.093 216.87 107.552V93.4662C216.87 92.9247 216.431 92.4858 215.89 92.4858Z" fill="#24453A"/>
<path d="M197.772 92.4858H183.684C183.143 92.4858 182.704 92.9247 182.704 93.4662V107.552C182.704 108.093 183.143 108.532 183.684 108.532H197.772C198.313 108.532 198.752 108.093 198.752 107.552V93.4662C198.752 92.9247 198.313 92.4858 197.772 92.4858Z" fill="#1D2C29"/>
<path d="M179.655 92.4858H165.568C165.026 92.4858 164.587 92.9247 164.587 93.4662V107.552C164.587 108.093 165.026 108.532 165.568 108.532H179.655C180.196 108.532 180.635 108.093 180.635 107.552V93.4662C180.635 92.9247 180.196 92.4858 179.655 92.4858Z" fill="#24453A"/>
<path d="M234.007 92.4858H219.919C219.378 92.4858 218.939 92.9247 218.939 93.4662V107.552C218.939 108.093 219.378 108.532 219.919 108.532H234.007C234.548 108.532 234.987 108.093 234.987 107.552V93.4662C234.987 92.9247 234.548 92.4858 234.007 92.4858Z" fill="#1D2C29"/>
<path d="M52.8353 110.602H38.7499C38.2084 110.602 37.7695 111.041 37.7695 111.583V125.668C37.7695 126.209 38.2084 126.648 38.7499 126.648H52.8353C53.3767 126.648 53.8156 126.209 53.8156 125.668V111.583C53.8156 111.041 53.3767 110.602 52.8353 110.602Z" fill="#24453A"/>
<path d="M34.7188 110.602H20.6334C20.092 110.602 19.6531 111.041 19.6531 111.583V125.668C19.6531 126.209 20.092 126.648 20.6334 126.648H34.7188C35.2603 126.648 35.6992 126.209 35.6992 125.668V111.583C35.6992 111.041 35.2603 110.602 34.7188 110.602Z" fill="#1D2C29"/>
<path d="M16.6024 110.602H2.51695C1.97553 110.602 1.53662 111.041 1.53662 111.583V125.668C1.53662 126.209 1.97553 126.648 2.51695 126.648H16.6024C17.1438 126.648 17.5827 126.209 17.5827 125.668V111.583C17.5827 111.041 17.1438 110.602 16.6024 110.602Z" fill="#24453A"/>
<path d="M70.9538 110.602H56.8664C56.325 110.602 55.8861 111.041 55.8861 111.583V125.668C55.8861 126.209 56.325 126.648 56.8664 126.648H70.9538C71.4952 126.648 71.9341 126.209 71.9341 125.668V111.583C71.9341 111.041 71.4952 110.602 70.9538 110.602Z" fill="#1D2C29"/>
<path d="M125.303 110.602H111.218C110.677 110.602 110.238 111.041 110.238 111.583V125.668C110.238 126.209 110.677 126.648 111.218 126.648H125.303C125.845 126.648 126.284 126.209 126.284 125.668V111.583C126.284 111.041 125.845 110.602 125.303 110.602Z" fill="#24453A"/>
<path d="M107.187 110.602H93.1014C92.56 110.602 92.1211 111.041 92.1211 111.583V125.668C92.1211 126.209 92.56 126.648 93.1014 126.648H107.187C107.728 126.648 108.167 126.209 108.167 125.668V111.583C108.167 111.041 107.728 110.602 107.187 110.602Z" fill="#1D2C29"/>
<path d="M89.0704 110.602H74.983C74.4416 110.602 74.0027 111.041 74.0027 111.583V125.668C74.0027 126.209 74.4416 126.648 74.983 126.648H89.0704C89.6118 126.648 90.0507 126.209 90.0507 125.668V111.583C90.0507 111.041 89.6118 110.602 89.0704 110.602Z" fill="#24453A"/>
<path d="M143.422 110.602H129.335C128.793 110.602 128.354 111.041 128.354 111.583V125.668C128.354 126.209 128.793 126.648 129.335 126.648H143.422C143.963 126.648 144.402 126.209 144.402 125.668V111.583C144.402 111.041 143.963 110.602 143.422 110.602Z" fill="#1D2C29"/>
<path d="M197.772 110.602H183.684C183.143 110.602 182.704 111.041 182.704 111.583V125.668C182.704 126.209 183.143 126.648 183.684 126.648H197.772C198.313 126.648 198.752 126.209 198.752 125.668V111.583C198.752 111.041 198.313 110.602 197.772 110.602Z" fill="#24453A"/>
<path d="M179.655 110.602H165.568C165.026 110.602 164.587 111.041 164.587 111.583V125.668C164.587 126.209 165.026 126.648 165.568 126.648H179.655C180.196 126.648 180.635 126.209 180.635 125.668V111.583C180.635 111.041 180.196 110.602 179.655 110.602Z" fill="#1D2C29"/>
<path d="M161.536 110.602H147.451C146.91 110.602 146.471 111.041 146.471 111.583V125.668C146.471 126.209 146.91 126.648 147.451 126.648H161.536C162.078 126.648 162.517 126.209 162.517 125.668V111.583C162.517 111.041 162.078 110.602 161.536 110.602Z" fill="#24453A"/>
<path d="M215.89 110.602H201.803C201.261 110.602 200.822 111.041 200.822 111.583V125.668C200.822 126.209 201.261 126.648 201.803 126.648H215.89C216.431 126.648 216.87 126.209 216.87 125.668V111.583C216.87 111.041 216.431 110.602 215.89 110.602Z" fill="#1D2C29"/>
<path d="M234.007 110.602H219.919C219.378 110.602 218.939 111.041 218.939 111.583V125.668C218.939 126.209 219.378 126.648 219.919 126.648H234.007C234.548 126.648 234.987 126.209 234.987 125.668V111.583C234.987 111.041 234.548 110.602 234.007 110.602Z" fill="#24453A"/>
<path d="M16.6024 128.725H2.51695C1.97553 128.725 1.53662 129.164 1.53662 129.705V143.792C1.53662 144.334 1.97553 144.773 2.51695 144.773H16.6024C17.1438 144.773 17.5827 144.334 17.5827 143.792V129.705C17.5827 129.164 17.1438 128.725 16.6024 128.725Z" fill="#1D2C29"/>
<path d="M70.9538 128.725H56.8664C56.325 128.725 55.8861 129.164 55.8861 129.705V143.792C55.8861 144.334 56.325 144.773 56.8664 144.773H70.9538C71.4952 144.773 71.9341 144.334 71.9341 143.792V129.705C71.9341 129.164 71.4952 128.725 70.9538 128.725Z" fill="#24453A"/>
<path d="M52.8353 128.725H38.7499C38.2084 128.725 37.7695 129.164 37.7695 129.705V143.792C37.7695 144.334 38.2084 144.773 38.7499 144.773H52.8353C53.3767 144.773 53.8156 144.334 53.8156 143.792V129.705C53.8156 129.164 53.3767 128.725 52.8353 128.725Z" fill="#1D2C29"/>
<path d="M34.7188 128.725H20.6334C20.092 128.725 19.6531 129.164 19.6531 129.705V143.792C19.6531 144.334 20.092 144.773 20.6334 144.773H34.7188C35.2603 144.773 35.6992 144.334 35.6992 143.792V129.705C35.6992 129.164 35.2603 128.725 34.7188 128.725Z" fill="#24453A"/>
<path d="M89.0704 128.725H74.983C74.4416 128.725 74.0027 129.164 74.0027 129.705V143.792C74.0027 144.334 74.4416 144.773 74.983 144.773H89.0704C89.6118 144.773 90.0507 144.334 90.0507 143.792V129.705C90.0507 129.164 89.6118 128.725 89.0704 128.725Z" fill="#1D2C29"/>
<path d="M143.422 128.725H129.335C128.793 128.725 128.354 129.164 128.354 129.705V143.792C128.354 144.334 128.793 144.773 129.335 144.773H143.422C143.963 144.773 144.402 144.334 144.402 143.792V129.705C144.402 129.164 143.963 128.725 143.422 128.725Z" fill="#24453A"/>
<path d="M125.303 128.725H111.218C110.677 128.725 110.238 129.164 110.238 129.705V143.792C110.238 144.334 110.677 144.773 111.218 144.773H125.303C125.845 144.773 126.284 144.334 126.284 143.792V129.705C126.284 129.164 125.845 128.725 125.303 128.725Z" fill="#1D2C29"/>
<path d="M107.187 128.725H93.1014C92.56 128.725 92.1211 129.164 92.1211 129.705V143.792C92.1211 144.334 92.56 144.773 93.1014 144.773H107.187C107.728 144.773 108.167 144.334 108.167 143.792V129.705C108.167 129.164 107.728 128.725 107.187 128.725Z" fill="#24453A"/>
<path d="M161.536 128.725H147.451C146.91 128.725 146.471 129.164 146.471 129.705V143.792C146.471 144.334 146.91 144.773 147.451 144.773H161.536C162.078 144.773 162.517 144.334 162.517 143.792V129.705C162.517 129.164 162.078 128.725 161.536 128.725Z" fill="#1D2C29"/>
<path d="M215.89 128.725H201.803C201.261 128.725 200.822 129.164 200.822 129.705V143.792C200.822 144.334 201.261 144.773 201.803 144.773H215.89C216.431 144.773 216.87 144.334 216.87 143.792V129.705C216.87 129.164 216.431 128.725 215.89 128.725Z" fill="#24453A"/>
<path d="M197.772 128.725H183.684C183.143 128.725 182.704 129.164 182.704 129.705V143.792C182.704 144.334 183.143 144.773 183.684 144.773H197.772C198.313 144.773 198.752 144.334 198.752 143.792V129.705C198.752 129.164 198.313 128.725 197.772 128.725Z" fill="#1D2C29"/>
<path d="M179.655 128.725H165.568C165.026 128.725 164.587 129.164 164.587 129.705V143.792C164.587 144.334 165.026 144.773 165.568 144.773H179.655C180.196 144.773 180.635 144.334 180.635 143.792V129.705C180.635 129.164 180.196 128.725 179.655 128.725Z" fill="#24453A"/>
<path d="M234.007 128.725H219.919C219.378 128.725 218.939 129.164 218.939 129.705V143.792C218.939 144.334 219.378 144.773 219.919 144.773H234.007C234.548 144.773 234.987 144.334 234.987 143.792V129.705C234.987 129.164 234.548 128.725 234.007 128.725Z" fill="#1D2C29"/>
<path d="M89.0704 19.9824H74.983C74.4416 19.9824 74.0027 20.4213 74.0027 20.9628V35.0501C74.0027 35.5915 74.4416 36.0305 74.983 36.0305H89.0704C89.6118 36.0305 90.0507 35.5915 90.0507 35.0501V20.9628C90.0507 20.4213 89.6118 19.9824 89.0704 19.9824Z" fill="#5DD5A2"/>
<path d="M143.422 19.9824H129.335C128.793 19.9824 128.354 20.4213 128.354 20.9628V35.0501C128.354 35.5915 128.793 36.0305 129.335 36.0305H143.422C143.963 36.0305 144.402 35.5915 144.402 35.0501V20.9628C144.402 20.4213 143.963 19.9824 143.422 19.9824Z" fill="#5DD5A2"/>
<path d="M125.304 19.9824H111.218C110.677 19.9824 110.238 20.4213 110.238 20.9628V35.0501C110.238 35.5915 110.677 36.0305 111.218 36.0305H125.304C125.845 36.0305 126.284 35.5915 126.284 35.0501V20.9628C126.284 20.4213 125.845 19.9824 125.304 19.9824Z" fill="#5DD5A2"/>
<path d="M107.187 19.9824H93.1015C92.5601 19.9824 92.1212 20.4213 92.1212 20.9628V35.0501C92.1212 35.5915 92.5601 36.0305 93.1015 36.0305H107.187C107.728 36.0305 108.167 35.5915 108.167 35.0501V20.9628C108.167 20.4213 107.728 19.9824 107.187 19.9824Z" fill="#5DD5A2"/>
<path d="M89.0704 38.0991H74.983C74.4416 38.0991 74.0027 38.538 74.0027 39.0795V53.1649C74.0027 53.7063 74.4416 54.1452 74.983 54.1452H89.0704C89.6118 54.1452 90.0507 53.7063 90.0507 53.1649V39.0795C90.0507 38.538 89.6118 38.0991 89.0704 38.0991Z" fill="#5DD5A2"/>
<path d="M143.422 38.0991H129.335C128.793 38.0991 128.354 38.538 128.354 39.0795V53.1649C128.354 53.7063 128.793 54.1452 129.335 54.1452H143.422C143.963 54.1452 144.402 53.7063 144.402 53.1649V39.0795C144.402 38.538 143.963 38.0991 143.422 38.0991Z" fill="#5DD5A2"/>
<path d="M89.0704 56.2371H74.983C74.4416 56.2371 74.0027 56.676 74.0027 57.2174V71.3028C74.0027 71.8442 74.4416 72.2831 74.983 72.2831H89.0704C89.6118 72.2831 90.0507 71.8442 90.0507 71.3028V57.2174C90.0507 56.676 89.6118 56.2371 89.0704 56.2371Z" fill="#5DD5A2"/>
<path d="M143.422 56.2371H129.335C128.793 56.2371 128.354 56.676 128.354 57.2174V71.3028C128.354 71.8442 128.793 72.2831 129.335 72.2831H143.422C143.963 72.2831 144.402 71.8442 144.402 71.3028V57.2174C144.402 56.676 143.963 56.2371 143.422 56.2371Z" fill="#5DD5A2"/>
<path d="M161.537 56.2371H147.451C146.91 56.2371 146.471 56.676 146.471 57.2174V71.3028C146.471 71.8442 146.91 72.2831 147.451 72.2831H161.537C162.078 72.2831 162.517 71.8442 162.517 71.3028V57.2174C162.517 56.676 162.078 56.2371 161.537 56.2371Z" fill="#5DD5A2"/>
<path d="M179.655 56.2371H165.568C165.026 56.2371 164.587 56.676 164.587 57.2174V71.3028C164.587 71.8442 165.026 72.2831 165.568 72.2831H179.655C180.197 72.2831 180.635 71.8442 180.635 71.3028V57.2174C180.635 56.676 180.197 56.2371 179.655 56.2371Z" fill="#5DD5A2"/>
<path d="M89.0704 74.3674H74.983C74.4416 74.3674 74.0027 74.8063 74.0027 75.3478V89.4332C74.0027 89.9746 74.4416 90.4135 74.983 90.4135H89.0704C89.6118 90.4135 90.0507 89.9746 90.0507 89.4332V75.3478C90.0507 74.8063 89.6118 74.3674 89.0704 74.3674Z" fill="#5DD5A2"/>
<path d="M16.6024 92.4858H2.51695C1.97553 92.4858 1.53662 92.9247 1.53662 93.4662V107.552C1.53662 108.093 1.97553 108.532 2.51695 108.532H16.6024C17.1438 108.532 17.5827 108.093 17.5827 107.552V93.4662C17.5827 92.9247 17.1438 92.4858 16.6024 92.4858Z" fill="#1D2C29"/>
<path d="M70.9539 92.4858H56.8666C56.3251 92.4858 55.8862 92.9247 55.8862 93.4662V107.552C55.8862 108.093 56.3251 108.532 56.8666 108.532H70.9539C71.4954 108.532 71.9343 108.093 71.9343 107.552V93.4662C71.9343 92.9247 71.4954 92.4858 70.9539 92.4858Z" fill="#5DD5A2"/>
<path d="M52.8354 92.4858H38.75C38.2086 92.4858 37.7697 92.9247 37.7697 93.4662V107.552C37.7697 108.093 38.2086 108.532 38.75 108.532H52.8354C53.3768 108.532 53.8157 108.093 53.8157 107.552V93.4662C53.8157 92.9247 53.3768 92.4858 52.8354 92.4858Z" fill="#5DD5A2"/>
<path d="M34.7188 92.4858H20.6334C20.092 92.4858 19.6531 92.9247 19.6531 93.4662V107.552C19.6531 108.093 20.092 108.532 20.6334 108.532H34.7188C35.2603 108.532 35.6992 108.093 35.6992 107.552V93.4662C35.6992 92.9247 35.2603 92.4858 34.7188 92.4858Z" fill="#24453A"/>
<path d="M89.0704 92.4858H74.983C74.4416 92.4858 74.0027 92.9247 74.0027 93.4662V107.552C74.0027 108.093 74.4416 108.532 74.983 108.532H89.0704C89.6118 108.532 90.0507 108.093 90.0507 107.552V93.4662C90.0507 92.9247 89.6118 92.4858 89.0704 92.4858Z" fill="#5DD5A2"/>
<path d="M178.845 60.1702H176.587V62.4289H178.845V60.1702Z" fill="#1A1A1A"/>
<path d="M178.845 66.1738H176.587V68.4325H178.845V66.1738Z" fill="#1A1A1A"/>
</g>
<path d="M185 64.1702L191 56L197 64.1702L191 72L185 64.1702Z" fill="#ADA0D6"/>
</g>
<defs>
<clipPath id="clip0_47_33355">
<rect width="219" height="129" rx="8" fill="white"/>
</clipPath>
<clipPath id="clip1_47_33355">
<rect width="505.22" height="197.292" fill="white" transform="translate(-234 -52.521)"/>
</clipPath>
</defs>
</svg>
