<svg width="74" height="50" viewBox="0 0 74 50" fill="none" xmlns="http://www.w3.org/2000/svg">
<path d="M13.3263 3.34832L60.5865 3.34838V6.68615L63.8999 6.68766V10.0269L67.2118 10.0285V13.3662H70.5631V36.6595L67.2118 36.6413V39.9791H63.8999V43.3199H60.5865V46.6592L13.3263 46.6591V43.3214H10.013V39.9821H6.70112V36.6413H3.34979V13.3662H6.70112V10.0284H10.013V6.6876H13.3263V3.34832Z" fill="#05A38C"/>
<path d="M16.6747 0.00762323H13.3249V3.34539H16.6747V0.00762323Z" fill="#5DD5A2"/>
<path d="M13.3249 3.34832H9.97511V6.68609H13.3249V3.34832Z" fill="#5DD5A2"/>
<path d="M10.013 6.68766H6.66319V10.0254H10.013V6.68766Z" fill="#5DD5A2"/>
<path d="M6.6996 10.0285H3.34979V13.3662H6.6996V10.0285Z" fill="#5DD5A2"/>
<path d="M3.34981 13.3663H0V16.7041H3.34981V13.3663Z" fill="#5DD5A2"/>
<path d="M3.34981 16.6888H0V20.0266H3.34981V16.6888Z" fill="#5DD5A2"/>
<path d="M3.34981 20.0116H0V23.3494H3.34981V20.0116Z" fill="#5DD5A2"/>
<path d="M3.34981 23.3357H0V26.6734H3.34981V23.3357Z" fill="#5DD5A2"/>
<path d="M16.6747 46.6621H13.3249V49.9999H16.6747V46.6621Z" fill="#5DD5A2"/>
<path d="M20.0245 46.6621H16.6747V49.9999H20.0245V46.6621Z" fill="#5DD5A2"/>
<path d="M23.3758 46.6621H20.026V49.9999H23.3758V46.6621Z" fill="#5DD5A2"/>
<path d="M26.7256 46.6621H23.3758V49.9999H26.7256V46.6621Z" fill="#5DD5A2"/>
<path d="M30.0754 46.6621H26.7256V49.9999H30.0754V46.6621Z" fill="#5DD5A2"/>
<path d="M33.4253 46.6621H30.0755V49.9999H33.4253V46.6621Z" fill="#5DD5A2"/>
<path d="M36.7767 46.6621H33.4269V49.9999H36.7767V46.6621Z" fill="#5DD5A2"/>
<path d="M40.1263 46.6621H36.7765V49.9999H40.1263V46.6621Z" fill="#5DD5A2"/>
<path d="M43.4761 46.6621H40.1263V49.9999H43.4761V46.6621Z" fill="#5DD5A2"/>
<path d="M46.8275 46.6621H43.4777V49.9999H46.8275V46.6621Z" fill="#5DD5A2"/>
<path d="M50.1773 46.6621H46.8275V49.9999H50.1773V46.6621Z" fill="#5DD5A2"/>
<path d="M53.527 46.6621H50.1772V49.9999H53.527V46.6621Z" fill="#5DD5A2"/>
<path d="M56.8769 46.6621H53.5271V49.9999H56.8769V46.6621Z" fill="#5DD5A2"/>
<path d="M60.5866 46.6621H56.8785V49.9999H60.5866V46.6621Z" fill="#5DD5A2"/>
<path d="M20.0245 0H16.6747V3.33777H20.0245V0Z" fill="#5DD5A2"/>
<path d="M23.3758 0H20.026V3.33777H23.3758V0Z" fill="#5DD5A2"/>
<path d="M26.7256 0H23.3758V3.33777H26.7256V0Z" fill="#5DD5A2"/>
<path d="M30.0754 0H26.7256V3.33777H30.0754V0Z" fill="#5DD5A2"/>
<path d="M33.4253 0H30.0755V3.33777H33.4253V0Z" fill="#5DD5A2"/>
<path d="M36.7767 0H33.4269V3.33777H36.7767V0Z" fill="#5DD5A2"/>
<path d="M40.1263 0H36.7765V3.33777H40.1263V0Z" fill="#5DD5A2"/>
<path d="M43.4761 0H40.1263V3.33777H43.4761V0Z" fill="#5DD5A2"/>
<path d="M46.8275 0H43.4777V3.33777H46.8275V0Z" fill="#5DD5A2"/>
<path d="M50.1773 0H46.8275V3.33777H50.1773V0Z" fill="#5DD5A2"/>
<path d="M53.527 0H50.1772V3.33777H53.527V0Z" fill="#5DD5A2"/>
<path d="M56.8769 0H53.5271V3.33777H56.8769V0Z" fill="#5DD5A2"/>
<path d="M60.5866 0H56.8785V3.33777H60.5866V0Z" fill="#5DD5A2"/>
<path d="M13.3249 43.3214H9.97511V46.6592H13.3249V43.3214Z" fill="#5DD5A2"/>
<path d="M10.013 39.9821H6.66319V43.3199H10.013V39.9821Z" fill="#5DD5A2"/>
<path d="M6.6996 36.6414H3.34979V39.9792H6.6996V36.6414Z" fill="#5DD5A2"/>
<path d="M3.34981 33.3217H0V36.6595H3.34981V33.3217Z" fill="#5DD5A2"/>
<path d="M3.34981 29.9991H0V33.3369H3.34981V29.9991Z" fill="#5DD5A2"/>
<path d="M3.34981 26.675H0V30.0128H3.34981V26.675Z" fill="#5DD5A2"/>
<path d="M63.9362 3.34832H60.5864V6.68609H63.9362V3.34832Z" fill="#5DD5A2"/>
<path d="M67.2499 6.68766H63.9001V10.0254H67.2499V6.68766Z" fill="#5DD5A2"/>
<path d="M70.5617 10.0285H67.2119V13.3662H70.5617V10.0285Z" fill="#5DD5A2"/>
<path d="M73.9131 13.3663H70.5633V16.7041H73.9131V13.3663Z" fill="#5DD5A2"/>
<path d="M73.9131 16.6888H70.5633V20.0266H73.9131V16.6888Z" fill="#5DD5A2"/>
<path d="M73.9131 20.0116H70.5633V23.3494H73.9131V20.0116Z" fill="#5DD5A2"/>
<path d="M73.9131 23.3357H70.5633V26.6734H73.9131V23.3357Z" fill="#5DD5A2"/>
<path d="M63.9362 43.3214H60.5864V46.6592H63.9362V43.3214Z" fill="#5DD5A2"/>
<path d="M67.2499 39.9821H63.9001V43.3199H67.2499V39.9821Z" fill="#5DD5A2"/>
<path d="M70.5617 36.6414H67.2119V39.9792H70.5617V36.6414Z" fill="#5DD5A2"/>
<path d="M73.9131 33.3217H70.5633V36.6595H73.9131V33.3217Z" fill="#5DD5A2"/>
<path d="M73.9131 29.9991H70.5633V33.3369H73.9131V29.9991Z" fill="#5DD5A2"/>
<path d="M73.9131 26.675H70.5633V30.0128H73.9131V26.675Z" fill="#5DD5A2"/>
<path d="M50.3609 10.0284H45.6522V14.7371H50.3609V10.0284Z" fill="#E6F4E6"/>
<path d="M50.3609 14.737H45.6522V19.4458H50.3609V14.737Z" fill="#E6F4E6"/>
<path d="M55.0754 10.0284H50.3667V14.7371H55.0754V10.0284Z" fill="#E6F4E6"/>
<path d="M55.0754 14.737H50.3667V19.4458H55.0754V14.737Z" fill="#E6F4E6"/>
<path d="M50.3609 30.616H45.6522V35.3247H50.3609V30.616Z" fill="#E6F4E6"/>
<path d="M50.3609 35.3248H45.6522V40.0335H50.3609V35.3248Z" fill="#E6F4E6"/>
<path d="M55.0754 30.616H50.3667V35.3247H55.0754V30.616Z" fill="#E6F4E6"/>
<path d="M55.0754 35.3248H50.3667V40.0335H55.0754V35.3248Z" fill="#E6F4E6"/>
</svg>
