<svg width="40" height="40" viewBox="0 0 40 40" fill="none" xmlns="http://www.w3.org/2000/svg">
<path d="M32.7298 12H30.4V14.3876H28.0549V16.8708H25.8V19.3539H23.4549V21.7416H21.2938H18.8549V19.3539H16.6V16.8708H14.3505H12V19.3511V21.7416H14.2549V24.1292H16.6V26.7079H18.8549V29H21.2938H23.4549V26.7079H25.8V24.1292H28.0549V21.7416H30.4V19.3539H32.6549V16.8708H35V14.4211V12H32.7298Z" fill="#ADA0D6"/>
<path d="M31.591 28.6819V31.591H28.8353H25.8512H23.0728H20.0875H17.2057H14.325H11.4432H8.40914V28.6819V25.9035V22.9194V20.0375V17.1557V14.2739V11.25H11.4432H14.325H17.2057H20.0875H23.0728H25.8512H28.75V8.40914H31.591V5.45459H28.8353H25.8512H23.0728H20.0875H17.2057H14.325H11.4432H8.458H5.45459V8.408V11.2898V14.2739V17.1557V20.0375V22.9194V25.9035V28.6819V31.6671V34.5455H8.458H11.4432H14.325H17.2057H20.0875H23.0728H25.8512H28.8353H31.7171H34.5455V31.6671V28.6819V25.9091H31.591V28.6819Z" fill="#E6F4E6"/>
</svg>
