<svg width="333" height="54" viewBox="0 0 333 54" fill="none" xmlns="http://www.w3.org/2000/svg">
<path d="M14.4229 3.61621H318.203V7.221L321.789 7.22264V10.8291L325.373 10.8307V14.4355H329V39.5922L325.373 39.5726V43.1774H321.789V46.7855H318.203V50.3919L14.4229 50.3919V46.7871H10.8369V43.1807H7.25255V39.5726H3.62549V14.4355H7.25255V10.8307H10.8369V7.22264H14.4229V3.61621Z" fill="#006758"/>
<path d="M18.0468 0.00805664H14.4214V3.61285H18.0468V0.00805664Z" fill="#05A38C"/>
<path d="M14.4213 3.61621H10.7959V7.221H14.4213V3.61621Z" fill="#05A38C"/>
<path d="M10.8368 7.22266H7.21143V10.8274H10.8368V7.22266Z" fill="#05A38C"/>
<path d="M7.25091 10.8308H3.62549V14.4356H7.25091V10.8308Z" fill="#05A38C"/>
<path d="M3.62542 14.4355H0V18.0403H3.62542V14.4355Z" fill="#05A38C"/>
<path d="M3.62542 18.0239H0V21.6287H3.62542V18.0239Z" fill="#05A38C"/>
<path d="M3.62542 21.6125H0V25.2173H3.62542V21.6125Z" fill="#05A38C"/>
<path d="M3.62542 25.2024H0V28.8072H3.62542V25.2024Z" fill="#05A38C"/>
<path d="M18.0468 50.3953H14.4214V54.0001H18.0468V50.3953Z" fill="#05A38C"/>
<path d="M21.6723 50.3953H18.0469V54.0001H21.6723V50.3953Z" fill="#05A38C"/>
<path d="M25.2992 50.3953H21.6738V54.0001H25.2992V50.3953Z" fill="#05A38C"/>
<path d="M28.9247 50.3953H25.2993V54.0001H28.9247V50.3953Z" fill="#05A38C"/>
<path d="M32.5502 50.3953H28.9248V54.0001H32.5502V50.3953Z" fill="#05A38C"/>
<path d="M36.1757 50.3953H32.5503V54.0001H36.1757V50.3953Z" fill="#05A38C"/>
<path d="M39.8027 50.3953H36.1772V54.0001H39.8027V50.3953Z" fill="#05A38C"/>
<path d="M43.4282 50.3953H39.8027V54.0001H43.4282V50.3953Z" fill="#05A38C"/>
<path d="M47.0536 50.3953H43.4282V54.0001H47.0536V50.3953Z" fill="#05A38C"/>
<path d="M50.6806 50.3953H47.0552V54.0001H50.6806V50.3953Z" fill="#05A38C"/>
<path d="M54.3058 50.3953H50.6804V54.0001H54.3058V50.3953Z" fill="#05A38C"/>
<path d="M57.9313 50.3953H54.3059V54.0001H57.9313V50.3953Z" fill="#05A38C"/>
<path d="M61.5568 50.3953H57.9314V54.0001H61.5568V50.3953Z" fill="#05A38C"/>
<path d="M65.1838 50.3953H61.5583V54.0001H65.1838V50.3953Z" fill="#05A38C"/>
<path d="M68.8093 50.3953H65.1838V54.0001H68.8093V50.3953Z" fill="#05A38C"/>
<path d="M72.4345 50.3953H68.8091V54.0001H72.4345V50.3953Z" fill="#05A38C"/>
<path d="M76.06 50.3953H72.4346V54.0001H76.06V50.3953Z" fill="#05A38C"/>
<path d="M79.6869 50.3953H76.0615V54.0001H79.6869V50.3953Z" fill="#05A38C"/>
<path d="M83.3124 50.3953H79.687V54.0001H83.3124V50.3953Z" fill="#05A38C"/>
<path d="M86.9379 50.3953H83.3125V54.0001H86.9379V50.3953Z" fill="#05A38C"/>
<path d="M90.5649 50.3953H86.9395V54.0001H90.5649V50.3953Z" fill="#05A38C"/>
<path d="M94.1904 50.3953H90.5649V54.0001H94.1904V50.3953Z" fill="#05A38C"/>
<path d="M97.8158 50.3953H94.1904V54.0001H97.8158V50.3953Z" fill="#05A38C"/>
<path d="M101.441 50.3953H97.8159V54.0001H101.441V50.3953Z" fill="#05A38C"/>
<path d="M105.068 50.3953H101.443V54.0001H105.068V50.3953Z" fill="#05A38C"/>
<path d="M108.694 50.3953H105.068V54.0001H108.694V50.3953Z" fill="#05A38C"/>
<path d="M112.319 50.3953H108.694V54.0001H112.319V50.3953Z" fill="#05A38C"/>
<path d="M115.945 50.3953H112.319V54.0001H115.945V50.3953Z" fill="#05A38C"/>
<path d="M119.571 50.3953H115.946V54.0001H119.571V50.3953Z" fill="#05A38C"/>
<path d="M123.197 50.3953H119.572V54.0001H123.197V50.3953Z" fill="#05A38C"/>
<path d="M126.822 50.3953H123.197V54.0001H126.822V50.3953Z" fill="#05A38C"/>
<path d="M130.449 50.3953H126.824V54.0001H130.449V50.3953Z" fill="#05A38C"/>
<path d="M134.075 50.3953H130.449V54.0001H134.075V50.3953Z" fill="#05A38C"/>
<path d="M137.7 50.3953H134.075V54.0001H137.7V50.3953Z" fill="#05A38C"/>
<path d="M141.326 50.3953H137.7V54.0001H141.326V50.3953Z" fill="#05A38C"/>
<path d="M144.953 50.3953H141.327V54.0001H144.953V50.3953Z" fill="#05A38C"/>
<path d="M148.578 50.3953H144.953V54.0001H148.578V50.3953Z" fill="#05A38C"/>
<path d="M152.204 50.3953H148.578V54.0001H152.204V50.3953Z" fill="#05A38C"/>
<path d="M155.829 50.3953H152.204V54.0001H155.829V50.3953Z" fill="#05A38C"/>
<path d="M159.456 50.3953H155.831V54.0001H159.456V50.3953Z" fill="#05A38C"/>
<path d="M163.081 50.3953H159.456V54.0001H163.081V50.3953Z" fill="#05A38C"/>
<path d="M166.707 50.3953H163.082V54.0001H166.707V50.3953Z" fill="#05A38C"/>
<path d="M170.334 50.3953H166.708V54.0001H170.334V50.3953Z" fill="#05A38C"/>
<path d="M173.959 50.3953H170.334V54.0001H173.959V50.3953Z" fill="#05A38C"/>
<path d="M177.585 50.3953H173.959V54.0001H177.585V50.3953Z" fill="#05A38C"/>
<path d="M181.21 50.3953H177.585V54.0001H181.21V50.3953Z" fill="#05A38C"/>
<path d="M184.838 50.3953H181.212V54.0001H184.838V50.3953Z" fill="#05A38C"/>
<path d="M188.463 50.3953H184.837V54.0001H188.463V50.3953Z" fill="#05A38C"/>
<path d="M192.088 50.3953H188.463V54.0001H192.088V50.3953Z" fill="#05A38C"/>
<path d="M195.714 50.3953H192.088V54.0001H195.714V50.3953Z" fill="#05A38C"/>
<path d="M199.341 50.3953H195.715V54.0001H199.341V50.3953Z" fill="#05A38C"/>
<path d="M202.966 50.3953H199.341V54.0001H202.966V50.3953Z" fill="#05A38C"/>
<path d="M206.591 50.3953H202.966V54.0001H206.591V50.3953Z" fill="#05A38C"/>
<path d="M210.219 50.3953H206.593V54.0001H210.219V50.3953Z" fill="#05A38C"/>
<path d="M213.844 50.3953H210.219V54.0001H213.844V50.3953Z" fill="#05A38C"/>
<path d="M217.47 50.3953H213.844V54.0001H217.47V50.3953Z" fill="#05A38C"/>
<path d="M221.095 50.3953H217.47V54.0001H221.095V50.3953Z" fill="#05A38C"/>
<path d="M21.6723 0H18.0469V3.60479H21.6723V0Z" fill="#05A38C"/>
<path d="M25.2992 0H21.6738V3.60479H25.2992V0Z" fill="#05A38C"/>
<path d="M28.9247 0H25.2993V3.60479H28.9247V0Z" fill="#05A38C"/>
<path d="M32.5502 0H28.9248V3.60479H32.5502V0Z" fill="#05A38C"/>
<path d="M36.1757 0H32.5503V3.60479H36.1757V0Z" fill="#05A38C"/>
<path d="M39.8027 0H36.1772V3.60479H39.8027V0Z" fill="#05A38C"/>
<path d="M43.4282 0H39.8027V3.60479H43.4282V0Z" fill="#05A38C"/>
<path d="M47.0536 0H43.4282V3.60479H47.0536V0Z" fill="#05A38C"/>
<path d="M50.6806 0H47.0552V3.60479H50.6806V0Z" fill="#05A38C"/>
<path d="M54.3058 0H50.6804V3.60479H54.3058V0Z" fill="#05A38C"/>
<path d="M57.9313 0H54.3059V3.60479H57.9313V0Z" fill="#05A38C"/>
<path d="M61.5568 0H57.9314V3.60479H61.5568V0Z" fill="#05A38C"/>
<path d="M65.1838 0H61.5583V3.60479H65.1838V0Z" fill="#05A38C"/>
<path d="M68.8093 0H65.1838V3.60479H68.8093V0Z" fill="#05A38C"/>
<path d="M72.4345 0H68.8091V3.60479H72.4345V0Z" fill="#05A38C"/>
<path d="M76.06 0H72.4346V3.60479H76.06V0Z" fill="#05A38C"/>
<path d="M79.6869 0H76.0615V3.60479H79.6869V0Z" fill="#05A38C"/>
<path d="M83.3124 0H79.687V3.60479H83.3124V0Z" fill="#05A38C"/>
<path d="M86.9379 0H83.3125V3.60479H86.9379V0Z" fill="#05A38C"/>
<path d="M90.5649 0H86.9395V3.60479H90.5649V0Z" fill="#05A38C"/>
<path d="M94.1904 0H90.5649V3.60479H94.1904V0Z" fill="#05A38C"/>
<path d="M97.8158 0H94.1904V3.60479H97.8158V0Z" fill="#05A38C"/>
<path d="M101.441 0H97.8159V3.60479H101.441V0Z" fill="#05A38C"/>
<path d="M105.068 0H101.443V3.60479H105.068V0Z" fill="#05A38C"/>
<path d="M108.694 0H105.068V3.60479H108.694V0Z" fill="#05A38C"/>
<path d="M112.319 0H108.694V3.60479H112.319V0Z" fill="#05A38C"/>
<path d="M115.945 0H112.319V3.60479H115.945V0Z" fill="#05A38C"/>
<path d="M119.571 0H115.946V3.60479H119.571V0Z" fill="#05A38C"/>
<path d="M123.197 0H119.572V3.60479H123.197V0Z" fill="#05A38C"/>
<path d="M126.822 0H123.197V3.60479H126.822V0Z" fill="#05A38C"/>
<path d="M130.449 0H126.824V3.60479H130.449V0Z" fill="#05A38C"/>
<path d="M134.075 0H130.449V3.60479H134.075V0Z" fill="#05A38C"/>
<path d="M137.7 0H134.075V3.60479H137.7V0Z" fill="#05A38C"/>
<path d="M141.326 0H137.7V3.60479H141.326V0Z" fill="#05A38C"/>
<path d="M144.953 0H141.327V3.60479H144.953V0Z" fill="#05A38C"/>
<path d="M148.578 0H144.953V3.60479H148.578V0Z" fill="#05A38C"/>
<path d="M152.204 0H148.578V3.60479H152.204V0Z" fill="#05A38C"/>
<path d="M155.829 0H152.204V3.60479H155.829V0Z" fill="#05A38C"/>
<path d="M159.456 0H155.831V3.60479H159.456V0Z" fill="#05A38C"/>
<path d="M163.081 0H159.456V3.60479H163.081V0Z" fill="#05A38C"/>
<path d="M166.707 0H163.082V3.60479H166.707V0Z" fill="#05A38C"/>
<path d="M170.334 0H166.708V3.60479H170.334V0Z" fill="#05A38C"/>
<path d="M173.959 0H170.334V3.60479H173.959V0Z" fill="#05A38C"/>
<path d="M177.585 0H173.959V3.60479H177.585V0Z" fill="#05A38C"/>
<path d="M181.21 0H177.585V3.60479H181.21V0Z" fill="#05A38C"/>
<path d="M184.838 0H181.212V3.60479H184.838V0Z" fill="#05A38C"/>
<path d="M188.463 0H184.837V3.60479H188.463V0Z" fill="#05A38C"/>
<path d="M192.088 0H188.463V3.60479H192.088V0Z" fill="#05A38C"/>
<path d="M195.714 0H192.088V3.60479H195.714V0Z" fill="#05A38C"/>
<path d="M199.341 0H195.715V3.60479H199.341V0Z" fill="#05A38C"/>
<path d="M202.966 0H199.341V3.60479H202.966V0Z" fill="#05A38C"/>
<path d="M206.591 0H202.966V3.60479H206.591V0Z" fill="#05A38C"/>
<path d="M210.219 0H206.593V3.60479H210.219V0Z" fill="#05A38C"/>
<path d="M213.844 0H210.219V3.60479H213.844V0Z" fill="#05A38C"/>
<path d="M217.47 0H213.844V3.60479H217.47V0Z" fill="#05A38C"/>
<path d="M221.095 0H217.47V3.60479H221.095V0Z" fill="#05A38C"/>
<path d="M14.4213 46.7871H10.7959V50.3919H14.4213V46.7871Z" fill="#05A38C"/>
<path d="M10.8368 43.1809H7.21143V46.7857H10.8368V43.1809Z" fill="#05A38C"/>
<path d="M7.25091 39.5728H3.62549V43.1775H7.25091V39.5728Z" fill="#05A38C"/>
<path d="M3.62542 35.9873H0V39.5921H3.62542V35.9873Z" fill="#05A38C"/>
<path d="M3.62542 32.3989H0V36.0037H3.62542V32.3989Z" fill="#05A38C"/>
<path d="M3.62542 28.8091H0V32.4139H3.62542V28.8091Z" fill="#05A38C"/>
<path d="M318 0H221V4H318V0Z" fill="#05A38C"/>
<path d="M321.625 3.61621H318V7.221H321.625V3.61621Z" fill="#05A38C"/>
<path d="M325.212 7.22266H321.586V10.8274H325.212V7.22266Z" fill="#05A38C"/>
<path d="M328.796 10.8308H325.17V14.4356H328.796V10.8308Z" fill="#05A38C"/>
<path d="M332.423 14.4355H328.797V18.0403H332.423V14.4355Z" fill="#05A38C"/>
<path d="M332.423 18.0239H328.797V21.6287H332.423V18.0239Z" fill="#05A38C"/>
<path d="M332.423 21.6125H328.797V25.2173H332.423V21.6125Z" fill="#05A38C"/>
<path d="M332.423 25.2024H328.797V28.8072H332.423V25.2024Z" fill="#05A38C"/>
<path d="M318 50H221V54H318V50Z" fill="#05A38C"/>
<path d="M321.625 46.7871H318V50.3919H321.625V46.7871Z" fill="#05A38C"/>
<path d="M325.212 43.1809H321.586V46.7857H325.212V43.1809Z" fill="#05A38C"/>
<path d="M328.796 39.5728H325.17V43.1775H328.796V39.5728Z" fill="#05A38C"/>
<path d="M332.423 35.9873H328.797V39.5921H332.423V35.9873Z" fill="#05A38C"/>
<path d="M332.423 32.3989H328.797V36.0037H332.423V32.3989Z" fill="#05A38C"/>
<path d="M332.423 28.8091H328.797V32.4139H332.423V28.8091Z" fill="#05A38C"/>
<path d="M14.4213 14.4373H10.7959V18.042H14.4213V14.4373Z" fill="#E6F4E6"/>
<path d="M10.8058 18.0337H7.18042V21.6385H10.8058V18.0337Z" fill="#E6F4E6"/>
<path d="M10.8058 21.6289H7.18042V25.2337H10.8058V21.6289Z" fill="#E6F4E6"/>
<path d="M18.0468 10.8291H14.4214V14.4339H18.0468V10.8291Z" fill="#E6F4E6"/>
<path d="M21.6723 7.22266H18.0469V10.8274H21.6723V7.22266Z" fill="#E6F4E6"/>
<path d="M25.2992 7.22266H21.6738V10.8274H25.2992V7.22266Z" fill="#E6F4E6"/>
<path d="M28.9247 7.22266H25.2993V10.8274H28.9247V7.22266Z" fill="#E6F4E6"/>
</svg>
