<svg width="21" height="20" viewBox="0 0 21 20" fill="none" xmlns="http://www.w3.org/2000/svg">
<g clip-path="url(#clip0_2015_7065)">
<path d="M17.6433 16.7856H16.2861V18.1428H17.6433V16.7856Z" fill="#E6F4E6"/>
<path d="M2.71458 16.7856H1.35742V18.1428H2.71458V16.7856Z" fill="#E6F4E6"/>
<path d="M1.35716 16.7856H0V18.1428H1.35716V16.7856Z" fill="#E6F4E6"/>
<path d="M1.35716 15.4287H0V16.7859H1.35716V15.4287Z" fill="#E6F4E6"/>
<path d="M17.6433 14.0713H16.2861V15.4285H17.6433V14.0713Z" fill="#E6F4E6"/>
<path d="M16.2859 14.0713H14.9287V15.4285H16.2859V14.0713Z" fill="#E6F4E6"/>
<path d="M14.9285 14.0713H13.5713V15.4285H14.9285V14.0713Z" fill="#E6F4E6"/>
<path d="M1.35716 14.0713H0V15.4285H1.35716V14.0713Z" fill="#E6F4E6"/>
<path d="M14.9285 12.7144H13.5713V14.0715H14.9285V12.7144Z" fill="#E6F4E6"/>
<path d="M13.571 12.7144H12.2139V14.0715H13.571V12.7144Z" fill="#E6F4E6"/>
<path d="M1.35716 12.7144H0V14.0715H1.35716V12.7144Z" fill="#E6F4E6"/>
<path d="M13.571 11.3569H12.2139V12.7141H13.571V11.3569Z" fill="#E6F4E6"/>
<path d="M1.35716 11.3569H0V12.7141H1.35716V11.3569Z" fill="#E6F4E6"/>
<path d="M14.9285 10H13.5713V11.3572H14.9285V10Z" fill="#E6F4E6"/>
<path d="M13.571 10H12.2139V11.3572H13.571V10Z" fill="#E6F4E6"/>
<path d="M1.35716 10H0V11.3572H1.35716V10Z" fill="#E6F4E6"/>
<path d="M17.6433 8.64307H16.2861V10.0002H17.6433V8.64307Z" fill="#E6F4E6"/>
<path d="M16.2859 8.64307H14.9287V10.0002H16.2859V8.64307Z" fill="#E6F4E6"/>
<path d="M14.9285 8.64307H13.5713V10.0002H14.9285V8.64307Z" fill="#E6F4E6"/>
<path d="M1.35716 8.64307H0V10.0002H1.35716V8.64307Z" fill="#E6F4E6"/>
<path d="M1.35716 7.28564H0V8.64281H1.35716V7.28564Z" fill="#E6F4E6"/>
<path d="M17.6433 5.92871H16.2861V7.28587H17.6433V5.92871Z" fill="#E6F4E6"/>
<path d="M1.35716 5.92871H0V7.28587H1.35716V5.92871Z" fill="#E6F4E6"/>
<path d="M17.6433 4.57129H16.2861V5.92845H17.6433V4.57129Z" fill="#E6F4E6"/>
<path d="M16.2859 4.57129H14.9287V5.92845H16.2859V4.57129Z" fill="#E6F4E6"/>
<path d="M14.9285 4.57129H13.5713V5.92845H14.9285V4.57129Z" fill="#E6F4E6"/>
<path d="M13.571 4.57129H12.2139V5.92845H13.571V4.57129Z" fill="#E6F4E6"/>
<path d="M12.2146 4.57129H10.8574V5.92845H12.2146V4.57129Z" fill="#E6F4E6"/>
<path d="M10.8572 4.57129H9.5V5.92845H10.8572V4.57129Z" fill="#E6F4E6"/>
<path d="M9.49974 4.57129H8.14258V5.92845H9.49974V4.57129Z" fill="#E6F4E6"/>
<path d="M8.1433 4.57129H6.78613V5.92845H8.1433V4.57129Z" fill="#E6F4E6"/>
<path d="M6.78587 4.57129H5.42871V5.92845H6.78587V4.57129Z" fill="#E6F4E6"/>
<path d="M5.42845 4.57129H4.07129V5.92845H5.42845V4.57129Z" fill="#E6F4E6"/>
<path d="M4.07201 4.57129H2.71484V5.92845H4.07201V4.57129Z" fill="#E6F4E6"/>
<path d="M2.71458 4.57129H1.35742V5.92845H2.71458V4.57129Z" fill="#E6F4E6"/>
<path d="M1.35716 4.57129H0V5.92845H1.35716V4.57129Z" fill="#E6F4E6"/>
<path d="M16.2859 3.21436H14.9287V4.57152H16.2859V3.21436Z" fill="#E6F4E6"/>
<path d="M1.35716 3.21436H0V4.57152H1.35716V3.21436Z" fill="#E6F4E6"/>
<path d="M16.2859 1.85693H14.9287V3.2141H16.2859V1.85693Z" fill="#E6F4E6"/>
<path d="M14.9285 1.85693H13.5713V3.2141H14.9285V1.85693Z" fill="#E6F4E6"/>
<path d="M2.71458 1.85693H1.35742V3.2141H2.71458V1.85693Z" fill="#E6F4E6"/>
<path d="M1.35716 1.85693H0V3.2141H1.35716V1.85693Z" fill="#E6F4E6"/>
<path d="M18.9997 16.7856H17.6426V18.1428H18.9997V16.7856Z" fill="#E6F4E6"/>
<path d="M18.9997 15.4287H17.6426V16.7859H18.9997V15.4287Z" fill="#E6F4E6"/>
<path d="M17.6433 18.1431H16.2861V19.5002H17.6433V18.1431Z" fill="#E6F4E6"/>
<path d="M16.2859 18.1431H14.9287V19.5002H16.2859V18.1431Z" fill="#E6F4E6"/>
<path d="M14.9285 18.1431H13.5713V19.5002H14.9285V18.1431Z" fill="#E6F4E6"/>
<path d="M13.571 18.1431H12.2139V19.5002H13.571V18.1431Z" fill="#E6F4E6"/>
<path d="M12.2146 18.1431H10.8574V19.5002H12.2146V18.1431Z" fill="#E6F4E6"/>
<path d="M10.8572 18.1431H9.5V19.5002H10.8572V18.1431Z" fill="#E6F4E6"/>
<path d="M9.49974 18.1431H8.14258V19.5002H9.49974V18.1431Z" fill="#E6F4E6"/>
<path d="M8.1433 18.1431H6.78613V19.5002H8.1433V18.1431Z" fill="#E6F4E6"/>
<path d="M6.78587 18.1431H5.42871V19.5002H6.78587V18.1431Z" fill="#E6F4E6"/>
<path d="M5.42845 18.1431H4.07129V19.5002H5.42845V18.1431Z" fill="#E6F4E6"/>
<path d="M4.07201 18.1431H2.71484V19.5002H4.07201V18.1431Z" fill="#E6F4E6"/>
<path d="M2.71458 18.1431H1.35742V19.5002H2.71458V18.1431Z" fill="#E6F4E6"/>
<path d="M18.9997 14.0713H17.6426V15.4285H18.9997V14.0713Z" fill="#E6F4E6"/>
<path d="M20.3572 12.7144H19V14.0715H20.3572V12.7144Z" fill="#E6F4E6"/>
<path d="M18.9997 12.7144H17.6426V14.0715H18.9997V12.7144Z" fill="#E6F4E6"/>
<path d="M20.3572 11.3569H19V12.7141H20.3572V11.3569Z" fill="#E6F4E6"/>
<path d="M20.3572 10H19V11.3572H20.3572V10Z" fill="#E6F4E6"/>
<path d="M18.9997 10H17.6426V11.3572H18.9997V10Z" fill="#E6F4E6"/>
<path d="M18.9997 8.64307H17.6426V10.0002H18.9997V8.64307Z" fill="#E6F4E6"/>
<path d="M18.9997 7.28564H17.6426V8.64281H18.9997V7.28564Z" fill="#E6F4E6"/>
<path d="M18.9997 5.92871H17.6426V7.28587H18.9997V5.92871Z" fill="#E6F4E6"/>
<path d="M14.9285 0.5H13.5713V1.85716H14.9285V0.5Z" fill="#E6F4E6"/>
<path d="M13.571 0.5H12.2139V1.85716H13.571V0.5Z" fill="#E6F4E6"/>
<path d="M12.2146 0.5H10.8574V1.85716H12.2146V0.5Z" fill="#E6F4E6"/>
<path d="M10.8572 0.5H9.5V1.85716H10.8572V0.5Z" fill="#E6F4E6"/>
<path d="M9.49974 0.5H8.14258V1.85716H9.49974V0.5Z" fill="#E6F4E6"/>
<path d="M8.1433 0.5H6.78613V1.85716H8.1433V0.5Z" fill="#E6F4E6"/>
<path d="M6.78587 0.5H5.42871V1.85716H6.78587V0.5Z" fill="#E6F4E6"/>
<path d="M5.42845 0.5H4.07129V1.85716H5.42845V0.5Z" fill="#E6F4E6"/>
<path d="M4.07201 0.5H2.71484V1.85716H4.07201V0.5Z" fill="#E6F4E6"/>
<path d="M2.71458 0.5H1.35742V1.85716H2.71458V0.5Z" fill="#E6F4E6"/>
</g>
<defs>
<clipPath id="clip0_2015_7065">
<rect width="20.3572" height="19" fill="white" transform="translate(0 0.5)"/>
</clipPath>
</defs>
</svg>
